<svg width="135" height="71" viewBox="0 0 135 71" fill="none" xmlns="http://www.w3.org/2000/svg">
    <path
        d="M14.9582 61.925L15.9082 63.375C14.9416 64.625 13.4999 65.25 11.5832 65.25C9.78322 65.25 8.32488 64.7167 7.20822 63.65C6.10822 62.5833 5.55822 61.1583 5.55822 59.375C5.55822 57.725 6.09988 56.3333 7.18322 55.2C8.26655 54.0667 9.62488 53.5 11.2582 53.5C13.2249 53.5 14.6999 53.9917 15.6832 54.975L14.7582 56.55C13.8916 55.7667 12.8166 55.375 11.5332 55.375C10.4832 55.375 9.57488 55.7583 8.80822 56.525C8.05822 57.275 7.68322 58.225 7.68322 59.375C7.68322 60.5917 8.06655 61.5583 8.83322 62.275C9.61655 63.0083 10.5832 63.375 11.7332 63.375C13.0332 63.375 14.1082 62.8917 14.9582 61.925ZM20.5152 65H18.5152V47.5H20.5152V55.05C21.5152 54.05 22.7402 53.55 24.1902 53.55C27.3069 53.55 28.8652 55.2167 28.8652 58.55V65H26.8652V58.825C26.8652 56.5583 25.8152 55.425 23.7152 55.425C23.1319 55.425 22.5402 55.5583 21.9402 55.825C21.3569 56.0917 20.8819 56.4333 20.5152 56.85V65ZM32.836 56.125L32.311 54.525C33.4276 53.8417 34.6776 53.5 36.061 53.5C37.5776 53.5 38.6776 53.875 39.361 54.625C40.0443 55.375 40.386 56.5333 40.386 58.1V65H38.486V63.55C37.6026 64.6333 36.4026 65.175 34.886 65.175C33.8526 65.175 33.0193 64.8667 32.386 64.25C31.7526 63.6167 31.436 62.7667 31.436 61.7C31.436 60.6 31.8276 59.7333 32.611 59.1C33.3943 58.45 34.4193 58.125 35.686 58.125C36.8693 58.125 37.8026 58.3667 38.486 58.85C38.486 57.5833 38.311 56.675 37.961 56.125C37.611 55.575 36.936 55.3 35.936 55.3C34.9193 55.3 33.886 55.575 32.836 56.125ZM35.586 63.375C36.7026 63.375 37.6693 62.8917 38.486 61.925V60.5C37.786 60 36.9443 59.75 35.961 59.75C35.2776 59.75 34.7026 59.9167 34.236 60.25C33.786 60.5667 33.561 61.0167 33.561 61.6C33.561 62.15 33.736 62.5833 34.086 62.9C34.4526 63.2167 34.9526 63.375 35.586 63.375ZM45.735 65H43.735V53.75H45.735V55.125C46.1516 54.6583 46.6933 54.2833 47.36 54C48.0433 53.7 48.7266 53.55 49.41 53.55C52.5266 53.55 54.085 55.2 54.085 58.5V65H52.085V58.875C52.085 56.575 51.0266 55.425 48.91 55.425C47.6433 55.425 46.585 55.9083 45.735 56.875V65ZM55.9057 66.625C55.9057 65.7583 56.2223 65.0333 56.8557 64.45C57.489 63.8667 58.3723 63.45 59.5057 63.2C59.3223 62.9667 59.2307 62.6583 59.2307 62.275C59.2307 61.8917 59.3307 61.575 59.5307 61.325C58.7307 61.0083 58.1057 60.525 57.6557 59.875C57.2223 59.225 57.0057 58.475 57.0057 57.625C57.0057 56.4583 57.4223 55.4833 58.2557 54.7C59.1057 53.9 60.2223 53.5 61.6057 53.5C62.6723 53.5 63.6223 53.775 64.4557 54.325L67.7557 53.525L67.8057 55.15L65.6807 55.675C66.0307 56.2583 66.2057 56.9083 66.2057 57.625C66.2057 58.775 65.7807 59.7417 64.9307 60.525C64.0973 61.2917 62.989 61.675 61.6057 61.675C61.2223 61.675 60.9723 61.6667 60.8557 61.65C60.7723 61.85 60.7307 62.0583 60.7307 62.275C60.7307 62.575 60.8057 62.825 60.9557 63.025C60.989 63.025 61.089 63.025 61.2557 63.025C61.439 63.0083 61.564 63 61.6307 63C63.3807 63 64.7723 63.3167 65.8057 63.95C66.839 64.5667 67.3557 65.4583 67.3557 66.625C67.3557 67.7583 66.839 68.6333 65.8057 69.25C64.7723 69.8833 63.3807 70.2 61.6307 70.2C59.864 70.2 58.464 69.8917 57.4307 69.275C56.414 68.675 55.9057 67.7917 55.9057 66.625ZM65.4807 66.625C65.4807 66.0083 65.139 65.5167 64.4557 65.15C63.7723 64.8 62.8307 64.625 61.6307 64.625C60.4307 64.625 59.489 64.8 58.8057 65.15C58.1223 65.5167 57.7807 66.0083 57.7807 66.625C57.7807 67.2417 58.1223 67.7167 58.8057 68.05C59.489 68.4 60.4307 68.575 61.6307 68.575C62.8307 68.575 63.7723 68.4083 64.4557 68.075C65.139 67.7417 65.4807 67.2583 65.4807 66.625ZM58.8807 57.625C58.8807 58.325 59.1307 58.9083 59.6307 59.375C60.1473 59.825 60.8057 60.05 61.6057 60.05C62.4057 60.05 63.0557 59.825 63.5557 59.375C64.0723 58.925 64.3307 58.3417 64.3307 57.625C64.3307 56.9083 64.0807 56.3167 63.5807 55.85C63.064 55.3667 62.4057 55.125 61.6057 55.125C60.8057 55.125 60.1473 55.3667 59.6307 55.85C59.1307 56.3167 58.8807 56.9083 58.8807 57.625ZM78.6842 62.2L79.3092 63.775C78.2259 64.7583 76.8175 65.25 75.0842 65.25C73.2509 65.25 71.7925 64.7167 70.7092 63.65C69.6092 62.5833 69.0592 61.1583 69.0592 59.375C69.0592 57.6917 69.5759 56.2917 70.6092 55.175C71.6259 54.0583 73.0425 53.5 74.8592 53.5C76.3592 53.5 77.6009 53.9833 78.5842 54.95C79.5842 55.9 80.0842 57.1333 80.0842 58.65C80.0842 59.1333 80.0425 59.5833 79.9592 60H71.3092C71.3925 61.05 71.7842 61.875 72.4842 62.475C73.2009 63.075 74.1175 63.375 75.2342 63.375C76.7009 63.375 77.8509 62.9833 78.6842 62.2ZM74.7592 55.375C73.7759 55.375 72.9592 55.65 72.3092 56.2C71.6759 56.75 71.3009 57.475 71.1842 58.375H78.0092C77.9592 57.4417 77.6425 56.7083 77.0592 56.175C76.4925 55.6417 75.7259 55.375 74.7592 55.375Z"
        fill="#2F92F6" />
    <path
        d="M84.7975 65H82.7975V47.5H84.7975V55.05C85.7975 54.05 87.0225 53.55 88.4725 53.55C91.5891 53.55 93.1475 55.2167 93.1475 58.55V65H91.1475V58.825C91.1475 56.5583 90.0975 55.425 87.9975 55.425C87.4141 55.425 86.8225 55.5583 86.2225 55.825C85.6391 56.0917 85.1641 56.4333 84.7975 56.85V65ZM105.393 62.2L106.018 63.775C104.935 64.7583 103.527 65.25 101.793 65.25C99.9598 65.25 98.5015 64.7167 97.4182 63.65C96.3182 62.5833 95.7682 61.1583 95.7682 59.375C95.7682 57.6917 96.2848 56.2917 97.3182 55.175C98.3348 54.0583 99.7515 53.5 101.568 53.5C103.068 53.5 104.31 53.9833 105.293 54.95C106.293 55.9 106.793 57.1333 106.793 58.65C106.793 59.1333 106.752 59.5833 106.668 60H98.0182C98.1015 61.05 98.4932 61.875 99.1932 62.475C99.9098 63.075 100.827 63.375 101.943 63.375C103.41 63.375 104.56 62.9833 105.393 62.2ZM101.468 55.375C100.485 55.375 99.6682 55.65 99.0182 56.2C98.3848 56.75 98.0098 57.475 97.8932 58.375H104.718C104.668 57.4417 104.352 56.7083 103.768 56.175C103.202 55.6417 102.435 55.375 101.468 55.375ZM111.506 65H109.506V53.75H111.506V55.075C112.173 54.0583 113.115 53.55 114.331 53.55C115.115 53.55 115.698 53.6917 116.081 53.975L115.381 55.85C114.898 55.5667 114.39 55.425 113.856 55.425C112.84 55.425 112.056 55.9583 111.506 57.025V65ZM118.903 63.6C117.803 62.4667 117.253 61.0583 117.253 59.375C117.253 57.675 117.803 56.275 118.903 55.175C120.019 54.0583 121.469 53.5 123.253 53.5C125.036 53.5 126.478 54.0583 127.578 55.175C128.694 56.275 129.253 57.675 129.253 59.375C129.253 61.075 128.694 62.4833 127.578 63.6C126.478 64.7 125.036 65.25 123.253 65.25C121.486 65.25 120.036 64.7 118.903 63.6ZM120.478 56.5C119.744 57.2333 119.378 58.1917 119.378 59.375C119.378 60.5583 119.736 61.5167 120.453 62.25C121.186 63 122.119 63.375 123.253 63.375C124.386 63.375 125.311 63.0083 126.028 62.275C126.761 61.525 127.128 60.5583 127.128 59.375C127.128 58.225 126.761 57.2667 126.028 56.5C125.311 55.75 124.386 55.375 123.253 55.375C122.119 55.375 121.194 55.75 120.478 56.5Z"
        fill="#18258F" />
    <path d="M77.5484 24.7849L67.9083 37.1242L66.8311 28.5105L60.4762 27.8235L77.5484 24.7849Z" fill="#03578C" />
    <path d="M67.7736 22.354L60.4762 27.8235L61.9842 13.5289L67.7736 22.354Z" fill="#03578C" />
    <path d="M67.612 22.3276L61.9841 13.5289L67.3158 14.7443L67.612 22.3276Z" fill="#0099F7" />
    <path d="M85.7613 27.1629H85.7344L84.2534 37.1506H67.9082V37.1242L77.5483 24.7849L85.7613 27.1629Z" fill="#28ADFF" />
    <path d="M60.4762 27.8235L67.6659 22.4333L67.6121 22.3276L77.5484 24.7849L60.4762 27.8235Z" fill="#0099F7" />
    <path
        d="M71.6781 19.5532L67.7736 22.354L67.612 22.3276L67.3158 14.7443L77.4137 17.0959L77.4406 17.0695L78.3023 20.1609L71.6781 19.5532Z"
        fill="#0474BA" />
    <path
        d="M91.497 26.608L85.7614 27.1628L77.5484 24.7848L78.0331 24.6263L71.7051 19.5531L85.3036 24.5206L87.9695 25.5246L88.5619 24.9169L87.6463 20.795L84.5227 20.7422L79.3526 20.2666L83.3109 18.6812L87.9695 20.3458L88.3195 12.789L88.6426 12.8947L91.497 26.608Z"
        fill="#0474BA" />
    <path d="M88.5617 24.917L87.9693 25.5248L85.3035 24.5207L84.5226 20.7423L87.6462 20.7951L88.5617 24.917Z" fill="#03578C" />
    <path d="M77.7637 3.91107L74.667 4.67732L71.0317 6.31552L71.0856 4.17529L76.9289 0.766785L77.7637 3.91107Z" fill="#49484D" />
    <path d="M79.3256 9.80336L70.951 9.75051L71.0318 6.31558L74.6671 4.67739L77.7638 3.91113L79.3256 9.80336Z" fill="#FFB536" />
    <path d="M61.9841 13.6081L50.2974 37.3356H50.2705L43 39.2116L61.9841 13.6081Z" fill="#FFC767" />
    <path d="M62.0379 13.5289L60.4761 27.8235L53.421 39.2116L50.2974 37.3356L61.984 13.6082L62.0379 13.5289Z" fill="#FFB536" />
    <path d="M64.8654 28.2991L60.9071 38.2075L53.4211 39.2116L60.4762 27.8235L64.8654 28.2991Z" fill="#FFC767" />
    <path d="M67.9082 37.1506L67.1004 40.5591L60.9608 38.2075H60.907L64.8654 28.2991L66.8311 28.5105L67.9082 37.1506Z" fill="#FFB536" />
    <path d="M77.4137 17.0959L62.038 13.5289L70.9511 9.75046H71.0857L76.202 15.6691L77.4137 17.0959Z" fill="#FFB536" />
    <path d="M88.0501 12.7098H88.0232L77.4137 17.0959L76.2019 15.6691L81.022 10.3053L88.0501 12.7098Z" fill="#FFC767" />
    <path d="M81.022 10.3053L76.202 15.6691L70.951 9.75046L79.3256 9.8033L80.9951 10.3053H81.022Z" fill="#03578C" />
    <path
        d="M88.0232 12.7097L86.4884 15.9069L83.3378 18.6812H83.3109L79.3525 20.2666L78.3023 20.1609L77.4137 17.0959L87.9963 12.7362L88.0232 12.7097Z"
        fill="#0099F7" />
    <path d="M78.033 24.6264L77.5483 24.7849L67.8005 22.3805L67.7736 22.354L71.705 19.5533L78.033 24.6264Z" fill="#03578C" />
    <path d="M85.3036 24.5207L71.705 19.5533H71.6781L78.3023 20.161L79.3525 20.2667L84.5226 20.7423L85.3036 24.5207Z" fill="#0099F7" />
    <path d="M88.3195 12.789L87.9694 20.3459L83.3109 18.6812H83.3378L86.4884 15.9069L88.0233 12.7097H88.0502L88.3195 12.789Z"
        fill="#03578C" />
</svg>