<svg width="600" height="257" viewBox="0 0 600 257" fill="none" xmlns="http://www.w3.org/2000/svg">
<rect width="600" height="256.726" fill="#FFEB47"/>
<rect x="381" y="98" width="128" height="65" fill="white"/>
<path opacity="0.95" fill-rule="evenodd" clip-rule="evenodd" d="M63.2834 141.266C63.7051 144.308 64.5334 146.583 65.7683 148.088C68.0275 150.829 71.8979 152.2 77.3798 152.2C80.663 152.2 83.3288 151.838 85.3772 151.116C89.2625 149.73 91.2056 147.155 91.2056 143.39C91.2056 141.191 90.2416 139.489 88.3138 138.284C86.3859 137.109 83.3591 136.07 79.2324 135.167L72.1841 133.585C65.2562 132.019 60.467 130.317 57.8164 128.48C53.3283 125.407 51.0843 120.603 51.0843 114.067C51.0843 108.103 53.253 103.148 57.5904 99.2022C61.9279 95.2564 68.2983 93.2834 76.7022 93.2834C83.7206 93.2834 89.7069 95.1434 94.6606 98.8634C99.6159 102.583 102.214 107.982 102.456 115.061H89.0819C88.8409 111.055 87.0938 108.208 83.8409 106.522C81.6722 105.407 78.9764 104.85 75.7534 104.85C72.169 104.85 69.3075 105.573 67.1689 107.019C65.0302 108.464 63.9611 110.482 63.9611 113.073C63.9611 115.453 65.0153 117.23 67.1236 118.404C68.4792 119.188 71.3707 120.106 75.7985 121.16L87.2747 123.917C92.3041 125.121 96.1003 126.733 98.6597 128.751C102.637 131.883 104.625 136.417 104.625 142.351C104.625 148.435 102.298 153.488 97.6434 157.509C92.9903 161.53 86.4163 163.541 77.9222 163.541C69.2472 163.541 62.4249 161.56 57.4549 157.599C52.4849 153.638 50 148.194 50 141.266H63.2834ZM108.827 122.199V113.028H115.694V99.2926H128.436V113.028H136.432V122.199H128.436V148.224C128.436 150.242 128.691 151.5 129.202 151.997C129.716 152.494 131.28 152.742 133.903 152.742C134.293 152.742 134.707 152.735 135.143 152.72C135.582 152.704 136.011 152.682 136.432 152.652V162.275L130.333 162.501C124.249 162.712 120.092 161.658 117.863 159.339C116.417 157.863 115.694 155.589 115.694 152.516V122.199H108.827ZM164.128 121.883C161.147 121.883 158.833 122.817 157.193 124.685C155.551 126.552 154.519 129.082 154.098 132.275H174.113C173.902 128.871 172.87 126.288 171.018 124.526C169.167 122.764 166.868 121.883 164.128 121.883ZM164.128 111.266C168.223 111.266 171.914 112.034 175.197 113.57C178.481 115.106 181.192 117.531 183.331 120.844C185.258 123.766 186.507 127.154 187.079 131.01C187.412 133.269 187.548 136.522 187.487 140.769H153.781C153.962 145.709 155.514 149.173 158.436 151.161C160.213 152.396 162.351 153.013 164.85 153.013C167.503 153.013 169.654 152.26 171.312 150.754C172.216 149.941 173.015 148.811 173.707 147.366H186.855C186.522 150.288 185.001 153.254 182.29 156.266C178.073 161.055 172.171 163.45 164.581 163.45C158.315 163.45 152.788 161.432 147.997 157.396C143.208 153.36 140.815 146.793 140.815 137.697C140.815 129.173 142.975 122.636 147.298 118.088C151.621 113.54 157.23 111.266 164.128 111.266ZM223.315 137.878C222.503 138.389 221.681 138.804 220.854 139.12C220.026 139.436 218.888 139.73 217.442 140.001L214.55 140.543C211.84 141.025 209.897 141.613 208.721 142.305C206.733 143.48 205.741 145.302 205.741 147.772C205.741 149.971 206.349 151.56 207.571 152.539C208.79 153.518 210.273 154.007 212.021 154.007C214.792 154.007 217.345 153.194 219.678 151.567C222.013 149.941 223.226 146.974 223.315 142.667V137.878ZM215.5 131.868C217.878 131.567 219.581 131.191 220.604 130.739C222.443 129.956 223.36 128.736 223.36 127.079C223.36 125.061 222.661 123.668 221.26 122.9C219.859 122.132 217.803 121.748 215.092 121.748C212.051 121.748 209.898 122.501 208.633 124.007C207.728 125.121 207.126 126.627 206.824 128.525H194.4C194.672 124.218 195.876 120.678 198.015 117.907C201.418 113.57 207.26 111.401 215.545 111.401C220.936 111.401 225.725 112.471 229.912 114.609C234.099 116.748 236.192 120.784 236.192 126.718V149.308C236.192 150.875 236.223 152.772 236.283 155.001C236.374 156.688 236.628 157.833 237.051 158.435C237.472 159.037 238.104 159.534 238.948 159.926V161.823H224.942C224.551 160.83 224.279 159.896 224.128 159.022C223.979 158.149 223.858 157.155 223.768 156.04C221.99 157.968 219.942 159.61 217.623 160.965C214.852 162.562 211.719 163.36 208.225 163.36C203.768 163.36 200.084 162.087 197.177 159.542C194.272 156.997 192.818 153.39 192.818 148.721C192.818 142.667 195.153 138.284 199.821 135.573C202.383 134.097 206.147 133.043 211.117 132.411L215.5 131.868ZM260.772 161.823H247.894V95.2262H260.772V161.823ZM268.271 122.199V113.028H275.138V99.2926H287.88V113.028H295.876V122.199H287.88V148.224C287.88 150.242 288.137 151.5 288.648 151.997C289.16 152.494 290.727 152.742 293.347 152.742C293.739 152.742 294.152 152.735 294.59 152.72C295.026 152.704 295.455 152.682 295.876 152.652V162.275L289.777 162.501C283.693 162.712 279.537 161.658 277.307 159.339C275.861 157.863 275.138 155.589 275.138 152.516V122.199H268.271ZM331.3 111.311C334.341 111.311 337.105 111.838 339.589 112.892C342.076 113.946 344.115 115.558 345.712 117.727C347.067 119.564 347.896 121.454 348.196 123.397C348.498 125.34 348.649 128.51 348.649 132.908V161.823H335.502V131.868C335.502 129.218 335.049 127.079 334.147 125.453C332.97 123.163 330.741 122.019 327.458 122.019C324.055 122.019 321.472 123.156 319.711 125.43C317.948 127.704 317.067 130.95 317.067 135.167V161.823H304.234V95.4522H317.067V118.992C318.934 116.13 321.096 114.135 323.55 113.005C326.006 111.876 328.589 111.311 331.3 111.311Z" fill="black"/>
<path d="M548.704 127.515L516.523 85.9526C515.682 84.8368 514.004 84 512.604 84H364.285V176.857H514.282C515.682 176.857 516.801 176.299 517.641 175.183L548.985 135.047C550.382 132.815 550.382 129.747 548.704 127.515ZM434.529 160.43H384.154V99.8997H433.407V115.242H404.304V122.215H430.051V136.999H404.304V144.809H434.529V160.43ZM483.22 160.43L472.866 144.252L462.513 160.43H439.285L461.113 130.025L439.845 100.179H462.791L473.145 115.521L483.22 100.179H505.329L484.338 129.467L506.729 160.709H483.22V160.43Z" fill="black"/>
</svg>
