<svg width="512" height="512" viewBox="0 0 512 512" fill="none" xmlns="http://www.w3.org/2000/svg">
<path d="M0 240C0 126.863 0 70.2944 35.1472 35.1472C70.2944 0 126.863 0 240 0H272C385.137 0 441.706 0 476.853 35.1472C512 70.2944 512 126.863 512 240V272C512 385.137 512 441.706 476.853 476.853C441.706 512 385.137 512 272 512H240C126.863 512 70.2944 512 35.1472 476.853C0 441.706 0 385.137 0 272V240Z" fill="url(#paint0_linear_2419_1762)"/>
<path fill-rule="evenodd" clip-rule="evenodd" d="M324.573 56.5998C336.275 49.5076 351.266 57.7426 351.557 71.4228L353.322 154.34L439.227 169.149C452.712 171.473 458.623 187.523 449.868 198.039L392.703 266.696L436.115 301.576C446.781 310.146 444.17 327.05 431.415 332.002L352.968 362.46L362.584 410.94C365.246 424.362 352.381 435.633 339.426 431.227L283.467 412.198C223.827 441.162 153.146 429.027 106.516 384.399C103.63 381.636 106.411 377.044 110.313 377.901C172.41 391.549 221.8 372.248 246.079 352.341C252.405 347.154 253.329 337.821 248.142 331.495C242.955 325.169 233.621 324.245 227.295 329.432C206.361 346.597 150.243 369.002 77.2286 335.62C72.9082 333.644 69.5062 330.065 67.8452 325.614C41.9977 256.354 68.1112 176.317 133.655 136.593C163.449 118.535 196.858 111.555 229.082 114.475L324.573 56.5998ZM197.608 236.398C183.616 244.879 165.398 240.411 156.918 226.418C148.438 212.426 152.906 194.208 166.898 185.728C180.89 177.248 199.108 181.716 207.588 195.708C216.069 209.7 211.6 227.918 197.608 236.398Z" fill="url(#paint1_radial_2419_1762)"/>
<defs>
<linearGradient id="paint0_linear_2419_1762" x1="256" y1="0" x2="256" y2="512" gradientUnits="userSpaceOnUse">
<stop stop-color="#1B171F"/>
<stop offset="1" stop-color="#3B3442"/>
</linearGradient>
<radialGradient id="paint1_radial_2419_1762" cx="0" cy="0" r="1" gradientUnits="userSpaceOnUse" gradientTransform="translate(163.93 230.715) rotate(30.0581) scale(617.665 646.74)">
<stop stop-color="#02CF7F"/>
<stop offset="1" stop-color="#02C076" stop-opacity="0.6"/>
</radialGradient>
</defs>
</svg>
