<svg width="195" height="48" viewBox="0 0 195 48" fill="none" xmlns="http://www.w3.org/2000/svg">
    <path
        d="M194.579 16.3438H187.823L188.45 33.3303H193.951L194.579 16.3438ZM191.201 41.4376C192.974 41.4376 194.554 39.9416 194.579 38.0595C194.554 36.2258 192.974 34.7298 191.201 34.7298C189.331 34.7298 187.798 36.2258 187.823 38.0595C187.798 39.9416 189.331 41.4376 191.201 41.4376Z"
        fill="#02C076"></path>
    <path
        d="M72.2431 24.0648H78.6613C78.6372 19.215 74.8972 16.0059 68.9133 16.0059C63.038 16.0059 58.8879 19.1667 58.9241 23.8718C58.912 27.7324 61.5903 29.8798 65.9696 30.8209L68.4308 31.3517C71.1814 31.9549 72.1224 32.6426 72.1466 33.7646C72.1224 34.9831 71.0125 35.8396 68.8651 35.8396C66.2954 35.8396 64.7753 34.6332 64.6667 32.3651H59.0045C59.0286 38.5662 62.5192 41.341 68.9616 41.341C75.223 41.341 78.975 38.6386 78.9991 33.7646C78.975 30.0005 76.731 27.3584 71.2779 26.1882L69.2511 25.7538C66.9107 25.2592 65.8611 24.5715 65.9214 23.3892C65.9334 22.3034 66.8383 21.5072 68.9133 21.5072C71.0849 21.5072 72.1104 22.4603 72.2431 24.0648Z"
        fill="white"></path>
    <path
        d="M83.9378 41.0514H91.1282L93.7341 31.1104H93.9271L96.533 41.0514H103.723L108.356 22.5206H101.697L99.6697 33.7163H99.525L97.0638 22.5206H90.5974L88.2327 33.8128H88.088L85.9647 22.5206H79.3051L83.9378 41.0514Z"
        fill="white"></path>
    <path
        d="M113.848 41.341C116.261 41.341 118.082 40.5206 119.204 38.4455H119.349V41.0514H125.574V28.3597C125.574 24.9335 122.329 22.2793 117.033 22.2793C111.495 22.2793 108.769 25.1748 108.539 28.5528H114.668C114.825 27.4067 115.669 26.8638 116.936 26.8638C118.094 26.8638 118.915 27.3946 118.915 28.3597V28.408C118.915 29.4817 117.732 29.8195 114.62 30.0487C110.795 30.3262 107.816 31.8705 107.816 35.9361C107.816 39.6278 110.301 41.341 113.848 41.341ZM116.019 37.1426C114.885 37.1426 114.089 36.5876 114.089 35.5501C114.089 34.597 114.765 33.8611 116.309 33.6198C117.371 33.4509 118.263 33.2337 118.963 32.9442V34.4884C118.963 36.1774 117.527 37.1426 116.019 37.1426Z"
        fill="white"></path>
    <path
        d="M127.058 48.0005H133.717V38.0112H133.814C134.586 39.8932 136.371 41.2927 138.977 41.2927C142.934 41.2927 146.264 38.2042 146.264 31.786C146.264 25.0782 142.693 22.2793 139.025 22.2793C136.275 22.2793 134.537 23.8718 133.814 25.7538H133.669V22.5206H127.058V48.0005ZM133.572 31.786C133.572 29.0353 134.682 27.3946 136.516 27.3946C138.35 27.3946 139.411 29.0353 139.411 31.786C139.411 34.5367 138.35 36.1774 136.516 36.1774C134.682 36.1774 133.572 34.4884 133.572 31.786Z"
        fill="white"></path>
    <path
        d="M159.371 32.9442C159.383 34.778 158.322 35.8879 156.669 35.8879C154.992 35.8879 154.027 34.778 154.015 32.9442V22.5206H147.355V34.3436C147.367 38.3973 149.925 41.2927 153.822 41.2927C156.584 41.2927 158.708 39.8932 159.516 37.5286H159.709V41.0514H166.031V22.5206H159.371V32.9442Z"
        fill="white"></path>
    <path
        d="M167.912 41.0514H184.175V35.9844H176.502V35.8879L183.885 26.5742V22.5206H168.202V27.5876H176.019V27.6841L167.912 37.3839V41.0514Z"
        fill="white"></path>
    <path fill-rule="evenodd" clip-rule="evenodd"
        d="M31.8434 0.310563C33.2413 -0.536635 35.032 0.447074 35.0668 2.08124L35.2776 11.986L45.5394 13.755C47.1502 14.0327 47.8563 15.95 46.8104 17.2061L39.9819 25.4075L45.1676 29.5741C46.4418 30.5979 46.1299 32.6171 44.6062 33.2087L35.2353 36.847L36.384 42.6382C36.702 44.2415 35.1652 45.5878 33.6177 45.0616L26.9331 42.7884C19.3093 46.4909 10.1753 44.5713 4.66775 38.2895C12.8252 40.6446 19.3635 38.1828 22.4669 35.6382C23.2226 35.0186 23.3329 33.9037 22.7133 33.148C22.0937 32.3924 20.9788 32.282 20.2231 32.9016C17.647 35.0139 10.6109 37.7904 1.50275 33.2618C-2.11268 24.8097 0.948952 14.7682 9.03731 9.86607C12.5963 7.70902 16.5872 6.8752 20.4366 7.224L31.8434 0.310563ZM16.6769 21.7884C15.0054 22.8014 12.8292 22.2676 11.8162 20.5962C10.8032 18.9247 11.3369 16.7486 13.0084 15.7355C14.6798 14.7225 16.856 15.2563 17.869 16.9277C18.8821 18.5991 18.3483 20.7753 16.6769 21.7884Z"
        fill="#02C076"></path>
</svg>