<svg width="120" height="120" viewBox="0 0 120 120" fill="none" xmlns="http://www.w3.org/2000/svg">
<rect width="120" height="120" rx="16" fill="black"/>
<path d="M83.4964 45.7997H75.8946C75.05 45.7997 74.2054 45.4163 73.5911 44.8028L70.5196 41.3518C69.5982 40.3549 68.1393 40.2782 67.0643 41.1218L66.8339 41.3518L64.2232 44.3426C63.3786 45.3396 62.0732 45.8764 60.7679 45.8764H19.2268C18.075 49.2507 17.3071 52.855 17 56.4593H56.3143C57.0054 56.4593 57.6964 56.1525 58.1571 55.6924L61.8429 51.858C62.3036 51.3979 62.9179 51.0912 63.6089 51.0912H63.7625C64.4536 51.0912 65.1446 51.3979 65.6054 51.9347L68.6768 55.3857C69.2911 56.0759 70.1357 56.4593 70.9804 56.4593H103C102.693 52.855 101.925 49.2507 100.773 45.8764H83.4964V45.7997ZM58.3107 66.9655L55.2393 63.5146C54.3179 62.5176 52.8589 62.4409 51.7839 63.2845L51.5536 63.5146L48.8661 66.5054C48.0214 67.5023 46.7929 68.0391 45.4875 68.0391H17.6143C18.3054 71.7201 19.5339 75.3245 21.1464 78.7754H40.7268C41.4179 78.7754 42.0321 78.4687 42.5696 78.0085L46.2554 74.1741C46.7161 73.714 47.3304 73.4073 48.0214 73.4073H48.175C48.8661 73.4073 49.5571 73.714 50.0179 74.2508L53.0893 77.7018C53.7036 78.392 54.5482 78.7754 55.3929 78.7754H98.8536C100.466 75.4011 101.695 71.7968 102.386 68.0391H60.6143C59.6929 68.0391 58.8482 67.6557 58.3107 66.9655ZM73.3607 33.5297L77.0464 29.6953C77.5071 29.2352 78.1214 28.9284 78.8125 28.9284H78.9661C79.6571 28.9284 80.3482 29.2352 80.8089 29.6953L83.8804 33.1462C84.4946 33.8364 85.3393 34.1432 86.1839 34.1432H94.4768C80.0411 15.1246 52.9357 11.367 33.8161 25.7075C30.6679 28.0849 27.8268 30.9223 25.3696 34.1432H71.5179C72.2857 34.2966 72.9 33.9898 73.3607 33.5297ZM43.6446 89.3583C42.7232 89.3583 41.8786 88.9749 41.3411 88.3614L38.2696 84.9104C37.3482 83.9135 35.8125 83.8368 34.8143 84.757L34.6607 84.9104L31.9732 87.9012C31.1286 88.8982 29.9 89.435 28.5946 89.435H28.4411C44.6429 106.766 72.0554 107.61 89.4857 91.2755C90.1768 90.662 90.7911 89.9718 91.4821 89.2816H43.6446V89.3583Z" fill="white"/>
</svg>
