<svg width="120" height="120" viewBox="0 0 120 120" fill="none" xmlns="http://www.w3.org/2000/svg">
<rect width="120" height="120" rx="16" fill="white"/>
<path d="M54.9593 25.5161C42.2106 27.0182 30.1166 35.6072 24.2622 47.2775C21.0269 53.7867 19.6788 60.1418 20.064 67.5368C20.2566 71.581 21.335 77.2043 22.2209 78.976C22.4134 79.3227 23.2993 81.1329 24.1467 83.0202C25.0325 84.8689 26.7657 87.7191 28.0368 89.3753C30.1936 92.264 33.8526 96 34.4689 96C34.7385 96 52.7254 81.0559 54.189 79.6308C54.6127 79.2071 54.4971 79.0145 53.3417 78.4753C52.6099 78.1287 51.3003 77.2428 50.453 76.511L48.8738 75.2015L46.6399 77.0117C45.4074 77.9746 44.3289 78.899 44.2134 79.053C43.212 80.2855 34.8926 86.7562 34.5459 86.5636C33.6216 85.9474 30.3092 80.3626 29.1922 77.3969C27.2279 72.3898 26.7657 69.5396 26.9968 64.0319C27.2279 58.5241 28.0368 55.1347 30.1936 50.8209C34.623 42.0393 41.4788 36.262 51.0307 33.3348C54.0349 32.4489 55.0364 32.3334 60.0049 32.3334C64.9734 32.3334 65.9748 32.4489 68.9791 33.3348C78.531 36.262 85.3868 42.0393 89.8161 50.8209C92.3197 55.828 92.9359 58.7937 92.8974 65.5725C92.8974 71.0418 92.8204 71.8121 91.819 74.8163C91.2027 76.6265 90.2783 78.9375 89.7391 80.0159C88.6607 82.2113 86.0031 86.217 85.4253 86.5636C85.1172 86.7562 77.0674 80.4781 75.7964 79.0916C75.6808 78.9375 74.6024 78.0131 73.3699 76.9732L71.136 75.0859L69.7109 76.4725C68.9406 77.2043 67.631 78.1287 66.8222 78.5523L65.3201 79.2841L74.8335 87.2569C80.0331 91.6477 84.6165 95.4608 85.0402 95.6919C85.6949 96.1155 86.0416 95.9615 87.7748 94.2668C90.779 91.3011 94.0914 86.7177 95.8631 83.0202C96.7105 81.1329 97.5963 79.3227 97.7889 78.9375C98.6748 77.2813 99.7147 71.5425 99.9458 67.4598C101.217 42.4245 79.9561 22.6274 54.9593 25.5161Z" fill="black"/>
<path d="M54.6903 34.7598C43.3282 36.8397 33.9303 45.1976 30.3483 56.5213C29.1544 60.3343 28.8462 67.8449 29.7321 71.8891C30.1172 73.4682 30.5794 74.8933 30.8105 75.0474C31.0031 75.1629 31.7349 74.7778 32.3897 74.1615C33.083 73.5067 34.2384 72.5438 35.0088 71.9661L36.3953 70.9647L36.2027 66.4198C35.9331 58.7167 37.8204 53.8252 43.2511 48.4329C46.7946 44.8895 49.6448 43.1948 54.0741 42.0778C59.6974 40.6142 66.1295 41.3846 71.2907 44.0807C74.6415 45.8139 79.4945 50.7439 81.2663 54.2103C83.6157 58.7937 84.4631 63.4541 83.8083 68.6538L83.5387 70.7721L86.1963 73.006C87.6599 74.2385 89.0464 75.1629 89.239 75.0474C89.4316 74.8933 89.8938 73.4682 90.279 71.8891C91.1648 67.8449 90.8567 60.3343 89.6627 56.5213C86.4274 46.2375 78.5316 38.4959 68.2864 35.4916C65.1666 34.6058 57.8872 34.2206 54.6903 34.7598Z" fill="black"/>
<path d="M54.6127 44.2347C47.1792 46.199 40.824 52.4771 39.0523 59.6411C38.2435 62.8379 38.0894 66.4584 38.6286 69.116L39.1294 71.3884L36.9725 73.1986C35.7785 74.2 34.1223 75.6636 33.2749 76.434L31.6958 77.859L32.7742 79.9004C33.352 81.0173 34.1608 82.3654 34.5075 82.8276L35.2393 83.752L38.282 81.1714C46.9866 73.8919 47.3332 73.5453 47.0636 72.929C45.523 69.2315 45.2919 68.2686 45.2534 65.3799C45.2534 60.0647 47.6028 55.6739 51.9551 52.8623C54.8053 51.0135 57.3088 50.3973 61.1604 50.6284C67.9392 51.0135 73.3314 55.905 74.6409 62.8379C75.1031 65.3799 74.6024 69.3085 73.524 71.3884C73.0618 72.2357 72.7151 73.0446 72.7151 73.2371C72.7151 73.5453 74.2173 74.8548 81.7278 81.1714L84.7706 83.752L85.5024 82.8276C85.849 82.3654 86.6579 81.0173 87.2356 79.9004L88.314 77.859L85.8105 75.5866C84.4239 74.3156 82.7293 72.8905 82.036 72.4283C81.2271 71.8506 80.8805 71.3499 81.0346 70.9647C81.1501 70.6566 81.4582 69.1545 81.6508 67.6909C81.9589 65.5725 81.9204 64.3015 81.4197 61.7209C79.8021 53.0549 73.601 46.3531 65.2046 44.1962C62.3544 43.4644 57.4244 43.5029 54.6127 44.2347Z" fill="black"/>
</svg>