<?xml version="1.0" standalone="no"?>
<!DOCTYPE svg PUBLIC "-//W3C//DTD SVG 1.1//EN" "http://www.w3.org/Graphics/SVG/1.1/DTD/svg11.dtd" >
<svg xmlns="http://www.w3.org/2000/svg" xmlns:xlink="http://www.w3.org/1999/xlink" version="1.1">
<metadata>
Created by FontForge 20170731 at Thu Aug  5 13:52:18 2021
 By Aleksey,,,
Copyright 2020 The Saira Project Authors (https://github.com/Omnibus-Type/Saira)
</metadata>
<defs>
<font id="Saira-Regular" horiz-adv-x="0" >
  <font-face 
    font-family="Saira"
    font-weight="400"
    font-stretch="normal"
    units-per-em="1000"
    panose-1="0 0 0 0 0 0 0 0 0 0"
    ascent="800"
    descent="-200"
    x-height="510"
    cap-height="688"
    bbox="-185 -398 1245 1167"
    underline-thickness="35"
    underline-position="-211"
    unicode-range="U+000D-FB02"
  />
<missing-glyph horiz-adv-x="500" 
d="M0 0v700h500v-700h-500zM225 99v70h60v-70h-60zM50 50h400v600h-400v-600zM229 215v63q0 32 16.5 52t37.5 37t38.5 38.5t17.5 59.5q0 14 -6 34.5t-25 36.5t-58 16q-34 0 -53.5 -12t-29 -29.5t-12.5 -33.5t-3 -25v-28h-49q-1 5 -2.5 13.5t-1.5 17.5t4 32.5t19 50
t45.5 45.5t82.5 19q53 0 82 -19t42 -44t16 -46t3 -26q0 -50 -22 -79.5t-45 -49.5q-17 -14 -30.5 -29.5t-13.5 -40.5v-53h-53z" />
    <glyph glyph-name="fi" unicode="fi" horiz-adv-x="626" 
d="M130 0v441h-104v69h104v81q0 43 7 70.5t22.5 44t40.5 24.5t60.5 10t82.5 2v-62q-41 0 -67 -3t-40 -10.5t-19.5 -22.5t-5.5 -39v-95h132v-69h-132v-441h-81zM459 0v510h81v-510h-81zM456 654v89h87v-89h-87z" />
    <glyph glyph-name="fl" unicode="fl" horiz-adv-x="606" 
d="M130 0v441h-104v69h104v81q0 43 7 70.5t22.5 44t40.5 24.5t60.5 10t82.5 2v-62q-41 0 -67 -3t-40 -10.5t-19.5 -22.5t-5.5 -39v-95h132v-69h-132v-441h-81zM439 0v743h81v-743h-81z" />
    <glyph glyph-name="f_f" unicode="ff" horiz-adv-x="681" 
d="M130 0v441h-104v69h104v81q0 43 7 70.5t22.5 44t40.5 24.5t60.5 10t82.5 2v-62q-41 0 -67 -3t-40 -10.5t-19.5 -22.5t-5.5 -39v-95h228v81q0 43 7 70.5t22.5 44t40.5 24.5t60.5 10t82.5 2v-62q-42 0 -67.5 -3t-39.5 -10.5t-19.5 -22.5t-5.5 -39v-95h132v-69h-132v-441
h-81v441h-228v-441h-81z" />
    <glyph glyph-name="f_f_i" unicode="ffi" horiz-adv-x="935" 
d="M130 0v441h-104v69h104v81q0 43 7 70.5t22.5 44t40.5 24.5t60.5 10t82.5 2v-62q-41 0 -67 -3t-40 -10.5t-19.5 -22.5t-5.5 -39v-95h228v81q0 43 7 70.5t22.5 44t40.5 24.5t60.5 10t82.5 2v-62q-42 0 -67.5 -3t-39.5 -10.5t-19.5 -22.5t-5.5 -39v-95h132v-69h-132v-441
h-81v441h-228v-441h-81zM767 0v510h82v-510h-82zM765 654v89h87v-89h-87z" />
    <glyph glyph-name="f_f_l" unicode="ffl" horiz-adv-x="915" 
d="M130 0v441h-104v69h104v81q0 43 7 70.5t22.5 44t40.5 24.5t60.5 10t82.5 2v-62q-41 0 -67 -3t-40 -10.5t-19.5 -22.5t-5.5 -39v-95h228v81q0 43 7 70.5t22.5 44t40.5 24.5t60.5 10t82.5 2v-62q-42 0 -67.5 -3t-39.5 -10.5t-19.5 -22.5t-5.5 -39v-95h132v-69h-132v-441
h-81v441h-228v-441h-81zM747 0v743h82v-743h-82z" />
    <glyph glyph-name=".notdef" horiz-adv-x="500" 
d="M0 0v700h500v-700h-500zM225 99v70h60v-70h-60zM50 50h400v600h-400v-600zM229 215v63q0 32 16.5 52t37.5 37t38.5 38.5t17.5 59.5q0 14 -6 34.5t-25 36.5t-58 16q-34 0 -53.5 -12t-29 -29.5t-12.5 -33.5t-3 -25v-28h-49q-1 5 -2.5 13.5t-1.5 17.5t4 32.5t19 50
t45.5 45.5t82.5 19q53 0 82 -19t42 -44t16 -46t3 -26q0 -50 -22 -79.5t-45 -49.5q-17 -14 -30.5 -29.5t-13.5 -40.5v-53h-53z" />
    <glyph glyph-name=".null" 
 />
    <glyph glyph-name="nonmarkingreturn" horiz-adv-x="333" 
 />
    <glyph glyph-name="CR" unicode="&#xd;" horiz-adv-x="235" 
 />
    <glyph glyph-name="space" unicode=" " horiz-adv-x="235" 
 />
    <glyph glyph-name="exclam" unicode="!" horiz-adv-x="249" 
d="M96 197q-2 43 -4 88t-4.5 89.5t-4 85t-2.5 72.5t-1 54v102h95v-102q0 -22 -1 -54t-2.5 -72.5t-4 -85t-4.5 -89.5t-4 -88h-63zM80 0v98h95v-98h-95z" />
    <glyph glyph-name="quotedbl" unicode="&#x22;" horiz-adv-x="348" 
d="M215 444l-11 168v76h79v-76l-12 -168h-56zM76 444l-11 168v76h79v-76l-12 -168h-56z" />
    <glyph glyph-name="numbersign" unicode="#" horiz-adv-x="792" 
d="M121 0l44 191h-98v61h112l41 177h-116v61h130l46 198h62l-47 -198h173l46 198h62l-46 -198h102v-61h-116l-41 -177h120v-61h-134l-44 -191h-62l44 191h-173l-43 -191h-62zM240 252h173l41 177h-173z" />
    <glyph glyph-name="dollar" unicode="$" horiz-adv-x="538" 
d="M265 67q-30 1 -62.5 3t-62.5 5t-54 6v68q13 -1 30.5 -3t39.5 -3t48 -2.5t56 -1.5q56 0 83 7t35.5 25.5t8.5 51.5q0 36 -5.5 51.5t-19.5 20.5t-39 7l-140 16q-46 7 -70.5 23.5t-34 47t-9.5 74.5q0 48 13 78.5t39 47t63.5 23t85.5 6.5q34 0 63 -1.5t55.5 -4.5t50.5 -8v-68
q-25 4 -54 6.5t-57 3.5t-53 1q-30 0 -53 -1.5t-39 -9t-24.5 -24t-8.5 -45.5q0 -32 4.5 -47.5t18.5 -21t40 -8.5l150 -16q39 -4 62 -17t33 -44t10 -88q0 -64 -19.5 -98t-63.5 -46t-120 -14zM239 -8v704h64v-704h-64z" />
    <glyph glyph-name="percent" unicode="%" horiz-adv-x="826" 
d="M156 0l449 688h65l-449 -688h-65zM198 311q-50 0 -79 8.5t-42 29.5t-17 58.5t-4 95.5t4 95.5t17 59t42 30t79 8.5t78.5 -8.5t41.5 -30t16.5 -59t3.5 -95.5t-3.5 -95.5t-16.5 -58.5t-41.5 -29.5t-78.5 -8.5zM198 361q29 0 45.5 3t24.5 15.5t10 42t2 81.5t-1.5 81t-9 42
t-24.5 16t-47 3q-29 0 -46.5 -3t-25 -16t-10 -42t-2.5 -81t2.5 -81.5t10 -42t25 -15.5t46.5 -3zM629 -8q-49 0 -78 8.5t-42.5 29.5t-17 58.5t-3.5 95.5t3.5 95.5t17 59t42.5 30t78 8.5q51 0 79 -8.5t41.5 -30t17 -59t3.5 -95.5t-3.5 -95.5t-17 -58.5t-41.5 -29.5t-79 -8.5z
M629 42q30 0 46.5 3t24.5 15.5t10 42t2 81.5t-1.5 81t-9.5 42t-24.5 16t-47.5 3q-29 0 -45.5 -3t-24.5 -16t-10 -42t-2 -81t2 -81.5t10 -42t24.5 -15.5t45.5 -3z" />
    <glyph glyph-name="ampersand" unicode="&#x26;" horiz-adv-x="736" 
d="M363 -8q-77 0 -130 9t-85.5 25.5t-50 40t-23.5 53.5t-6 64q0 56 14.5 88.5t42.5 50t68 26.5v4q-60 14 -89.5 50.5t-29.5 111.5q0 39 11.5 72t42 57.5t87.5 38t147 13.5q32 0 71 -2.5t77 -6.5t68 -10v-66q-30 5 -65 8t-68 5t-59 2q-76 0 -122 -6.5t-69 -21t-30.5 -38
t-7.5 -57.5q0 -22 3.5 -43.5t17 -38.5t42 -27.5t78.5 -10.5h95v-70h-95q-50 0 -79.5 -8t-44.5 -24t-19 -39.5t-4 -54.5q0 -55 22 -81.5t69 -35.5t121 -9q29 0 58 1.5t57.5 4t54.5 6.5l-31 -42v352h196v-70h-116v-302q-27 -5 -64.5 -9t-77.5 -7t-77 -3z" />
    <glyph glyph-name="quotesingle" unicode="'" horiz-adv-x="209" 
d="M76 444l-11 168v76h79v-76l-12 -168h-56z" />
    <glyph glyph-name="parenleft" unicode="(" horiz-adv-x="308" 
d="M227 -150q-33 39 -57.5 71.5t-41.5 66t-27.5 75.5t-15.5 98.5t-5 135.5t5 135.5t15.5 98.5t27.5 76t41.5 66t57.5 70h61q-26 -33 -46 -62t-35.5 -61t-26.5 -74.5t-16 -103t-5 -145.5q0 -86 5 -146t16 -103t26.5 -75t35.5 -61t46 -62h-61z" />
    <glyph glyph-name="parenright" unicode=")" horiz-adv-x="308" 
d="M20 -150q25 33 45.5 62t36 61t26.5 75t16 103t5 146q0 85 -5 145.5t-16 103t-26.5 74.5t-36 61t-45.5 62h61q33 -38 57.5 -70t41.5 -66t27.5 -76t15.5 -98.5t5 -135.5t-5 -135.5t-15.5 -98.5t-27.5 -75.5t-41.5 -66t-57.5 -71.5h-61z" />
    <glyph glyph-name="asterisk" unicode="*" horiz-adv-x="442" 
d="M193 320l8 148l-126 -81l-27 50l132 66l-132 69l27 49l126 -81l-8 148h56l-8 -148l126 81l27 -49l-132 -69l132 -66l-27 -50l-125 81l7 -148h-56z" />
    <glyph glyph-name="plus" unicode="+" horiz-adv-x="540" 
d="M236 52v168h-166v66h166v166h66v-166h168v-66h-168v-168h-66z" />
    <glyph glyph-name="comma" unicode="," horiz-adv-x="223" 
d="M43 -120v39q24 0 37 5t17 19t4 40v17h-37v98h95v-82q0 -42 -4.5 -68.5t-16.5 -41t-35 -20.5t-60 -6z" />
    <glyph glyph-name="hyphen" unicode="-" horiz-adv-x="362" 
d="M59 248v74h243v-74h-243z" />
    <glyph glyph-name="period" unicode="." horiz-adv-x="223" 
d="M64 0v98h95v-98h-95z" />
    <glyph glyph-name="slash" unicode="/" horiz-adv-x="359" 
d="M-4 -55l290 798h76l-291 -798h-75z" />
    <glyph glyph-name="zero" unicode="0" horiz-adv-x="671" 
d="M335 -8q-75 0 -123.5 8.5t-76 30.5t-40 61.5t-16 101t-3.5 150.5t3.5 150.5t16 101t40 61.5t76 30.5t123.5 8.5t123.5 -8.5t76 -30.5t40.5 -61.5t16 -101t3 -150.5t-3 -150.5t-16 -101t-40.5 -61.5t-76 -30.5t-123.5 -8.5zM335 66q51 0 83 3.5t50.5 16.5t27 43t11 82
t2.5 133t-2.5 133t-11 82t-27 43t-50.5 16.5t-83 3.5q-49 0 -82 -3.5t-51.5 -16.5t-27 -43t-10.5 -82t-2 -133t2 -133t10.5 -82t27 -43t51 -16.5t82.5 -3.5z" />
    <glyph glyph-name="one" unicode="1" horiz-adv-x="376" 
d="M180 0v590l-142 -69v77l167 90h61v-688h-86z" />
    <glyph glyph-name="two" unicode="2" horiz-adv-x="610" 
d="M70 0v80q0 57 2.5 95.5t13.5 63.5t34.5 43t66.5 36l181 77q36 16 54 30t24.5 34t6.5 53q0 48 -14.5 71.5t-51 31t-103.5 7.5q-24 0 -58.5 -2t-71.5 -4.5t-70 -6.5v70q29 5 67.5 8.5t80 6t78.5 2.5q48 0 89 -5t73 -22t49.5 -52.5t17.5 -95.5t-12.5 -95.5t-40 -57
t-72.5 -40.5l-206 -87q-26 -11 -37.5 -25t-14.5 -36.5t-3 -57.5v-47h386v-75h-469z" />
    <glyph glyph-name="three" unicode="3" horiz-adv-x="601" 
d="M264 -8q-31 0 -68.5 2.5t-73 6.5t-62.5 8v69q34 -3 71 -6t70 -4.5t57 -1.5q59 0 100 7.5t61.5 33t20.5 80.5q0 46 -13 73.5t-42 39t-77 11.5h-129v75h129q34 0 62 9t45 34t17 74q0 54 -18 79t-58.5 32.5t-107.5 7.5q-27 0 -60 -2t-65.5 -4.5t-58.5 -6.5v70q27 5 62 8.5
t72 6t67 2.5q73 0 122 -11t78 -33t41.5 -56t12.5 -81q0 -75 -30.5 -112t-86.5 -50v-4q38 -7 66 -24t43.5 -51t15.5 -90q0 -44 -10.5 -79.5t-38.5 -60.5t-79.5 -38.5t-134.5 -13.5z" />
    <glyph glyph-name="four" unicode="4" horiz-adv-x="642" 
d="M409 0v161h-363v66l269 461h95l-268 -453h268l18 245h67v-245h102v-74h-102v-161h-86z" />
    <glyph glyph-name="five" unicode="5" horiz-adv-x="619" 
d="M287 -8q-31 0 -68 2.5t-73 6t-64 8.5v69q35 -3 72 -6t70 -4.5t57 -1.5q56 0 91.5 6.5t55 22t27.5 42t8 66.5q0 44 -8.5 70.5t-30 39.5t-59.5 17.5t-98 4.5q-20 0 -49.5 -1.5t-62.5 -4.5t-65 -7v366h409v-75h-330v-214q20 3 46.5 5.5t54 3.5t51.5 1q74 0 119 -12
t68.5 -37.5t32.5 -62t9 -84.5q0 -61 -11.5 -103.5t-40 -68t-79.5 -37.5t-132 -12z" />
    <glyph glyph-name="six" unicode="6" horiz-adv-x="657" 
d="M347 -8q-69 0 -117.5 6.5t-80 28t-48.5 66.5q-10 23 -15 57t-7.5 80.5t-2.5 106.5q0 55 2.5 100t8 80t14.5 62q17 47 49 72t82 35t122 10q26 0 60.5 -2.5t72 -6.5t71.5 -9v-69q-31 4 -65.5 6.5t-66 4.5t-54.5 2q-70 0 -111.5 -10t-62.5 -37t-28 -78.5t-7 -135.5h6
q11 12 31 23.5t58.5 19t103.5 7.5q63 0 108 -7t73 -27t40.5 -58t12.5 -101q0 -66 -9.5 -110t-36.5 -69t-76 -36t-127 -11zM339 66q52 0 86 4t53 17.5t26 39.5t7 72q0 48 -7 76t-25 41.5t-52 17t-88 3.5q-59 0 -94 -6t-51.5 -19.5t-22 -34.5t-5.5 -51q0 -55 8.5 -87t28 -48
t52.5 -20.5t84 -4.5z" />
    <glyph glyph-name="seven" unicode="7" horiz-adv-x="563" 
d="M139 0l280 613h-378v75h473v-67l-279 -621h-96z" />
    <glyph glyph-name="eight" unicode="8" horiz-adv-x="683" 
d="M341 -8q-84 0 -137 12.5t-81 37t-38.5 60t-10.5 82.5q0 59 14.5 91.5t42.5 48.5t68 25v4q-61 12 -90 49.5t-29 112.5q0 46 12 80t41 56.5t80 33.5t128 11t128 -11t80 -33.5t41 -56.5t12 -80q0 -75 -29 -112.5t-90 -49.5v-4q41 -9 68.5 -25t42 -48.5t14.5 -91.5
q0 -47 -10.5 -82.5t-39 -60t-80.5 -37t-137 -12.5zM341 66q69 0 108 8.5t55.5 34.5t16.5 78q0 41 -8 65.5t-27.5 37.5t-54.5 17t-90 4t-90 -4t-54.5 -17t-27 -37.5t-7.5 -65.5q0 -52 16 -78t55 -34.5t108 -8.5zM341 385q71 0 108 9.5t51.5 35t14.5 73.5t-13.5 73.5t-51 35.5
t-109.5 10t-109.5 -10t-50.5 -35.5t-13 -73.5t14 -73.5t51.5 -35t107.5 -9.5z" />
    <glyph glyph-name="nine" unicode="9" horiz-adv-x="657" 
d="M303 -8q-27 0 -62 2.5t-72 6.5t-70 9v69q31 -3 65 -6t66 -5t55 -2q70 0 111.5 10t62.5 37t27.5 78.5t6.5 135.5h-6q-10 -12 -30 -23.5t-59 -19t-104 -7.5q-63 0 -107.5 7t-72.5 27t-40.5 58t-12.5 101q0 66 9.5 110t36 69t75.5 36t128 11q72 0 122 -7t81 -29.5t46 -70.5
q13 -38 17 -96.5t4 -141.5q0 -58 -2.5 -105t-9 -83.5t-18.5 -65.5q-17 -41 -48.5 -64t-80 -32t-118.5 -9zM318 351q59 0 94 6t51.5 19.5t21.5 34.5t5 51q0 55 -8.5 87t-27.5 48t-52.5 20.5t-83.5 4.5q-53 0 -86.5 -4t-52.5 -17.5t-26.5 -39.5t-7.5 -72q0 -48 7.5 -76
t25.5 -41.5t52 -17t88 -3.5z" />
    <glyph glyph-name="colon" unicode=":" horiz-adv-x="223" 
d="M64 412v98h95v-98h-95zM64 0v98h95v-98h-95z" />
    <glyph glyph-name="semicolon" unicode=";" horiz-adv-x="223" 
d="M43 -120v39q24 0 37 5t17 19t4 40v17h-37v98h95v-82q0 -42 -4.5 -68.5t-16.5 -41t-35 -20.5t-60 -6zM64 412v98h95v-98h-95z" />
    <glyph glyph-name="less" unicode="&#x3c;" horiz-adv-x="541" 
d="M471 45l-400 168v79l400 169v-70l-334 -138l334 -138v-70z" />
    <glyph glyph-name="equal" unicode="=" horiz-adv-x="540" 
d="M70 320v66h400v-66h-400zM70 120v66h400v-66h-400z" />
    <glyph glyph-name="greater" unicode="&#x3e;" horiz-adv-x="541" 
d="M70 45v70l334 138l-334 138v70l400 -169v-79z" />
    <glyph glyph-name="question" unicode="?" horiz-adv-x="503" 
d="M154 197v80q0 38 7.5 58t24 31t42.5 20l36 12q36 13 53 24.5t23 33.5t6 62q0 48 -13.5 70t-45 28t-86.5 6q-15 0 -34.5 -1t-41.5 -2.5t-44 -3.5t-43 -5v70q29 5 63 8.5t67.5 5.5t61.5 2q54 0 92.5 -9t62.5 -29.5t35.5 -54t11.5 -82.5q0 -32 -3.5 -58.5t-12.5 -47
t-25.5 -35t-41.5 -23.5l-36 -12q-29 -10 -46 -17.5t-24.5 -15t-10 -19.5t-2.5 -33v-63h-76zM145 0v98h95v-98h-95z" />
    <glyph glyph-name="at" unicode="@" horiz-adv-x="930" 
d="M465 -108q-112 0 -183.5 8.5t-112 32.5t-59 68.5t-23 116t-4.5 176.5t4.5 176.5t23 116.5t59 68.5t112 32t183.5 8.5t183.5 -8t112 -32t58.5 -68.5t22.5 -116t4.5 -177.5q0 -80 -7 -125t-22 -65t-39.5 -24.5t-60.5 -4.5h-135l-4 62h-5q-13 -31 -37.5 -46t-53 -19
t-56.5 -4q-51 0 -83 11.5t-47.5 39t-15.5 77.5q0 49 11 77.5t40 40.5t81 12q14 0 42.5 -0.5t61.5 -1.5t59 -2v27q0 38 -4.5 59.5t-18 31.5t-39.5 13t-69 3q-14 0 -33 -1t-39 -2t-36.5 -2.5t-26.5 -3.5v59q35 6 77 9t83 3q60 0 95.5 -8.5t54 -28.5t25 -52t6.5 -79v-233h79
q18 0 31.5 4t22 19.5t12 52t3.5 101.5q0 96 -3 159.5t-16.5 103t-42 59t-80.5 27.5q-34 6 -81.5 7.5t-110.5 1.5q-57 0 -100.5 -1t-77.5 -6q-56 -7 -88 -26t-46.5 -57.5t-18 -103.5t-3.5 -164q0 -105 4.5 -172t22 -105t56.5 -55t109 -22q24 -2 60.5 -3t82.5 -1
q23 0 51.5 0.5t56 1t48 1t29.5 1.5v-44q-16 -1 -33.5 -1.5t-38.5 -1t-48.5 -1t-64.5 -0.5zM451 127q48 0 75 10.5t38 36t11 72.5v29h-144q-33 0 -50 -5t-22.5 -21t-5.5 -48q0 -30 7 -46.5t28 -22t63 -5.5z" />
    <glyph glyph-name="A" unicode="A" horiz-adv-x="684" 
d="M28 0l260 688h108l259 -688h-89l-71 188h-309l-71 -188h-87zM212 263h257l-126 337h-5z" />
    <glyph glyph-name="B" unicode="B" horiz-adv-x="682" 
d="M100 0v688h320q68 0 108 -21t57 -59.5t17 -92.5q0 -44 -12 -77.5t-37.5 -54.5t-67.5 -30v-4q51 -9 78 -32.5t37 -58.5t10 -77q0 -36 -8.5 -69t-29 -58t-58.5 -39.5t-98 -14.5h-316zM186 74h210q49 0 77 11.5t39.5 38t11.5 68.5q0 43 -12.5 69.5t-40.5 38t-75 11.5h-210
v-237zM186 386h206q42 0 69.5 12t41 37.5t13.5 63.5q0 42 -10.5 67t-37.5 36.5t-76 11.5h-206v-228z" />
    <glyph glyph-name="C" unicode="C" horiz-adv-x="575" 
d="M353 -8q-72 0 -121 8.5t-80 30t-47.5 61t-22.5 101.5t-6 151t6 150.5t22.5 101t47.5 61.5t80 30.5t121 8.5q28 0 57.5 -2t56.5 -5t47 -8v-69q-23 3 -47.5 5.5t-48.5 3.5t-43 1q-58 0 -97 -5t-62 -19.5t-34.5 -45t-15.5 -81t-4 -127.5t4 -127.5t15.5 -81t34.5 -45
t62 -19.5t97 -5q34 0 74 3t69 7v-71q-21 -4 -49.5 -6.5t-58.5 -4.5t-57 -2z" />
    <glyph glyph-name="D" unicode="D" horiz-adv-x="689" 
d="M100 0v688h218q85 0 139 -8t85.5 -29t46.5 -60t19 -99t4 -148t-4 -148t-19 -99t-46.5 -60t-85.5 -29t-139 -8h-218zM186 74h118q63 0 104 3t65 15.5t35 41t14.5 79.5t3.5 131t-3.5 130.5t-15 79.5t-35.5 41.5t-64.5 15.5t-103.5 3h-118v-540z" />
    <glyph glyph-name="E" unicode="E" horiz-adv-x="603" 
d="M100 0v688h447v-74h-361v-229h314v-75h-314v-236h361v-74h-447z" />
    <glyph glyph-name="F" unicode="F" horiz-adv-x="565" 
d="M100 0v688h427v-74h-341v-245h304v-74h-304v-295h-86z" />
    <glyph glyph-name="G" unicode="G" horiz-adv-x="676" 
d="M368 -8q-73 0 -124 8.5t-83.5 30.5t-51 61.5t-26 101t-7.5 150.5t7.5 150.5t26.5 101t52 61.5t83.5 30.5t122.5 8.5q34 0 73 -3t76.5 -7t67.5 -10v-70q-32 5 -65 8.5t-61.5 5.5t-48.5 2q-62 0 -105.5 -3t-71.5 -16t-43 -42.5t-21.5 -81.5t-6.5 -135q0 -73 4 -122.5
t16.5 -80.5t35 -48t60 -22.5t92.5 -5.5q21 0 46 1t49 3t40 4v224h-156v73h239v-358q-33 -6 -72.5 -10.5t-78 -7t-69.5 -2.5z" />
    <glyph glyph-name="H" unicode="H" horiz-adv-x="731" 
d="M100 0v688h86v-303h360v303h86v-688h-86v309h-360v-309h-86z" />
    <glyph glyph-name="I" unicode="I" horiz-adv-x="286" 
d="M100 0v688h86v-688h-86z" />
    <glyph glyph-name="J" unicode="J" horiz-adv-x="355" 
d="M33 0v71q54 1 83 6t42 21.5t15.5 53t2.5 101.5v435h86v-408q0 -80 -3 -132.5t-14 -82t-35.5 -43.5t-67 -18t-109.5 -4z" />
    <glyph glyph-name="K" unicode="K" horiz-adv-x="670" 
d="M100 0v688h86v-301h123l236 301h95l-261 -334l264 -354h-100l-234 312h-123v-312h-86z" />
    <glyph glyph-name="L" unicode="L" horiz-adv-x="538" 
d="M100 0v688h86v-612h321v-76h-407z" />
    <glyph glyph-name="M" unicode="M" horiz-adv-x="906" 
d="M100 0v688h116l235 -548h5l234 548h116v-688h-84v550h-4l-235 -550h-63l-235 550h-4v-550h-81z" />
    <glyph glyph-name="N" unicode="N" horiz-adv-x="731" 
d="M100 0v688h88l357 -527h4v527h83v-688h-83l-362 537h-4v-537h-83z" />
    <glyph glyph-name="O" unicode="O" horiz-adv-x="717" 
d="M358 -8q-80 0 -132.5 8.5t-83 30.5t-44.5 61.5t-18 101t-4 150.5t4 150.5t18 101t44.5 61.5t83 30.5t132.5 8.5t132.5 -8.5t83 -30.5t44.5 -61.5t18 -101t4 -150.5t-4 -150.5t-18 -101t-44.5 -61.5t-83 -30.5t-132.5 -8.5zM358 66q55 0 91 3.5t57 16.5t32 42.5t13.5 81.5
t2.5 134t-2.5 134t-13.5 81.5t-32 42.5t-57 16.5t-91 3.5t-90.5 -3.5t-57 -16.5t-32 -42.5t-13.5 -81.5t-3 -134t3 -134t13.5 -81.5t32 -42.5t57 -16.5t90.5 -3.5z" />
    <glyph glyph-name="P" unicode="P" horiz-adv-x="652" 
d="M100 0v688h301q66 0 105.5 -16.5t59 -45.5t26.5 -68.5t7 -86.5q0 -45 -6.5 -84.5t-26.5 -69.5t-60 -47t-107 -17h-213v-253h-86zM186 328h185q49 0 77.5 8t42.5 25.5t18 44.5t4 65t-3.5 65t-17 44t-42 25.5t-77.5 8.5h-187v-286z" />
    <glyph glyph-name="Q" unicode="Q" horiz-adv-x="717" 
d="M560 -115l-240 333h93l245 -331v-2h-98zM358 -8q-80 0 -132.5 8.5t-83 30.5t-44.5 61.5t-18 101t-4 150.5t4 150.5t18 101t44.5 61.5t83 30.5t132.5 8.5t132.5 -8.5t83 -30.5t44.5 -61.5t18 -101t4 -150.5t-4 -150.5t-18 -101t-44.5 -61.5t-83 -30.5t-132.5 -8.5zM358 66
q55 0 91 3.5t57 16.5t32 42.5t13.5 81.5t2.5 134t-2.5 134t-13.5 81.5t-32 42.5t-57 16.5t-91 3.5t-90.5 -3.5t-57 -16.5t-32 -42.5t-13.5 -81.5t-3 -134t3 -134t13.5 -81.5t32 -42.5t57 -16.5t90.5 -3.5z" />
    <glyph glyph-name="R" unicode="R" horiz-adv-x="681" 
d="M100 0v688h316q65 0 103.5 -15.5t57 -44t24.5 -66.5t6 -81q0 -37 -6.5 -76.5t-29 -71.5t-70.5 -47l116 -286h-92l-114 289l24 -12q-7 -2 -17 -3t-27 -1h-205v-273h-86zM186 348h193q50 0 78.5 8t42 25t17.5 41.5t4 58.5t-3.5 58.5t-16 41t-40 25t-75.5 8.5h-200v-266z
" />
    <glyph glyph-name="S" unicode="S" horiz-adv-x="628" 
d="M329 -8q-37 0 -81 2t-85.5 5t-75.5 7v73q36 -3 75.5 -6t77 -5t63.5 -2q53 0 85 4.5t54 17.5q15 9 22 24t8.5 35t1.5 43q0 34 -2 55t-10.5 32.5t-27.5 17t-51 8.5l-171 19q-48 6 -77 20.5t-43.5 37t-19.5 54t-5 70.5q0 63 16.5 101t48.5 58t77.5 26.5t104.5 6.5
q38 0 78 -2t75.5 -5.5t58.5 -8.5v-71q-26 4 -60 7t-69.5 4.5t-67.5 1.5q-55 0 -89 -5t-54 -18q-22 -13 -27.5 -36.5t-5.5 -56.5q0 -39 5.5 -60.5t24 -30t55.5 -12.5l167 -19q36 -3 63.5 -9.5t47.5 -21.5t30 -43q6 -14 9 -31t4.5 -37.5t1.5 -45.5q0 -57 -11 -94.5t-31 -59.5
t-49 -33t-64.5 -14t-76.5 -3z" />
    <glyph glyph-name="T" unicode="T" horiz-adv-x="581" 
d="M247 0v612h-217v76h521v-76h-218v-612h-86z" />
    <glyph glyph-name="U" unicode="U" horiz-adv-x="708" 
d="M355 -8q-71 0 -118.5 8.5t-76.5 28.5t-44 55.5t-20 88.5t-5 128v387h86v-421q0 -63 5 -102t21.5 -61t52.5 -30t99 -8t98.5 8t52 30t20.5 61t4 102v421h86v-387q0 -75 -4.5 -128t-19 -88.5t-43.5 -55.5t-76.5 -28.5t-117.5 -8.5z" />
    <glyph glyph-name="V" unicode="V" horiz-adv-x="663" 
d="M277 0l-248 688h90l211 -588h5l211 588h87l-248 -688h-108z" />
    <glyph glyph-name="W" unicode="W" horiz-adv-x="987" 
d="M223 0l-187 688h88l153 -576h6l168 576h90l169 -576h6l149 576h86l-187 -688h-102l-166 557h-4l-166 -557h-103z" />
    <glyph glyph-name="X" unicode="X" horiz-adv-x="675" 
d="M29 0l256 345l-252 343h102l200 -270h8l201 270h98l-252 -340l255 -348h-101l-204 276h-8l-205 -276h-98z" />
    <glyph glyph-name="Y" unicode="Y" horiz-adv-x="609" 
d="M261 0v263l-249 425h92l199 -339h7l197 339h90l-250 -425v-263h-86z" />
    <glyph glyph-name="Z" unicode="Z" horiz-adv-x="606" 
d="M53 0v71l388 543h-377v74h486v-69l-389 -545h395v-74h-503z" />
    <glyph glyph-name="bracketleft" unicode="[" horiz-adv-x="336" 
d="M100 -150v893h195v-60l-119 -3v-767l119 -3v-60h-195z" />
    <glyph glyph-name="backslash" unicode="\" horiz-adv-x="359" 
d="M287 -55l-291 798h76l290 -798h-75z" />
    <glyph glyph-name="bracketright" unicode="]" horiz-adv-x="336" 
d="M42 -150v60l119 3v767l-119 3v60h194v-893h-194z" />
    <glyph glyph-name="asciicircum" unicode="^" horiz-adv-x="456" 
d="M50 444l140 305h76l140 -305h-66l-112 249l-111 -249h-67z" />
    <glyph glyph-name="underscore" unicode="_" horiz-adv-x="358" 
d="M0 -170v66h358v-66h-358z" />
    <glyph glyph-name="grave" unicode="`" horiz-adv-x="189" 
d="M129 595l-129 135v5h88l101 -135v-5h-60z" />
    <glyph glyph-name="a" unicode="a" horiz-adv-x="569" 
d="M223 -8q-56 0 -93.5 13t-56 45t-18.5 90t13.5 91.5t47.5 47.5t95 14q10 0 31.5 -0.5t49.5 -1t56.5 -1t52.5 -1.5v32q0 45 -5.5 70.5t-22.5 38t-47.5 16t-80.5 3.5q-22 0 -52 -1.5t-58.5 -4t-45.5 -5.5v66q38 7 85.5 10.5t98.5 3.5q54 0 91.5 -6.5t61 -20.5t35.5 -37
t16.5 -56t4.5 -77v-321h-73l-3 72h-6q-16 -35 -45.5 -52.5t-64.5 -22.5t-67 -5zM253 59q29 0 54 3.5t44 13.5t30 30q11 21 15.5 45.5t4.5 57.5v26h-170q-39 0 -60 -6t-28.5 -25t-7.5 -57q0 -37 9 -56t34.5 -25.5t74.5 -6.5z" />
    <glyph glyph-name="b" unicode="b" horiz-adv-x="590" 
d="M337 -8q-35 0 -68 5.5t-59 23t-41 52.5h-6l-3 -73h-74v743h82v-298h5q14 28 37.5 44t55.5 22.5t73 6.5q55 0 91 -12.5t57 -41.5t29.5 -80t8.5 -129t-9 -129t-30 -80t-57.5 -41.5t-91.5 -12.5zM305 64q46 0 73.5 6.5t41.5 25.5t19 57t5 102t-5 101.5t-19 57t-41.5 25.5
t-73.5 6q-49 0 -78 -12.5t-41 -39.5q-12 -26 -15 -59.5t-3 -78.5q0 -44 2.5 -77.5t14.5 -59.5q13 -28 42 -41t78 -13z" />
    <glyph glyph-name="c" unicode="c" horiz-adv-x="460" 
d="M272 -8q-58 0 -95.5 10t-60 30t-33.5 51t-14.5 74t-3.5 98q0 57 4.5 100t17 74.5t35 50.5t58.5 28.5t89 9.5q35 0 73.5 -3.5t63.5 -9.5v-66q-23 4 -56.5 7t-60.5 3q-47 0 -75.5 -8t-43 -29t-19.5 -59t-5 -98q0 -61 5 -99.5t20.5 -59t44 -28t75.5 -7.5q28 0 61 3t59 7v-66
q-25 -5 -64 -9t-75 -4z" />
    <glyph glyph-name="d" unicode="d" horiz-adv-x="590" 
d="M253 -8q-55 0 -91.5 12t-57.5 41.5t-30 80.5t-9 128q0 78 8.5 129.5t29.5 80.5t57 41.5t91 12.5q41 0 73 -6.5t55.5 -22.5t37.5 -44h5v298h82v-743h-73l-4 73h-6q-14 -35 -40.5 -52.5t-59.5 -23t-68 -5.5zM285 64q51 0 81 14t42 44q10 28 12 61t2 78q0 37 -2 67.5
t-11 53.5q-13 34 -43 48.5t-83 14.5q-45 0 -72 -6t-41 -25.5t-19 -57t-5 -101.5t5 -102t19 -57t41.5 -25.5t73.5 -6.5z" />
    <glyph glyph-name="e" unicode="e" horiz-adv-x="559" 
d="M294 -8q-62 0 -103.5 8t-66.5 26.5t-38 49t-17 74.5t-4 104q0 71 6 121.5t27.5 82t67.5 46t124 14.5q59 0 96.5 -9t59.5 -28t32.5 -50.5t13.5 -75t3 -100.5v-27h-349q0 -52 5 -85t20.5 -51t49 -25t91.5 -7q24 0 53 1.5t58 4.5t52 6v-66q-21 -4 -51.5 -7t-64 -5t-65.5 -2z
M416 269v27q0 52 -6 82.5t-20.5 46t-39.5 20.5t-62 5q-48 0 -76 -6.5t-42 -23.5t-19 -49t-5 -85h289z" />
    <glyph glyph-name="f" unicode="f" horiz-adv-x="372" 
d="M130 0v441h-104v69h104v81q0 43 7 70.5t22.5 44t40.5 24.5t60.5 10t82.5 2v-62q-41 0 -67 -3t-40 -10.5t-19.5 -22.5t-5.5 -39v-95h132v-69h-132v-441h-81z" />
    <glyph glyph-name="g" unicode="g" horiz-adv-x="590" 
d="M273 -206q-32 0 -65.5 1.5t-63.5 3.5t-51 4v66q24 -2 53 -3.5t57.5 -2t51.5 -0.5q58 0 91 8t50 28t21.5 56t4.5 92v21h-5q-13 -28 -36 -44t-55 -22.5t-73 -6.5q-56 0 -92.5 12t-57.5 40.5t-29.5 79.5t-8.5 128q0 78 9 129t30 80t57.5 41.5t92.5 12.5q34 0 67 -5.5
t59.5 -23.5t40.5 -52h6l4 73h73v-444q0 -74 -7.5 -126t-30.5 -84t-69 -47t-124 -15zM285 66q50 0 79 13.5t42 42.5q11 24 13.5 57t2.5 77q0 42 -2 74.5t-13 55.5q-13 32 -43 46t-79 14q-46 0 -73.5 -6.5t-41.5 -25.5t-19 -57t-5 -101t5 -101t19 -57t41.5 -25.5t73.5 -6.5z
" />
    <glyph glyph-name="h" unicode="h" horiz-adv-x="599" 
d="M86 0v743h82v-300h5q10 21 29 38t52 26.5t84 9.5q56 0 90.5 -11.5t53 -35.5t24.5 -61.5t6 -89.5v-319h-81v291q0 52 -4.5 82.5t-17.5 46t-38 20.5t-66 5q-49 0 -77 -12.5t-41 -36t-16 -57t-3 -76.5v-263h-82z" />
    <glyph glyph-name="i" unicode="i" horiz-adv-x="254" 
d="M84 654v89h87v-89h-87zM86 0v510h82v-510h-82z" />
    <glyph glyph-name="j" unicode="j" horiz-adv-x="254" 
d="M84 654v89h87v-89h-87zM-9 -200v64q44 0 64.5 5t25.5 17t5 33v591h82v-573q0 -47 -9 -75t-30 -41t-54.5 -17t-83.5 -4z" />
    <glyph glyph-name="k" unicode="k" horiz-adv-x="537" 
d="M86 0v743h82v-450h64l180 217h92l-207 -247l210 -263h-95l-180 223h-64v-223h-82z" />
    <glyph glyph-name="l" unicode="l" horiz-adv-x="254" 
d="M86 0v743h82v-743h-82z" />
    <glyph glyph-name="m" unicode="m" horiz-adv-x="882" 
d="M86 0v510h74l3 -73h6q9 24 27.5 42t49 28.5t78.5 10.5q68 0 101 -19.5t46 -61.5h6q10 24 29 42t51 28.5t79 10.5q69 0 103 -21t45 -65t11 -113v-319h-81v291q0 52 -4 82.5t-15 46t-33 20.5t-59 5q-43 0 -68 -11.5t-36.5 -34.5t-14.5 -57t-3 -79v-263h-81v291
q0 52 -4 82.5t-15 46t-33 20.5t-59 5q-43 0 -68 -12.5t-36 -35.5t-14 -57t-3 -77v-263h-82z" />
    <glyph glyph-name="n" unicode="n" horiz-adv-x="599" 
d="M86 0v510h74l3 -73h6q11 24 30.5 42t53 28.5t85.5 10.5q57 0 91 -12t52.5 -36t24.5 -61.5t6 -89.5v-319h-81v291q0 52 -4.5 82.5t-17.5 46t-38 20.5t-66 5q-49 0 -77 -12.5t-41 -36t-16 -57t-3 -76.5v-263h-82z" />
    <glyph glyph-name="o" unicode="o" horiz-adv-x="577" 
d="M288 -8q-63 0 -104.5 7.5t-65.5 24.5t-35.5 47t-14.5 75.5t-3 108.5t3 108.5t14.5 75.5t35.5 47t65.5 24.5t104.5 7.5q64 0 105 -7.5t65.5 -24.5t36 -47t14.5 -75.5t3 -108.5t-3 -108.5t-14.5 -75.5t-36 -47t-65.5 -24.5t-105 -7.5zM288 61q54 0 83 7t41.5 27t15 58.5
t2.5 101.5t-2.5 101.5t-15 58.5t-41.5 27t-83 7q-53 0 -82.5 -7t-41.5 -27t-15 -58.5t-3 -101.5t3 -101.5t15 -58.5t41.5 -27t82.5 -7z" />
    <glyph glyph-name="p" unicode="p" horiz-adv-x="590" 
d="M86 -199v709h74l3 -73h6q15 34 41 52t59 23.5t68 5.5q55 0 91.5 -12t57.5 -41.5t30 -80.5t9 -128q0 -78 -8.5 -129.5t-29.5 -80.5t-57 -41.5t-91 -12.5q-41 0 -73 6.5t-55.5 22.5t-37.5 44h-5v-264h-82zM305 65q46 0 73.5 6t41.5 25.5t19 57t5 101.5t-5 102t-19 57
t-41.5 25.5t-73.5 6.5q-51 0 -80.5 -14.5t-42.5 -45.5q-10 -24 -12 -57t-2 -74q0 -42 2 -73.5t10 -52.5q14 -35 44 -49.5t81 -14.5z" />
    <glyph glyph-name="q" unicode="q" horiz-adv-x="591" 
d="M422 -199v264h-5q-14 -28 -37.5 -44t-55.5 -22.5t-73 -6.5q-55 0 -91 12t-57 41.5t-29.5 80.5t-8.5 128q0 78 9 129.5t30 80.5t57.5 41.5t91.5 12.5q35 0 68 -5.5t59.5 -23.5t40.5 -52h6l4 73h73v-709h-82zM285 65q52 0 82 15t42 48q9 23 11 54.5t2 72.5q0 43 -2.5 77
t-14.5 61t-41.5 40t-78.5 13q-46 0 -73.5 -6.5t-41.5 -25.5t-19 -57t-5 -102t5 -101.5t19 -57t41.5 -25.5t73.5 -6z" />
    <glyph glyph-name="r" unicode="r" horiz-adv-x="367" 
d="M86 0v510h73l4 -98h6q13 43 37 66t58 31.5t75 8.5v-80q-69 0 -106 -22t-51 -68t-14 -116v-232h-82z" />
    <glyph glyph-name="s" unicode="s" horiz-adv-x="499" 
d="M256 -8q-29 0 -62 2t-65 4.5t-58 6.5v66q24 -2 46.5 -4t44.5 -3.5t44 -2t45 -0.5q52 0 75.5 7.5t31 25.5t7.5 47q0 33 -5.5 48t-19 19.5t-40.5 7.5l-132 15q-47 5 -71 20.5t-33 44.5t-9 73q0 50 14 80t40 45t63 19.5t83 4.5q26 0 55 -2t57 -5t48 -7v-66q-26 4 -52.5 6.5
t-54 3.5t-55.5 1q-38 0 -65 -4t-40.5 -20t-13.5 -53q0 -29 4.5 -43.5t18.5 -20t39 -8.5l138 -15q41 -4 64.5 -15.5t34 -40.5t10.5 -87q0 -48 -11.5 -77.5t-35.5 -45.5t-59 -21.5t-81 -5.5z" />
    <glyph glyph-name="t" unicode="t" horiz-adv-x="358" 
d="M129 0v441h-103v69h103v148h81v-148h122v-69h-122v-441h-81z" />
    <glyph glyph-name="u" unicode="u" horiz-adv-x="599" 
d="M260 -8q-56 0 -90.5 12t-52.5 36t-24.5 61.5t-6.5 89.5v319h82v-291q0 -51 4 -82t17.5 -46.5t38.5 -20.5t65 -5q50 0 78 12.5t40.5 36t16 57t3.5 76.5v263h81v-510h-73l-3 73h-7q-10 -24 -29.5 -42t-53.5 -28.5t-86 -10.5z" />
    <glyph glyph-name="v" unicode="v" horiz-adv-x="530" 
d="M214 0l-187 510h85l150 -425h8l149 425h84l-187 -510h-102z" />
    <glyph glyph-name="w" unicode="w" horiz-adv-x="817" 
d="M194 0l-163 510h85l124 -411h7l124 411h77l124 -411h8l123 411h82l-163 -510h-94l-117 376h-7l-116 -376h-94z" />
    <glyph glyph-name="x" unicode="x" horiz-adv-x="546" 
d="M30 0l193 259l-186 251h93l141 -190h6l142 190h89l-185 -250l193 -260h-94l-148 198h-6l-148 -198h-90z" />
    <glyph glyph-name="y" unicode="y" horiz-adv-x="599" 
d="M282 -206q-29 0 -60.5 1.5t-60 3t-50.5 4.5v65q33 -1 60.5 -2.5t51 -2t42.5 -0.5q58 0 91.5 9t49.5 29.5t20.5 54.5t4.5 83v30h-6q-8 -20 -27 -37t-52 -27t-86 -10q-56 0 -90.5 11.5t-52.5 36t-24.5 61.5t-6.5 88v318h82v-289q0 -52 4 -83t17.5 -46.5t38.5 -20.5t65 -5
q50 0 78 12.5t40.5 36.5t16 57.5t3.5 75.5v262h81v-447q0 -73 -7.5 -124.5t-31 -83t-69.5 -46.5t-122 -15z" />
    <glyph glyph-name="z" unicode="z" horiz-adv-x="508" 
d="M52 0v63l297 378h-285v69h390v-63l-296 -378h298v-69h-404z" />
    <glyph glyph-name="braceleft" unicode="{" horiz-adv-x="324" 
d="M241 -150q-20 10 -40.5 28.5t-37 42t-26 52t-9.5 60.5v116q0 28 -8 57t-29.5 48.5t-63.5 19.5v45q42 0 63.5 19.5t29.5 48.5t8 57v116q0 31 9.5 59.5t26 52.5t37 42.5t40.5 28.5h63q-18 -13 -36 -32t-32.5 -42.5t-23 -49t-8.5 -51.5v-122q0 -57 -22 -95.5t-76 -50.5v-7
q54 -12 76 -50.5t22 -96.5v-121q0 -26 8.5 -51.5t23 -49t32.5 -42.5t36 -32h-63z" />
    <glyph glyph-name="bar" unicode="|" horiz-adv-x="277" 
d="M101 -161v904h75v-904h-75z" />
    <glyph glyph-name="braceright" unicode="}" horiz-adv-x="324" 
d="M19 -150q19 13 37 32t32 42.5t23 49t9 51.5v121q0 58 22.5 96.5t75.5 50.5v7q-53 12 -75.5 50.5t-22.5 95.5v122q0 26 -9 51.5t-23 49t-32 42.5t-37 32h64q21 -10 41 -28.5t36.5 -42.5t26 -52.5t9.5 -59.5v-116q0 -28 8 -57t29.5 -48.5t63.5 -19.5v-45q-42 0 -63.5 -19.5
t-29.5 -48.5t-8 -57v-116q0 -32 -9.5 -60.5t-26 -52t-36.5 -42t-41 -28.5h-64z" />
    <glyph glyph-name="asciitilde" unicode="~" horiz-adv-x="497" 
d="M67 240q0 39 4.5 64t20.5 37.5t49 12.5q30 0 60 -7.5t59 -16.5q24 -7 47 -13.5t43 -6.5q22 0 27 12t5 43h47q0 -39 -4.5 -64.5t-20.5 -37.5t-49 -12q-30 0 -59.5 8t-59.5 16q-23 7 -46.5 13t-43.5 6q-21 0 -26 -11.5t-5 -42.5h-48z" />
    <glyph glyph-name="uni00A0" unicode="&#xa0;" horiz-adv-x="235" 
 />
    <glyph glyph-name="exclamdown" unicode="&#xa1;" horiz-adv-x="243" 
d="M74 -178v102q0 22 1 54t2.5 72.5t4 85t4.5 89.5t4 88h63q2 -43 4 -88t4.5 -89.5t4 -85t2.5 -72.5t1 -54v-102h-95zM74 412v98h95v-98h-95z" />
    <glyph glyph-name="cent" unicode="&#xa2;" horiz-adv-x="468" 
d="M269 67q-66 1 -106.5 17.5t-61.5 49.5t-28.5 85t-7.5 123q0 61 6 106.5t20.5 78t38 52.5t58 29.5t82.5 9.5q25 0 49 -1t47.5 -4t44.5 -8v-69q-23 5 -56 8t-63 2q-45 0 -73 -7.5t-42.5 -29t-20 -61.5t-5.5 -105q0 -66 5.5 -106t21 -61.5t43.5 -29t74 -7.5q28 0 62.5 3
t57.5 9v-70q-18 -5 -38.5 -8t-47 -4.5t-60.5 -1.5zM247 -8v704h64v-704h-64z" />
    <glyph glyph-name="sterling" unicode="&#xa3;" horiz-adv-x="590" 
d="M53 0v74h74v245h-74v73h75v29q0 80 11.5 133.5t40 84.5t78 44t125.5 13q39 0 81 -4t67 -11v-69q-20 3 -43.5 5t-46.5 3.5t-41 1.5q-60 0 -96.5 -8t-56 -30t-26.5 -61.5t-7 -101.5v-29h242v-73h-242v-245h329v-74h-490z" />
    <glyph glyph-name="currency" unicode="&#xa4;" horiz-adv-x="717" 
d="M111 -9l-46 47l96 96q-17 31 -22 82.5t-5 127.5t4.5 127t21.5 82l-95 96l47 47l99 -100q24 13 60 18t87 5q52 0 88 -5t59 -18l101 100l46 -46l-96 -96q17 -32 21.5 -83t4.5 -127t-4.5 -127t-21.5 -83l97 -97l-47 -47l-101 101q-24 -12 -60 -17t-87 -5t-87 5t-59 18z
M358 138q54 0 83 7.5t41.5 28.5t15 62t2.5 108t-2.5 108t-15 62t-41.5 28.5t-83 7.5q-53 0 -82.5 -7.5t-41.5 -28.5t-15 -62t-3 -108t3 -108t15 -62t41.5 -28.5t82.5 -7.5z" />
    <glyph glyph-name="yen" unicode="&#xa5;" horiz-adv-x="623" 
d="M268 0v240h-203v55h184l-217 393h91l186 -353h7l186 353h88l-217 -393h184v-55h-203v-240h-86zM65 397v55h492v-55h-492z" />
    <glyph glyph-name="brokenbar" unicode="&#xa6;" horiz-adv-x="277" 
d="M101 390v353h75v-353h-75zM101 -161v353h75v-353h-75z" />
    <glyph glyph-name="section" unicode="&#xa7;" horiz-adv-x="696" 
d="M327 -171q-35 0 -69 2t-62 5t-46 6v68q17 -1 40.5 -3t50.5 -3t52 -1q62 0 100 3.5t54.5 20.5t16.5 54q0 32 -4.5 48.5t-18 25t-38.5 15.5l-229 63q-28 8 -50 17.5t-36 25.5t-21.5 40.5t-7.5 62.5q0 29 3.5 57.5t14.5 52.5t32 40t55 19q-12 20 -14 44.5t-2 51.5
q0 46 15 76t44 46.5t69.5 23t92.5 6.5q35 0 69 -2t62 -5t45 -6v-68q-27 3 -67 5t-76 2q-62 0 -100 -4t-54.5 -20.5t-16.5 -53.5q0 -32 5.5 -49t21 -26t46.5 -17l219 -62q26 -7 47 -17t36 -25t22.5 -40t7.5 -63q0 -29 -3.5 -57.5t-14 -53t-31.5 -40t-56 -18.5
q12 -20 14 -44.5t2 -50.5q0 -47 -15 -77t-43.5 -46t-69 -22.5t-92.5 -6.5zM139 296q0 -30 5 -47.5t18.5 -26.5t38.5 -16l234 -65q19 -5 34 -9t26 -4q30 0 46 23.5t16 75.5q0 31 -5.5 48.5t-20 27t-43.5 17.5l-227 61q-20 6 -34.5 10t-25.5 4q-30 0 -46 -23.5t-16 -75.5z" />
    <glyph glyph-name="dieresis" unicode="&#xa8;" horiz-adv-x="283" 
d="M0 628v80h77v-80h-77zM207 628v80h76v-80h-76z" />
    <glyph glyph-name="copyright" unicode="&#xa9;" horiz-adv-x="733" 
d="M366 -8q-82 0 -135 8t-83 28.5t-43 60t-16.5 102t-3.5 153.5t3.5 153.5t16.5 102t43 60t83 28.5t135 8q83 0 135.5 -8t82.5 -28.5t43.5 -60t17 -102t3.5 -153.5t-3.5 -153.5t-17 -102t-43.5 -60t-82.5 -28.5t-135.5 -8zM389 153q-49 0 -78.5 8t-45 28.5t-21 57.5t-5.5 96
q0 58 5.5 95t21 58t45 28.5t78.5 7.5q25 0 50 -2t38 -5v-46q-17 2 -38.5 3.5t-38.5 1.5q-37 0 -58 -3.5t-31.5 -17.5t-13.5 -42.5t-3 -77.5t3 -78t13.5 -42.5t31.5 -17.5t58 -4q19 0 41.5 1.5t37.5 3.5v-46q-16 -3 -41.5 -5t-48.5 -2zM366 32q70 0 115 4.5t70.5 20.5t37 50
t14 91t2.5 146q0 88 -2.5 145.5t-14 91.5t-37 49.5t-70.5 20t-115 4.5t-114.5 -4.5t-70 -20t-37 -49.5t-14.5 -91.5t-3 -145.5q0 -89 3 -146t14.5 -91t37 -50t70 -20.5t114.5 -4.5z" />
    <glyph glyph-name="ordfeminine" unicode="&#xaa;" horiz-adv-x="408" 
d="M162 314q-41 0 -68 9.5t-39.5 33.5t-12.5 67q0 41 9 65t33.5 34.5t69.5 10.5q11 0 34 -0.5t50.5 -1.5t49.5 -2v22q0 42 -7.5 60t-31.5 23.5t-73 5.5q-15 0 -35 -1t-40 -3t-36 -4v53q26 4 62 7t72 3q50 0 80.5 -7.5t46.5 -24.5t21 -44.5t5 -67.5v-234h-58l-5 43h-5
q-14 -21 -34.5 -31t-43 -13t-44.5 -3zM185 365q21 0 39.5 2.5t32 9.5t20.5 22q6 14 8.5 31t2.5 39v19h-118q-41 0 -54 -11t-13 -49t15.5 -50.5t66.5 -12.5z" />
    <glyph glyph-name="guillemotleft" unicode="&#xab;" horiz-adv-x="473" 
d="M178 99l-132 205l132 206h58l-114 -206l114 -205h-58zM346 99l-132 205l132 206h58l-114 -206l114 -205h-58z" />
    <glyph glyph-name="logicalnot" unicode="&#xac;" horiz-adv-x="539" 
d="M403 53v168h-333v67h399v-235h-66z" />
    <glyph glyph-name="uni00AD" unicode="&#xad;" horiz-adv-x="362" 
d="M59 248v74h243v-74h-243z" />
    <glyph glyph-name="registered" unicode="&#xae;" horiz-adv-x="733" 
d="M366 -8q-82 0 -135 8t-83 28.5t-43 60t-16.5 102t-3.5 153.5t3.5 153.5t16.5 102t43 60t83 28.5t135 8q83 0 135.5 -8t82.5 -28.5t43.5 -60t17 -102t3.5 -153.5t-3.5 -153.5t-17 -102t-43.5 -60t-82.5 -28.5t-135.5 -8zM366 32q70 0 115 4.5t70.5 20.5t37 50t14 91
t2.5 146q0 88 -2.5 145.5t-14 91.5t-37 49.5t-70.5 20t-115 4.5t-114.5 -4.5t-70 -20t-37 -49.5t-14.5 -91.5t-3 -145.5q0 -89 3 -146t14.5 -91t37 -50t70 -20.5t114.5 -4.5zM233 158v370h166q52 0 75 -15.5t29 -41t6 -55.5q0 -32 -10 -62.5t-46 -43.5l63 -152h-59l-56 144
h-114v-144h-54zM287 349h92q36 0 51.5 7.5t19.5 22.5t4 36q0 23 -4 37.5t-18.5 21.5t-46.5 7h-98v-132z" />
    <glyph glyph-name="macron" unicode="&#xaf;" horiz-adv-x="289" 
d="M0 628v57h289v-57h-289z" />
    <glyph glyph-name="degree" unicode="&#xb0;" horiz-adv-x="389" 
d="M195 397q-47 0 -74 7t-39.5 24t-15.5 46t-3 72t3 72t15.5 46t39.5 24.5t74 7.5t73.5 -7.5t39 -24.5t15.5 -46t3 -72t-3 -72t-15.5 -46t-39 -24t-73.5 -7zM195 443q37 0 52.5 7.5t18.5 30t3 65.5t-3 65.5t-18.5 30t-52.5 7.5t-53 -7.5t-19 -30t-3 -65.5t3 -65.5t19 -30
t53 -7.5z" />
    <glyph glyph-name="plusminus" unicode="&#xb1;" horiz-adv-x="540" 
d="M236 184v167h-166v66h166v167h66v-167h168v-66h-168v-167h-66zM70 0v66h400v-66h-400z" />
    <glyph glyph-name="uni00B2" unicode="&#xb2;" horiz-adv-x="356" 
d="M41 420v46q0 43 3 67.5t16.5 39t43.5 26.5l105 41q21 8 30 14t12 16t3 28q0 24 -8 36t-27.5 15t-54.5 3q-20 0 -52.5 -1.5t-62.5 -4.5v46q25 5 62 7.5t69 2.5q37 0 67.5 -5.5t49 -26.5t18.5 -67q0 -32 -7.5 -52t-23.5 -32t-43 -23l-116 -46q-11 -4 -16.5 -9t-7 -14
t-1.5 -28v-29h215v-50h-274z" />
    <glyph glyph-name="uni00B3" unicode="&#xb3;" horiz-adv-x="351" 
d="M155 416q-27 0 -61 2.5t-59 6.5v46q29 -2 61 -4t52 -2q49 0 73.5 9.5t24.5 49.5q0 36 -16 49.5t-55 13.5h-74v48h75q18 0 33.5 4.5t24.5 17t9 37.5q0 26 -10 38.5t-32 16t-59 3.5q-22 0 -51.5 -1.5t-53.5 -4.5v47q24 4 58 6.5t60 2.5q57 0 89 -10t45.5 -31.5t13.5 -57.5
q0 -41 -17.5 -61.5t-49.5 -27.5v-2q34 -7 53 -25.5t19 -65.5q0 -34 -12 -57.5t-45 -35.5t-96 -12z" />
    <glyph glyph-name="acute" unicode="&#xb4;" horiz-adv-x="189" 
d="M0 595v5l101 135h88v-5l-129 -135h-60z" />
    <glyph glyph-name="uni00B5" unicode="&#xb5;" horiz-adv-x="599" 
d="M86 -189v699h82v-291q0 -51 4 -82t17.5 -46.5t38.5 -20.5t65 -5q50 0 78 12.5t40.5 36t16 57t3.5 76.5v263h81v-510h-73l-3 73h-7q-10 -24 -29.5 -42t-53.5 -28.5t-86 -10.5q-35 0 -63 9t-49 27.5t-39 47.5l75 -41h-16v-224h-82z" />
    <glyph glyph-name="paragraph" unicode="&#xb6;" horiz-adv-x="587" 
d="M309 -144v366q-70 0 -115 5t-71.5 18.5t-38.5 39t-15.5 67t-3.5 102.5t3.5 102.5t15.5 67.5t38.5 40t71.5 19t115 5h62v-832h-62zM437 -144v832h61v-832h-61z" />
    <glyph glyph-name="periodcentered" unicode="&#xb7;" horiz-adv-x="223" 
d="M64 251v97h95v-97h-95z" />
    <glyph glyph-name="cedilla" unicode="&#xb8;" horiz-adv-x="123" 
d="M0 -190v5l68 203h55v-5l-42 -203h-81z" />
    <glyph glyph-name="uni00B9" unicode="&#xb9;" horiz-adv-x="225" 
d="M103 420v313l-82 -38v52l98 50h43v-377h-59z" />
    <glyph glyph-name="ordmasculine" unicode="&#xba;" horiz-adv-x="422" 
d="M211 314q-58 0 -91.5 9t-48.5 30.5t-19.5 58.5t-4.5 92t4.5 92t19.5 59t48.5 31.5t91.5 9.5t91 -9.5t48.5 -31.5t19.5 -59t4 -92t-4 -92t-19.5 -58.5t-48.5 -30.5t-91 -9zM211 368q37 0 57.5 5t28.5 19t10 41t2 71q0 43 -2 70.5t-10 42t-28.5 19.5t-57.5 5t-57.5 -5
t-29 -19.5t-10.5 -42t-2 -70.5q0 -44 2 -71t10.5 -41t29 -19t57.5 -5z" />
    <glyph glyph-name="guillemotright" unicode="&#xbb;" horiz-adv-x="473" 
d="M69 99l114 205l-114 206h58l132 -206l-132 -205h-58zM237 99l113 205l-113 206h58l132 -206l-132 -205h-58z" />
    <glyph glyph-name="onequarter" unicode="&#xbc;" horiz-adv-x="669" 
d="M103 308v313l-82 -38v52l98 50h43v-377h-59zM40 0l449 688h64l-449 -688h-64zM530 0v85h-205v43l142 249h66l-144 -244h142l15 123h44v-123h55v-48h-55v-85h-60z" />
    <glyph glyph-name="onehalf" unicode="&#xbd;" horiz-adv-x="725" 
d="M103 308v313l-82 -38v52l98 50h43v-377h-59zM40 0l449 688h64l-449 -688h-64zM409 0v46q0 43 3 67.5t16.5 39t43.5 26.5l105 41q21 8 30 14t12 16t3 28q0 24 -8 36t-27.5 15t-54.5 3q-20 0 -52.5 -1.5t-62.5 -4.5v46q25 5 62 7.5t69 2.5q37 0 67.5 -5.5t49 -26.5
t18.5 -67q0 -32 -7.5 -52t-23.5 -32t-43 -23l-116 -46q-11 -4 -16.5 -9t-7 -14t-1.5 -28v-29h215v-50h-274z" />
    <glyph glyph-name="threequarters" unicode="&#xbe;" horiz-adv-x="795" 
d="M155 304q-27 0 -61 2.5t-59 6.5v46q29 -2 61 -4t52 -2q49 0 73.5 9.5t24.5 49.5q0 36 -16 49.5t-55 13.5h-74v48h75q18 0 33.5 5t24.5 17.5t9 36.5q0 26 -10 38.5t-32 16t-59 3.5q-22 0 -51.5 -1.5t-53.5 -4.5v47q24 4 58 6.5t60 2.5q57 0 89 -10t45.5 -31.5t13.5 -57.5
q0 -41 -17.5 -61.5t-49.5 -27.5v-2q34 -7 53 -25.5t19 -65.5q0 -34 -12 -57.5t-45 -35.5t-96 -12zM166 0l449 688h64l-449 -688h-64zM656 0v85h-205v43l142 249h66l-144 -244h142l15 123h44v-123h55v-48h-55v-85h-60z" />
    <glyph glyph-name="questiondown" unicode="&#xbf;" horiz-adv-x="438" 
d="M266 -186q-55 0 -93.5 9t-62.5 29.5t-35.5 54t-11.5 82.5q0 32 3.5 58.5t12.5 47t25.5 35t42.5 24.5l48 16q24 9 38.5 15t21 13t8.5 19.5t2 32.5v63h77v-80q0 -37 -7.5 -57.5t-23.5 -31.5t-43 -20l-31 -11q-38 -12 -57 -24.5t-25 -33.5t-6 -63q0 -47 14 -69.5t46 -28.5
t85 -6q15 0 35 1t41.5 2.5t44 3.5t42.5 5v-70q-29 -5 -63 -8.5t-67.5 -5.5t-60.5 -2zM256 412v98h94v-98h-94z" />
    <glyph glyph-name="Agrave" unicode="&#xc0;" horiz-adv-x="684" 
d="M28 0l260 688h108l259 -688h-89l-71 188h-309l-71 -188h-87zM212 263h257l-126 337h-5zM336 773l-129 135v5h88l101 -135v-5h-60z" />
    <glyph glyph-name="Aacute" unicode="&#xc1;" horiz-adv-x="684" 
d="M28 0l260 688h108l259 -688h-89l-71 188h-309l-71 -188h-87zM212 263h257l-126 337h-5zM289 773v5l101 135h88v-5l-129 -135h-60z" />
    <glyph glyph-name="Acircumflex" unicode="&#xc2;" horiz-adv-x="684" 
d="M28 0l260 688h108l259 -688h-89l-71 188h-309l-71 -188h-87zM212 263h257l-126 337h-5zM197 773v6l102 135h85l102 -135v-6h-56l-89 97l-88 -97h-56z" />
    <glyph glyph-name="Atilde" unicode="&#xc3;" horiz-adv-x="684" 
d="M28 0l260 688h108l259 -688h-89l-71 188h-309l-71 -188h-87zM212 263h257l-126 337h-5zM171 780q0 39 4.5 64t20.5 37.5t49 12.5q28 0 55 -7.5t54 -16.5q21 -7 40.5 -13t39.5 -6q22 0 26.5 11.5t4.5 42.5h47q0 -39 -4.5 -64t-20 -37.5t-48.5 -12.5q-30 0 -55.5 8
t-53.5 16q-21 7 -41 13t-39 6q-22 0 -26.5 -11.5t-4.5 -42.5h-48z" />
    <glyph glyph-name="Adieresis" unicode="&#xc4;" horiz-adv-x="684" 
d="M28 0l260 688h108l259 -688h-89l-71 188h-309l-71 -188h-87zM212 263h257l-126 337h-5zM200 806v80h77v-80h-77zM407 806v80h76v-80h-76z" />
    <glyph glyph-name="Aring" unicode="&#xc5;" horiz-adv-x="683" 
d="M28 0l260 688h108l259 -688h-89l-71 188h-309l-71 -188h-87zM212 263h257l-126 337h-5zM355 652q-45 0 -70.5 5.5t-37 18t-15 32.5t-3.5 48t3.5 48t15 32.5t37 18.5t70.5 6q46 0 72 -6t38 -18.5t15 -32.5t3 -48t-3 -48t-15 -32.5t-38 -18t-72 -5.5zM355 694
q38 0 53.5 5.5t19 19t3.5 37.5t-3.5 38t-19 19.5t-53.5 5.5q-36 0 -51.5 -5.5t-19 -19.5t-3.5 -38t3.5 -37.5t19 -19t51.5 -5.5z" />
    <glyph glyph-name="AE" unicode="&#xc6;" horiz-adv-x="955" 
d="M-7 0l335 688h570v-74h-443l63 -229h333v-75h-315l65 -236h297v-74h-368l-50 188h-309l-91 -188h-87zM205 263h257l-89 337h-5z" />
    <glyph glyph-name="Ccedilla" unicode="&#xc7;" horiz-adv-x="575" 
d="M353 -8q-72 0 -121 8.5t-80 30t-47.5 61t-22.5 101.5t-6 151t6 150.5t22.5 101t47.5 61.5t80 30.5t121 8.5q28 0 57.5 -2t56.5 -5t47 -8v-69q-23 3 -47.5 5.5t-48.5 3.5t-43 1q-58 0 -97 -5t-62 -19.5t-34.5 -45t-15.5 -81t-4 -127.5t4 -127.5t15.5 -81t34.5 -45
t62 -19.5t97 -5q34 0 74 3t69 7v-71q-21 -4 -49.5 -6.5t-58.5 -4.5t-57 -2zM242 -190v5l68 203h55v-5l-42 -203h-81z" />
    <glyph glyph-name="Egrave" unicode="&#xc8;" horiz-adv-x="603" 
d="M100 0v688h447v-74h-361v-229h314v-75h-314v-236h361v-74h-447zM324 773l-129 135v5h88l101 -135v-5h-60z" />
    <glyph glyph-name="Eacute" unicode="&#xc9;" horiz-adv-x="603" 
d="M100 0v688h447v-74h-361v-229h314v-75h-314v-236h361v-74h-447zM277 773v5l101 135h88v-5l-129 -135h-60z" />
    <glyph glyph-name="Ecircumflex" unicode="&#xca;" horiz-adv-x="603" 
d="M100 0v688h447v-74h-361v-229h314v-75h-314v-236h361v-74h-447zM185 773v6l102 135h85l102 -135v-6h-56l-89 97l-88 -97h-56z" />
    <glyph glyph-name="Edieresis" unicode="&#xcb;" horiz-adv-x="603" 
d="M100 0v688h447v-74h-361v-229h314v-75h-314v-236h361v-74h-447zM188 806v80h77v-80h-77zM395 806v80h76v-80h-76z" />
    <glyph glyph-name="Igrave" unicode="&#xcc;" horiz-adv-x="286" 
d="M100 0v688h86v-688h-86zM137 773l-129 135v5h88l101 -135v-5h-60z" />
    <glyph glyph-name="Iacute" unicode="&#xcd;" horiz-adv-x="286" 
d="M100 0v688h86v-688h-86zM90 773v5l101 135h88v-5l-129 -135h-60z" />
    <glyph glyph-name="Icircumflex" unicode="&#xce;" horiz-adv-x="286" 
d="M100 0v688h86v-688h-86zM-2 773v6l102 135h85l102 -135v-6h-56l-89 97l-88 -97h-56z" />
    <glyph glyph-name="Idieresis" unicode="&#xcf;" horiz-adv-x="286" 
d="M100 0v688h86v-688h-86zM1 806v80h77v-80h-77zM208 806v80h76v-80h-76z" />
    <glyph glyph-name="Eth" unicode="&#xd0;" horiz-adv-x="689" 
d="M100 0v314h-69v69h69v305h218q85 0 139 -8t85.5 -29t46.5 -60t19 -99t4 -148t-4 -148t-19 -99t-46.5 -60t-85.5 -29t-139 -8h-218zM186 74h118q63 0 104 3t65 15.5t35 41t14.5 79.5t3.5 131t-3.5 130.5t-15 79.5t-35.5 41.5t-64.5 15.5t-103.5 3h-118v-231h110v-69h-110
v-240z" />
    <glyph glyph-name="Ntilde" unicode="&#xd1;" horiz-adv-x="731" 
d="M100 0v688h88l357 -527h4v527h83v-688h-83l-362 537h-4v-537h-83zM205 780q0 39 4.5 64t20.5 37.5t49 12.5q28 0 55 -7.5t54 -16.5q21 -7 40.5 -13t39.5 -6q22 0 26.5 11.5t4.5 42.5h47q0 -39 -4.5 -64t-20 -37.5t-48.5 -12.5q-30 0 -55.5 8t-53.5 16q-21 7 -41 13t-39 6
q-22 0 -26.5 -11.5t-4.5 -42.5h-48z" />
    <glyph glyph-name="Ograve" unicode="&#xd2;" horiz-adv-x="717" 
d="M358 -8q-80 0 -132.5 8.5t-83 30.5t-44.5 61.5t-18 101t-4 150.5t4 150.5t18 101t44.5 61.5t83 30.5t132.5 8.5t132.5 -8.5t83 -30.5t44.5 -61.5t18 -101t4 -150.5t-4 -150.5t-18 -101t-44.5 -61.5t-83 -30.5t-132.5 -8.5zM358 66q55 0 91 3.5t57 16.5t32 42.5t13.5 81.5
t2.5 134t-2.5 134t-13.5 81.5t-32 42.5t-57 16.5t-91 3.5t-90.5 -3.5t-57 -16.5t-32 -42.5t-13.5 -81.5t-3 -134t3 -134t13.5 -81.5t32 -42.5t57 -16.5t90.5 -3.5zM353 773l-129 135v5h88l101 -135v-5h-60z" />
    <glyph glyph-name="Oacute" unicode="&#xd3;" horiz-adv-x="717" 
d="M358 -8q-80 0 -132.5 8.5t-83 30.5t-44.5 61.5t-18 101t-4 150.5t4 150.5t18 101t44.5 61.5t83 30.5t132.5 8.5t132.5 -8.5t83 -30.5t44.5 -61.5t18 -101t4 -150.5t-4 -150.5t-18 -101t-44.5 -61.5t-83 -30.5t-132.5 -8.5zM358 66q55 0 91 3.5t57 16.5t32 42.5t13.5 81.5
t2.5 134t-2.5 134t-13.5 81.5t-32 42.5t-57 16.5t-91 3.5t-90.5 -3.5t-57 -16.5t-32 -42.5t-13.5 -81.5t-3 -134t3 -134t13.5 -81.5t32 -42.5t57 -16.5t90.5 -3.5zM306 773v5l101 135h88v-5l-129 -135h-60z" />
    <glyph glyph-name="Ocircumflex" unicode="&#xd4;" horiz-adv-x="717" 
d="M358 -8q-80 0 -132.5 8.5t-83 30.5t-44.5 61.5t-18 101t-4 150.5t4 150.5t18 101t44.5 61.5t83 30.5t132.5 8.5t132.5 -8.5t83 -30.5t44.5 -61.5t18 -101t4 -150.5t-4 -150.5t-18 -101t-44.5 -61.5t-83 -30.5t-132.5 -8.5zM358 66q55 0 91 3.5t57 16.5t32 42.5t13.5 81.5
t2.5 134t-2.5 134t-13.5 81.5t-32 42.5t-57 16.5t-91 3.5t-90.5 -3.5t-57 -16.5t-32 -42.5t-13.5 -81.5t-3 -134t3 -134t13.5 -81.5t32 -42.5t57 -16.5t90.5 -3.5zM214 773v6l102 135h85l102 -135v-6h-56l-89 97l-88 -97h-56z" />
    <glyph glyph-name="Otilde" unicode="&#xd5;" horiz-adv-x="717" 
d="M358 -8q-80 0 -132.5 8.5t-83 30.5t-44.5 61.5t-18 101t-4 150.5t4 150.5t18 101t44.5 61.5t83 30.5t132.5 8.5t132.5 -8.5t83 -30.5t44.5 -61.5t18 -101t4 -150.5t-4 -150.5t-18 -101t-44.5 -61.5t-83 -30.5t-132.5 -8.5zM358 66q55 0 91 3.5t57 16.5t32 42.5t13.5 81.5
t2.5 134t-2.5 134t-13.5 81.5t-32 42.5t-57 16.5t-91 3.5t-90.5 -3.5t-57 -16.5t-32 -42.5t-13.5 -81.5t-3 -134t3 -134t13.5 -81.5t32 -42.5t57 -16.5t90.5 -3.5zM188 780q0 39 4.5 64t20.5 37.5t49 12.5q28 0 55 -7.5t54 -16.5q21 -7 40.5 -13t39.5 -6q22 0 26.5 11.5
t4.5 42.5h47q0 -39 -4.5 -64t-20 -37.5t-48.5 -12.5q-30 0 -55.5 8t-53.5 16q-21 7 -41 13t-39 6q-22 0 -26.5 -11.5t-4.5 -42.5h-48z" />
    <glyph glyph-name="Odieresis" unicode="&#xd6;" horiz-adv-x="717" 
d="M358 -8q-80 0 -132.5 8.5t-83 30.5t-44.5 61.5t-18 101t-4 150.5t4 150.5t18 101t44.5 61.5t83 30.5t132.5 8.5t132.5 -8.5t83 -30.5t44.5 -61.5t18 -101t4 -150.5t-4 -150.5t-18 -101t-44.5 -61.5t-83 -30.5t-132.5 -8.5zM358 66q55 0 91 3.5t57 16.5t32 42.5t13.5 81.5
t2.5 134t-2.5 134t-13.5 81.5t-32 42.5t-57 16.5t-91 3.5t-90.5 -3.5t-57 -16.5t-32 -42.5t-13.5 -81.5t-3 -134t3 -134t13.5 -81.5t32 -42.5t57 -16.5t90.5 -3.5zM216 806v80h77v-80h-77zM423 806v80h76v-80h-76z" />
    <glyph glyph-name="multiply" unicode="&#xd7;" horiz-adv-x="482" 
d="M115 79l-46 48l125 125l-126 126l47 47l126 -126l126 126l47 -46l-126 -127l126 -126l-47 -47l-126 127z" />
    <glyph glyph-name="Oslash" unicode="&#xd8;" horiz-adv-x="717" 
d="M76 -55l489 798h75l-489 -798h-75zM358 -8q-80 0 -132.5 8.5t-83 30.5t-44.5 61.5t-18 101t-4 150.5t4 150.5t18 101t44.5 61.5t83 30.5t132.5 8.5t132.5 -8.5t83 -30.5t44.5 -61.5t18 -101t4 -150.5t-4 -150.5t-18 -101t-44.5 -61.5t-83 -30.5t-132.5 -8.5zM358 66
q55 0 91 3.5t57 16.5t32 42.5t13.5 81.5t2.5 134t-2.5 134t-13.5 81.5t-32 42.5t-57 16.5t-91 3.5t-90.5 -3.5t-57 -16.5t-32 -42.5t-13.5 -81.5t-3 -134t3 -134t13.5 -81.5t32 -42.5t57 -16.5t90.5 -3.5z" />
    <glyph glyph-name="Ugrave" unicode="&#xd9;" horiz-adv-x="708" 
d="M355 -8q-71 0 -118.5 8.5t-76.5 28.5t-44 55.5t-20 88.5t-5 128v387h86v-421q0 -63 5 -102t21.5 -61t52.5 -30t99 -8t98.5 8t52 30t20.5 61t4 102v421h86v-387q0 -75 -4.5 -128t-19 -88.5t-43.5 -55.5t-76.5 -28.5t-117.5 -8.5zM349 773l-129 135v5h88l101 -135v-5h-60z
" />
    <glyph glyph-name="Uacute" unicode="&#xda;" horiz-adv-x="708" 
d="M355 -8q-71 0 -118.5 8.5t-76.5 28.5t-44 55.5t-20 88.5t-5 128v387h86v-421q0 -63 5 -102t21.5 -61t52.5 -30t99 -8t98.5 8t52 30t20.5 61t4 102v421h86v-387q0 -75 -4.5 -128t-19 -88.5t-43.5 -55.5t-76.5 -28.5t-117.5 -8.5zM302 773v5l101 135h88v-5l-129 -135h-60z
" />
    <glyph glyph-name="Ucircumflex" unicode="&#xdb;" horiz-adv-x="708" 
d="M355 -8q-71 0 -118.5 8.5t-76.5 28.5t-44 55.5t-20 88.5t-5 128v387h86v-421q0 -63 5 -102t21.5 -61t52.5 -30t99 -8t98.5 8t52 30t20.5 61t4 102v421h86v-387q0 -75 -4.5 -128t-19 -88.5t-43.5 -55.5t-76.5 -28.5t-117.5 -8.5zM210 773v6l102 135h85l102 -135v-6h-56
l-89 97l-88 -97h-56z" />
    <glyph glyph-name="Udieresis" unicode="&#xdc;" horiz-adv-x="708" 
d="M355 -8q-71 0 -118.5 8.5t-76.5 28.5t-44 55.5t-20 88.5t-5 128v387h86v-421q0 -63 5 -102t21.5 -61t52.5 -30t99 -8t98.5 8t52 30t20.5 61t4 102v421h86v-387q0 -75 -4.5 -128t-19 -88.5t-43.5 -55.5t-76.5 -28.5t-117.5 -8.5zM212 806v80h77v-80h-77zM419 806v80h76
v-80h-76z" />
    <glyph glyph-name="Yacute" unicode="&#xdd;" horiz-adv-x="609" 
d="M261 0v263l-249 425h92l199 -339h7l197 339h90l-250 -425v-263h-86zM252 773v5l101 135h88v-5l-129 -135h-60z" />
    <glyph glyph-name="Thorn" unicode="&#xde;" horiz-adv-x="652" 
d="M100 0v688h86v-120h215q66 0 105.5 -16.5t59 -46t26.5 -68.5t7 -86q0 -45 -6.5 -84.5t-26.5 -69.5t-60 -47t-107 -17h-213v-133h-86zM186 207h185q49 0 77.5 8.5t42.5 25.5t18 44.5t4 65.5q0 37 -3.5 64.5t-17 44.5t-42 25.5t-77.5 8.5h-187v-287z" />
    <glyph glyph-name="germandbls" unicode="&#xdf;" horiz-adv-x="608" 
d="M86 0v540q0 72 21.5 118.5t71 69t137.5 22.5q65 0 107.5 -11.5t66.5 -33.5t33.5 -54.5t9.5 -75.5q0 -61 -28 -93.5t-88 -41.5v-4q62 -11 93.5 -53.5t31.5 -141.5q0 -65 -7.5 -111t-29 -74.5t-63 -42t-108.5 -13.5h-74v68h54q49 0 78 5t44 21.5t20 50.5t5 94
q0 66 -12.5 101t-43 47.5t-86.5 12.5h-31v69h31q50 0 79 9.5t41.5 31t12.5 58.5q0 45 -12 69.5t-43 34t-88 9.5q-48 0 -80 -10.5t-47 -43t-15 -98.5v-529h-81z" />
    <glyph glyph-name="agrave" unicode="&#xe0;" horiz-adv-x="569" 
d="M223 -8q-56 0 -93.5 13t-56 45t-18.5 90t13.5 91.5t47.5 47.5t95 14q10 0 31.5 -0.5t49.5 -1t56.5 -1t52.5 -1.5v32q0 45 -5.5 70.5t-22.5 38t-47.5 16t-80.5 3.5q-22 0 -52 -1.5t-58.5 -4t-45.5 -5.5v66q38 7 85.5 10.5t98.5 3.5q54 0 91.5 -6.5t61 -20.5t35.5 -37
t16.5 -56t4.5 -77v-321h-73l-3 72h-6q-16 -35 -45.5 -52.5t-64.5 -22.5t-67 -5zM253 59q29 0 54 3.5t44 13.5t30 30q11 21 15.5 45.5t4.5 57.5v26h-170q-39 0 -60 -6t-28.5 -25t-7.5 -57q0 -37 9 -56t34.5 -25.5t74.5 -6.5zM285 595l-129 135v5h88l101 -135v-5h-60z" />
    <glyph glyph-name="aacute" unicode="&#xe1;" horiz-adv-x="569" 
d="M223 -8q-56 0 -93.5 13t-56 45t-18.5 90t13.5 91.5t47.5 47.5t95 14q10 0 31.5 -0.5t49.5 -1t56.5 -1t52.5 -1.5v32q0 45 -5.5 70.5t-22.5 38t-47.5 16t-80.5 3.5q-22 0 -52 -1.5t-58.5 -4t-45.5 -5.5v66q38 7 85.5 10.5t98.5 3.5q54 0 91.5 -6.5t61 -20.5t35.5 -37
t16.5 -56t4.5 -77v-321h-73l-3 72h-6q-16 -35 -45.5 -52.5t-64.5 -22.5t-67 -5zM253 59q29 0 54 3.5t44 13.5t30 30q11 21 15.5 45.5t4.5 57.5v26h-170q-39 0 -60 -6t-28.5 -25t-7.5 -57q0 -37 9 -56t34.5 -25.5t74.5 -6.5zM210 595v5l101 135h88v-5l-129 -135h-60z" />
    <glyph glyph-name="acircumflex" unicode="&#xe2;" horiz-adv-x="569" 
d="M223 -8q-56 0 -93.5 13t-56 45t-18.5 90t13.5 91.5t47.5 47.5t95 14q10 0 31.5 -0.5t49.5 -1t56.5 -1t52.5 -1.5v32q0 45 -5.5 70.5t-22.5 38t-47.5 16t-80.5 3.5q-22 0 -52 -1.5t-58.5 -4t-45.5 -5.5v66q38 7 85.5 10.5t98.5 3.5q54 0 91.5 -6.5t61 -20.5t35.5 -37
t16.5 -56t4.5 -77v-321h-73l-3 72h-6q-16 -35 -45.5 -52.5t-64.5 -22.5t-67 -5zM253 59q29 0 54 3.5t44 13.5t30 30q11 21 15.5 45.5t4.5 57.5v26h-170q-39 0 -60 -6t-28.5 -25t-7.5 -57q0 -37 9 -56t34.5 -25.5t74.5 -6.5zM142 595v6l102 134h85l102 -134v-6h-56l-89 96
l-88 -96h-56z" />
    <glyph glyph-name="atilde" unicode="&#xe3;" horiz-adv-x="569" 
d="M223 -8q-56 0 -93.5 13t-56 45t-18.5 90t13.5 91.5t47.5 47.5t95 14q10 0 31.5 -0.5t49.5 -1t56.5 -1t52.5 -1.5v32q0 45 -5.5 70.5t-22.5 38t-47.5 16t-80.5 3.5q-22 0 -52 -1.5t-58.5 -4t-45.5 -5.5v66q38 7 85.5 10.5t98.5 3.5q54 0 91.5 -6.5t61 -20.5t35.5 -37
t16.5 -56t4.5 -77v-321h-73l-3 72h-6q-16 -35 -45.5 -52.5t-64.5 -22.5t-67 -5zM253 59q29 0 54 3.5t44 13.5t30 30q11 21 15.5 45.5t4.5 57.5v26h-170q-39 0 -60 -6t-28.5 -25t-7.5 -57q0 -37 9 -56t34.5 -25.5t74.5 -6.5zM115 602q0 39 4.5 64t20.5 37.5t49 12.5
q28 0 55 -7.5t54 -16.5q21 -7 40.5 -13t39.5 -6q22 0 26.5 11.5t4.5 42.5h47q0 -39 -4.5 -64t-20 -37.5t-48.5 -12.5q-30 0 -55.5 8t-53.5 16q-21 7 -41 13t-39 6q-22 0 -26.5 -11.5t-4.5 -42.5h-48z" />
    <glyph glyph-name="adieresis" unicode="&#xe4;" horiz-adv-x="569" 
d="M223 -8q-56 0 -93.5 13t-56 45t-18.5 90t13.5 91.5t47.5 47.5t95 14q10 0 31.5 -0.5t49.5 -1t56.5 -1t52.5 -1.5v32q0 45 -5.5 70.5t-22.5 38t-47.5 16t-80.5 3.5q-22 0 -52 -1.5t-58.5 -4t-45.5 -5.5v66q38 7 85.5 10.5t98.5 3.5q54 0 91.5 -6.5t61 -20.5t35.5 -37
t16.5 -56t4.5 -77v-321h-73l-3 72h-6q-16 -35 -45.5 -52.5t-64.5 -22.5t-67 -5zM253 59q29 0 54 3.5t44 13.5t30 30q11 21 15.5 45.5t4.5 57.5v26h-170q-39 0 -60 -6t-28.5 -25t-7.5 -57q0 -37 9 -56t34.5 -25.5t74.5 -6.5zM144 628v80h77v-80h-77zM351 628v80h76v-80h-76z
" />
    <glyph glyph-name="aring" unicode="&#xe5;" horiz-adv-x="569" 
d="M223 -8q-56 0 -93.5 13t-56 45t-18.5 90t13.5 91.5t47.5 47.5t95 14q10 0 31.5 -0.5t49.5 -1t56.5 -1t52.5 -1.5v32q0 45 -5.5 70.5t-22.5 38t-47.5 16t-80.5 3.5q-22 0 -52 -1.5t-58.5 -4t-45.5 -5.5v66q38 7 85.5 10.5t98.5 3.5q54 0 91.5 -6.5t61 -20.5t35.5 -37
t16.5 -56t4.5 -77v-321h-73l-3 72h-6q-16 -35 -45.5 -52.5t-64.5 -22.5t-67 -5zM253 59q29 0 54 3.5t44 13.5t30 30q11 21 15.5 45.5t4.5 57.5v26h-170q-39 0 -60 -6t-28.5 -25t-7.5 -57q0 -37 9 -56t34.5 -25.5t74.5 -6.5zM285 581q-45 0 -70.5 5.5t-37 18t-15 32.5
t-3.5 48t3.5 48t15 32.5t37 18.5t70.5 6q46 0 72 -6t38 -18.5t15 -32.5t3 -48t-3 -48t-15 -32.5t-38 -18t-72 -5.5zM285 623q38 0 53.5 5.5t19 19t3.5 37.5t-3.5 38t-19 19.5t-53.5 5.5q-36 0 -51.5 -5.5t-19 -19.5t-3.5 -38t3.5 -37.5t19 -19t51.5 -5.5z" />
    <glyph glyph-name="ae" unicode="&#xe6;" horiz-adv-x="897" 
d="M234 -8q-45 0 -78.5 7t-56 23.5t-33.5 45t-11 72.5q0 57 13.5 90t47.5 47t95 14h56t67 -0.5t67 -1.5v32q0 45 -5.5 70.5t-22.5 38t-47.5 16t-80.5 3.5q-22 0 -53.5 -1.5t-59.5 -4t-43 -5.5v66q32 5 79.5 9.5t104.5 4.5q72 0 113 -12.5t61 -44.5q23 31 65.5 44t114.5 13
q59 0 96.5 -9t59.5 -28t32 -50t13 -74.5t3 -99.5v-26h-348q0 -53 5 -86t20.5 -51.5t49 -26t91.5 -7.5q24 0 53 1.5t57.5 4.5t51.5 6v-66q-20 -4 -50.5 -7t-64 -5t-65.5 -2q-58 0 -97 7.5t-63.5 25t-38.5 46.5q-21 -36 -54.5 -53t-70.5 -21.5t-73 -4.5zM253 59q30 0 56 3.5
t45.5 15t29.5 34.5q9 20 13 43t4 54v22h-170q-39 0 -60 -5.5t-28.5 -23.5t-7.5 -55t9 -56t34.5 -25.5t74.5 -6.5zM754 252q0 65 -4 104t-17 59.5t-39 27.5t-69 7q-48 0 -76 -6.5t-42 -23.5t-19 -48.5t-5 -83.5h307z" />
    <glyph glyph-name="ccedilla" unicode="&#xe7;" horiz-adv-x="460" 
d="M272 -8q-58 0 -95.5 10t-60 30t-33.5 51t-14.5 74t-3.5 98q0 57 4.5 100t17 74.5t35 50.5t58.5 28.5t89 9.5q35 0 73.5 -3.5t63.5 -9.5v-66q-23 4 -56.5 7t-60.5 3q-47 0 -75.5 -8t-43 -29t-19.5 -59t-5 -98q0 -61 5 -99.5t20.5 -59t44 -28t75.5 -7.5q28 0 61 3t59 7v-66
q-25 -5 -64 -9t-75 -4zM183 -190v5l68 203h55v-5l-42 -203h-81z" />
    <glyph glyph-name="egrave" unicode="&#xe8;" horiz-adv-x="559" 
d="M294 -8q-62 0 -103.5 8t-66.5 26.5t-38 49t-17 74.5t-4 104q0 71 6 121.5t27.5 82t67.5 46t124 14.5q59 0 96.5 -9t59.5 -28t32.5 -50.5t13.5 -75t3 -100.5v-27h-349q0 -52 5 -85t20.5 -51t49 -25t91.5 -7q24 0 53 1.5t58 4.5t52 6v-66q-21 -4 -51.5 -7t-64 -5t-65.5 -2z
M416 269v27q0 52 -6 82.5t-20.5 46t-39.5 20.5t-62 5q-48 0 -76 -6.5t-42 -23.5t-19 -49t-5 -85h289zM284 595l-129 135v5h88l101 -135v-5h-60z" />
    <glyph glyph-name="eacute" unicode="&#xe9;" horiz-adv-x="559" 
d="M294 -8q-62 0 -103.5 8t-66.5 26.5t-38 49t-17 74.5t-4 104q0 71 6 121.5t27.5 82t67.5 46t124 14.5q59 0 96.5 -9t59.5 -28t32.5 -50.5t13.5 -75t3 -100.5v-27h-349q0 -52 5 -85t20.5 -51t49 -25t91.5 -7q24 0 53 1.5t58 4.5t52 6v-66q-21 -4 -51.5 -7t-64 -5t-65.5 -2z
M416 269v27q0 52 -6 82.5t-20.5 46t-39.5 20.5t-62 5q-48 0 -76 -6.5t-42 -23.5t-19 -49t-5 -85h289zM209 595v5l101 135h88v-5l-129 -135h-60z" />
    <glyph glyph-name="ecircumflex" unicode="&#xea;" horiz-adv-x="559" 
d="M294 -8q-62 0 -103.5 8t-66.5 26.5t-38 49t-17 74.5t-4 104q0 71 6 121.5t27.5 82t67.5 46t124 14.5q59 0 96.5 -9t59.5 -28t32.5 -50.5t13.5 -75t3 -100.5v-27h-349q0 -52 5 -85t20.5 -51t49 -25t91.5 -7q24 0 53 1.5t58 4.5t52 6v-66q-21 -4 -51.5 -7t-64 -5t-65.5 -2z
M416 269v27q0 52 -6 82.5t-20.5 46t-39.5 20.5t-62 5q-48 0 -76 -6.5t-42 -23.5t-19 -49t-5 -85h289zM141 595v6l102 134h85l102 -134v-6h-56l-89 96l-88 -96h-56z" />
    <glyph glyph-name="edieresis" unicode="&#xeb;" horiz-adv-x="559" 
d="M294 -8q-62 0 -103.5 8t-66.5 26.5t-38 49t-17 74.5t-4 104q0 71 6 121.5t27.5 82t67.5 46t124 14.5q59 0 96.5 -9t59.5 -28t32.5 -50.5t13.5 -75t3 -100.5v-27h-349q0 -52 5 -85t20.5 -51t49 -25t91.5 -7q24 0 53 1.5t58 4.5t52 6v-66q-21 -4 -51.5 -7t-64 -5t-65.5 -2z
M416 269v27q0 52 -6 82.5t-20.5 46t-39.5 20.5t-62 5q-48 0 -76 -6.5t-42 -23.5t-19 -49t-5 -85h289zM143 628v80h77v-80h-77zM350 628v80h76v-80h-76z" />
    <glyph glyph-name="igrave" unicode="&#xec;" horiz-adv-x="254" 
d="M86 0v510h82v-510h-82zM126 595l-129 135v5h88l101 -135v-5h-60z" />
    <glyph glyph-name="iacute" unicode="&#xed;" horiz-adv-x="254" 
d="M86 0v510h82v-510h-82zM51 595v5l101 135h88v-5l-129 -135h-60z" />
    <glyph glyph-name="icircumflex" unicode="&#xee;" horiz-adv-x="254" 
d="M86 0v510h82v-510h-82zM-17 595v6l102 134h85l102 -134v-6h-56l-89 96l-88 -96h-56z" />
    <glyph glyph-name="idieresis" unicode="&#xef;" horiz-adv-x="254" 
d="M86 0v510h82v-510h-82zM-15 628v80h77v-80h-77zM192 628v80h76v-80h-76z" />
    <glyph glyph-name="eth" unicode="&#xf0;" horiz-adv-x="579" 
d="M288 -8q-63 0 -104 7.5t-65.5 25t-36 48t-14.5 75t-3 106.5q0 73 5.5 124t25 81.5t61 44t113.5 13.5q44 0 75.5 -6.5t52.5 -19.5l5 3q-13 37 -29 68.5t-35 57.5l-118 -20v56l82 13q-21 25 -40.5 42t-31.5 28v4h90q11 -9 27 -24t35 -37l107 18v-55l-71 -12
q25 -38 46.5 -89t32.5 -110q5 -27 8 -54.5t4.5 -54.5t1.5 -53q0 -68 -3 -115.5t-14 -80t-35 -50.5t-65.5 -26t-106.5 -8zM288 60q54 0 83 7t42 27t15.5 58.5t2.5 101.5q0 54 -2.5 91t-15.5 60t-42 33.5t-83 10.5q-53 0 -82.5 -7t-41.5 -27t-15 -59t-3 -102t3 -101.5
t15 -58.5t41.5 -27t82.5 -7z" />
    <glyph glyph-name="ntilde" unicode="&#xf1;" horiz-adv-x="599" 
d="M86 0v510h74l3 -73h6q11 24 30.5 42t53 28.5t85.5 10.5q57 0 91 -12t52.5 -36t24.5 -61.5t6 -89.5v-319h-81v291q0 52 -4.5 82.5t-17.5 46t-38 20.5t-66 5q-49 0 -77 -12.5t-41 -36t-16 -57t-3 -76.5v-263h-82zM128 602q0 39 4.5 64t20.5 37.5t49 12.5q28 0 55 -7.5
t54 -16.5q21 -7 40.5 -13t39.5 -6q22 0 26.5 11.5t4.5 42.5h47q0 -39 -4.5 -64t-20 -37.5t-48.5 -12.5q-30 0 -55.5 8t-53.5 16q-21 7 -41 13t-39 6q-22 0 -26.5 -11.5t-4.5 -42.5h-48z" />
    <glyph glyph-name="ograve" unicode="&#xf2;" horiz-adv-x="577" 
d="M288 -8q-63 0 -104.5 7.5t-65.5 24.5t-35.5 47t-14.5 75.5t-3 108.5t3 108.5t14.5 75.5t35.5 47t65.5 24.5t104.5 7.5q64 0 105 -7.5t65.5 -24.5t36 -47t14.5 -75.5t3 -108.5t-3 -108.5t-14.5 -75.5t-36 -47t-65.5 -24.5t-105 -7.5zM288 61q54 0 83 7t41.5 27t15 58.5
t2.5 101.5t-2.5 101.5t-15 58.5t-41.5 27t-83 7q-53 0 -82.5 -7t-41.5 -27t-15 -58.5t-3 -101.5t3 -101.5t15 -58.5t41.5 -27t82.5 -7zM287 595l-129 135v5h88l101 -135v-5h-60z" />
    <glyph glyph-name="oacute" unicode="&#xf3;" horiz-adv-x="577" 
d="M288 -8q-63 0 -104.5 7.5t-65.5 24.5t-35.5 47t-14.5 75.5t-3 108.5t3 108.5t14.5 75.5t35.5 47t65.5 24.5t104.5 7.5q64 0 105 -7.5t65.5 -24.5t36 -47t14.5 -75.5t3 -108.5t-3 -108.5t-14.5 -75.5t-36 -47t-65.5 -24.5t-105 -7.5zM288 61q54 0 83 7t41.5 27t15 58.5
t2.5 101.5t-2.5 101.5t-15 58.5t-41.5 27t-83 7q-53 0 -82.5 -7t-41.5 -27t-15 -58.5t-3 -101.5t3 -101.5t15 -58.5t41.5 -27t82.5 -7zM212 595v5l101 135h88v-5l-129 -135h-60z" />
    <glyph glyph-name="ocircumflex" unicode="&#xf4;" horiz-adv-x="577" 
d="M288 -8q-63 0 -104.5 7.5t-65.5 24.5t-35.5 47t-14.5 75.5t-3 108.5t3 108.5t14.5 75.5t35.5 47t65.5 24.5t104.5 7.5q64 0 105 -7.5t65.5 -24.5t36 -47t14.5 -75.5t3 -108.5t-3 -108.5t-14.5 -75.5t-36 -47t-65.5 -24.5t-105 -7.5zM288 61q54 0 83 7t41.5 27t15 58.5
t2.5 101.5t-2.5 101.5t-15 58.5t-41.5 27t-83 7q-53 0 -82.5 -7t-41.5 -27t-15 -58.5t-3 -101.5t3 -101.5t15 -58.5t41.5 -27t82.5 -7zM144 595v6l102 134h85l102 -134v-6h-56l-89 96l-88 -96h-56z" />
    <glyph glyph-name="otilde" unicode="&#xf5;" horiz-adv-x="577" 
d="M288 -8q-63 0 -104.5 7.5t-65.5 24.5t-35.5 47t-14.5 75.5t-3 108.5t3 108.5t14.5 75.5t35.5 47t65.5 24.5t104.5 7.5q64 0 105 -7.5t65.5 -24.5t36 -47t14.5 -75.5t3 -108.5t-3 -108.5t-14.5 -75.5t-36 -47t-65.5 -24.5t-105 -7.5zM288 61q54 0 83 7t41.5 27t15 58.5
t2.5 101.5t-2.5 101.5t-15 58.5t-41.5 27t-83 7q-53 0 -82.5 -7t-41.5 -27t-15 -58.5t-3 -101.5t3 -101.5t15 -58.5t41.5 -27t82.5 -7zM117 602q0 39 4.5 64t20.5 37.5t49 12.5q28 0 55 -7.5t54 -16.5q21 -7 40.5 -13t39.5 -6q22 0 26.5 11.5t4.5 42.5h47q0 -39 -4.5 -64
t-20 -37.5t-48.5 -12.5q-30 0 -55.5 8t-53.5 16q-21 7 -41 13t-39 6q-22 0 -26.5 -11.5t-4.5 -42.5h-48z" />
    <glyph glyph-name="odieresis" unicode="&#xf6;" horiz-adv-x="577" 
d="M288 -8q-63 0 -104.5 7.5t-65.5 24.5t-35.5 47t-14.5 75.5t-3 108.5t3 108.5t14.5 75.5t35.5 47t65.5 24.5t104.5 7.5q64 0 105 -7.5t65.5 -24.5t36 -47t14.5 -75.5t3 -108.5t-3 -108.5t-14.5 -75.5t-36 -47t-65.5 -24.5t-105 -7.5zM288 61q54 0 83 7t41.5 27t15 58.5
t2.5 101.5t-2.5 101.5t-15 58.5t-41.5 27t-83 7q-53 0 -82.5 -7t-41.5 -27t-15 -58.5t-3 -101.5t3 -101.5t15 -58.5t41.5 -27t82.5 -7zM146 628v80h77v-80h-77zM353 628v80h76v-80h-76z" />
    <glyph glyph-name="divide" unicode="&#xf7;" horiz-adv-x="540" 
d="M70 220v66h400v-66h-400zM234 26v78h72v-78h-72zM234 402v77h72v-77h-72z" />
    <glyph glyph-name="oslash" unicode="&#xf8;" horiz-adv-x="577" 
d="M65 -55l379 620h68l-381 -620h-66zM288 -8q-63 0 -104.5 7.5t-65.5 24.5t-35.5 47t-14.5 75.5t-3 108.5t3 108.5t14.5 75.5t35.5 47t65.5 24.5t104.5 7.5q64 0 105 -7.5t65.5 -24.5t36 -47t14.5 -75.5t3 -108.5t-3 -108.5t-14.5 -75.5t-36 -47t-65.5 -24.5t-105 -7.5z
M288 61q54 0 83 7t41.5 27t15 58.5t2.5 101.5t-2.5 101.5t-15 58.5t-41.5 27t-83 7q-53 0 -82.5 -7t-41.5 -27t-15 -58.5t-3 -101.5t3 -101.5t15 -58.5t41.5 -27t82.5 -7z" />
    <glyph glyph-name="ugrave" unicode="&#xf9;" horiz-adv-x="599" 
d="M260 -8q-56 0 -90.5 12t-52.5 36t-24.5 61.5t-6.5 89.5v319h82v-291q0 -51 4 -82t17.5 -46.5t38.5 -20.5t65 -5q50 0 78 12.5t40.5 36t16 57t3.5 76.5v263h81v-510h-73l-3 73h-7q-10 -24 -29.5 -42t-53.5 -28.5t-86 -10.5zM298 595l-129 135v5h88l101 -135v-5h-60z" />
    <glyph glyph-name="uacute" unicode="&#xfa;" horiz-adv-x="599" 
d="M260 -8q-56 0 -90.5 12t-52.5 36t-24.5 61.5t-6.5 89.5v319h82v-291q0 -51 4 -82t17.5 -46.5t38.5 -20.5t65 -5q50 0 78 12.5t40.5 36t16 57t3.5 76.5v263h81v-510h-73l-3 73h-7q-10 -24 -29.5 -42t-53.5 -28.5t-86 -10.5zM223 595v5l101 135h88v-5l-129 -135h-60z" />
    <glyph glyph-name="ucircumflex" unicode="&#xfb;" horiz-adv-x="599" 
d="M260 -8q-56 0 -90.5 12t-52.5 36t-24.5 61.5t-6.5 89.5v319h82v-291q0 -51 4 -82t17.5 -46.5t38.5 -20.5t65 -5q50 0 78 12.5t40.5 36t16 57t3.5 76.5v263h81v-510h-73l-3 73h-7q-10 -24 -29.5 -42t-53.5 -28.5t-86 -10.5zM155 595v6l102 134h85l102 -134v-6h-56l-89 96
l-88 -96h-56z" />
    <glyph glyph-name="udieresis" unicode="&#xfc;" horiz-adv-x="599" 
d="M260 -8q-56 0 -90.5 12t-52.5 36t-24.5 61.5t-6.5 89.5v319h82v-291q0 -51 4 -82t17.5 -46.5t38.5 -20.5t65 -5q50 0 78 12.5t40.5 36t16 57t3.5 76.5v263h81v-510h-73l-3 73h-7q-10 -24 -29.5 -42t-53.5 -28.5t-86 -10.5zM157 628v80h77v-80h-77zM364 628v80h76v-80h-76
z" />
    <glyph glyph-name="yacute" unicode="&#xfd;" horiz-adv-x="599" 
d="M282 -206q-29 0 -60.5 1.5t-60 3t-50.5 4.5v65q33 -1 60.5 -2.5t51 -2t42.5 -0.5q58 0 91.5 9t49.5 29.5t20.5 54.5t4.5 83v30h-6q-8 -20 -27 -37t-52 -27t-86 -10q-56 0 -90.5 11.5t-52.5 36t-24.5 61.5t-6.5 88v318h82v-289q0 -52 4 -83t17.5 -46.5t38.5 -20.5t65 -5
q50 0 78 12.5t40.5 36.5t16 57.5t3.5 75.5v262h81v-447q0 -73 -7.5 -124.5t-31 -83t-69.5 -46.5t-122 -15zM223 595v5l101 135h88v-5l-129 -135h-60z" />
    <glyph glyph-name="thorn" unicode="&#xfe;" horiz-adv-x="590" 
d="M86 -189v932h82v-300h5q14 30 37.5 46t55.5 22.5t71 6.5q55 0 91.5 -12t57.5 -41.5t30 -80.5t9 -128q0 -78 -8.5 -129.5t-29.5 -80.5t-57 -41.5t-91 -12.5q-61 0 -103 15.5t-63 57.5h-5v-254h-82zM305 65q46 0 73.5 6t41.5 25.5t19 57t5 101.5t-5 102t-19 57t-41.5 25.5
t-73.5 6.5q-49 0 -79 -14t-43 -45q-11 -24 -13 -56.5t-2 -75.5q0 -41 2 -72t9 -50q14 -37 44 -52.5t82 -15.5z" />
    <glyph glyph-name="ydieresis" unicode="&#xff;" horiz-adv-x="599" 
d="M282 -206q-29 0 -60.5 1.5t-60 3t-50.5 4.5v65q33 -1 60.5 -2.5t51 -2t42.5 -0.5q58 0 91.5 9t49.5 29.5t20.5 54.5t4.5 83v30h-6q-8 -20 -27 -37t-52 -27t-86 -10q-56 0 -90.5 11.5t-52.5 36t-24.5 61.5t-6.5 88v318h82v-289q0 -52 4 -83t17.5 -46.5t38.5 -20.5t65 -5
q50 0 78 12.5t40.5 36.5t16 57.5t3.5 75.5v262h81v-447q0 -73 -7.5 -124.5t-31 -83t-69.5 -46.5t-122 -15zM157 628v80h77v-80h-77zM364 628v80h76v-80h-76z" />
    <glyph glyph-name="Amacron" unicode="&#x100;" horiz-adv-x="684" 
d="M28 0l260 688h108l259 -688h-89l-71 188h-309l-71 -188h-87zM212 263h257l-126 337h-5zM197 806v57h289v-57h-289z" />
    <glyph glyph-name="amacron" unicode="&#x101;" horiz-adv-x="569" 
d="M223 -8q-56 0 -93.5 13t-56 45t-18.5 90t13.5 91.5t47.5 47.5t95 14q10 0 31.5 -0.5t49.5 -1t56.5 -1t52.5 -1.5v32q0 45 -5.5 70.5t-22.5 38t-47.5 16t-80.5 3.5q-22 0 -52 -1.5t-58.5 -4t-45.5 -5.5v66q38 7 85.5 10.5t98.5 3.5q54 0 91.5 -6.5t61 -20.5t35.5 -37
t16.5 -56t4.5 -77v-321h-73l-3 72h-6q-16 -35 -45.5 -52.5t-64.5 -22.5t-67 -5zM253 59q29 0 54 3.5t44 13.5t30 30q11 21 15.5 45.5t4.5 57.5v26h-170q-39 0 -60 -6t-28.5 -25t-7.5 -57q0 -37 9 -56t34.5 -25.5t74.5 -6.5zM142 628v57h289v-57h-289z" />
    <glyph glyph-name="Abreve" unicode="&#x102;" horiz-adv-x="684" 
d="M28 0l260 688h108l259 -688h-89l-71 188h-309l-71 -188h-87zM212 263h257l-126 337h-5zM341 764q-49 0 -77 10.5t-40.5 30t-16 45.5t-3.5 58h53q0 -30 3.5 -51t21 -31.5t59.5 -10.5t59.5 10.5t21.5 31.5t4 51h53q0 -32 -3.5 -58t-16.5 -45.5t-41 -30t-77 -10.5z" />
    <glyph glyph-name="abreve" unicode="&#x103;" horiz-adv-x="569" 
d="M223 -8q-56 0 -93.5 13t-56 45t-18.5 90t13.5 91.5t47.5 47.5t95 14q10 0 31.5 -0.5t49.5 -1t56.5 -1t52.5 -1.5v32q0 45 -5.5 70.5t-22.5 38t-47.5 16t-80.5 3.5q-22 0 -52 -1.5t-58.5 -4t-45.5 -5.5v66q38 7 85.5 10.5t98.5 3.5q54 0 91.5 -6.5t61 -20.5t35.5 -37
t16.5 -56t4.5 -77v-321h-73l-3 72h-6q-16 -35 -45.5 -52.5t-64.5 -22.5t-67 -5zM253 59q29 0 54 3.5t44 13.5t30 30q11 21 15.5 45.5t4.5 57.5v26h-170q-39 0 -60 -6t-28.5 -25t-7.5 -57q0 -37 9 -56t34.5 -25.5t74.5 -6.5zM285 586q-49 0 -77 11t-40.5 30t-16 45.5
t-3.5 57.5h53q0 -30 3.5 -50.5t21 -31.5t59.5 -11t59.5 11t21.5 31.5t4 50.5h53q0 -31 -3.5 -57.5t-16.5 -45.5t-41 -30t-77 -11z" />
    <glyph glyph-name="Aogonek" unicode="&#x104;" horiz-adv-x="684" 
d="M28 0l260 688h108l259 -688h-89l-71 188h-309l-71 -188h-87zM212 263h257l-126 337h-5zM618 -200q-37 0 -58 10.5t-29.5 28t-8.5 38.5q0 32 21 68.5t54 64.5l59 -10q-13 -10 -28 -28t-25 -38.5t-10 -39.5q0 -17 10 -28.5t37 -11.5h7.5t9.5 1v-53q-10 -1 -19.5 -1.5
t-19.5 -0.5z" />
    <glyph glyph-name="aogonek" unicode="&#x105;" horiz-adv-x="569" 
d="M223 -8q-56 0 -93.5 13t-56 45t-18.5 90t13.5 91.5t47.5 47.5t95 14q10 0 31.5 -0.5t49.5 -1t56.5 -1t52.5 -1.5v32q0 45 -5.5 70.5t-22.5 38t-47.5 16t-80.5 3.5q-22 0 -52 -1.5t-58.5 -4t-45.5 -5.5v66q38 7 85.5 10.5t98.5 3.5q54 0 91.5 -6.5t61 -20.5t35.5 -37
t16.5 -56t4.5 -77v-321h-73l-3 72h-6q-16 -35 -45.5 -52.5t-64.5 -22.5t-67 -5zM253 59q29 0 54 3.5t44 13.5t30 30q11 21 15.5 45.5t4.5 57.5v26h-170q-39 0 -60 -6t-28.5 -25t-7.5 -57q0 -37 9 -56t34.5 -25.5t74.5 -6.5zM444 -200q-37 0 -58 10.5t-29.5 28t-8.5 38.5
q0 32 21 68.5t54 64.5l59 -10q-13 -10 -28 -28t-25 -38.5t-10 -39.5q0 -17 10 -28.5t37 -11.5h7.5t9.5 1v-53q-10 -1 -19.5 -1.5t-19.5 -0.5z" />
    <glyph glyph-name="Cacute" unicode="&#x106;" horiz-adv-x="575" 
d="M353 -8q-72 0 -121 8.5t-80 30t-47.5 61t-22.5 101.5t-6 151t6 150.5t22.5 101t47.5 61.5t80 30.5t121 8.5q28 0 57.5 -2t56.5 -5t47 -8v-69q-23 3 -47.5 5.5t-48.5 3.5t-43 1q-58 0 -97 -5t-62 -19.5t-34.5 -45t-15.5 -81t-4 -127.5t4 -127.5t15.5 -81t34.5 -45
t62 -19.5t97 -5q34 0 74 3t69 7v-71q-21 -4 -49.5 -6.5t-58.5 -4.5t-57 -2zM279 773v5l101 135h88v-5l-129 -135h-60z" />
    <glyph glyph-name="cacute" unicode="&#x107;" horiz-adv-x="460" 
d="M272 -8q-58 0 -95.5 10t-60 30t-33.5 51t-14.5 74t-3.5 98q0 57 4.5 100t17 74.5t35 50.5t58.5 28.5t89 9.5q35 0 73.5 -3.5t63.5 -9.5v-66q-23 4 -56.5 7t-60.5 3q-47 0 -75.5 -8t-43 -29t-19.5 -59t-5 -98q0 -61 5 -99.5t20.5 -59t44 -28t75.5 -7.5q28 0 61 3t59 7v-66
q-25 -5 -64 -9t-75 -4zM178 595v5l101 135h88v-5l-129 -135h-60z" />
    <glyph glyph-name="Ccircumflex" unicode="&#x108;" horiz-adv-x="575" 
d="M353 -8q-72 0 -121 8.5t-80 30t-47.5 61t-22.5 101.5t-6 151t6 150.5t22.5 101t47.5 61.5t80 30.5t121 8.5q28 0 57.5 -2t56.5 -5t47 -8v-69q-23 3 -47.5 5.5t-48.5 3.5t-43 1q-58 0 -97 -5t-62 -19.5t-34.5 -45t-15.5 -81t-4 -127.5t4 -127.5t15.5 -81t34.5 -45
t62 -19.5t97 -5q34 0 74 3t69 7v-71q-21 -4 -49.5 -6.5t-58.5 -4.5t-57 -2zM187 773v6l102 135h85l102 -135v-6h-56l-89 97l-88 -97h-56z" />
    <glyph glyph-name="ccircumflex" unicode="&#x109;" horiz-adv-x="460" 
d="M272 -8q-58 0 -95.5 10t-60 30t-33.5 51t-14.5 74t-3.5 98q0 57 4.5 100t17 74.5t35 50.5t58.5 28.5t89 9.5q35 0 73.5 -3.5t63.5 -9.5v-66q-23 4 -56.5 7t-60.5 3q-47 0 -75.5 -8t-43 -29t-19.5 -59t-5 -98q0 -61 5 -99.5t20.5 -59t44 -28t75.5 -7.5q28 0 61 3t59 7v-66
q-25 -5 -64 -9t-75 -4zM110 595v6l102 134h85l102 -134v-6h-56l-89 96l-88 -96h-56z" />
    <glyph glyph-name="Cdotaccent" unicode="&#x10a;" horiz-adv-x="575" 
d="M353 -8q-72 0 -121 8.5t-80 30t-47.5 61t-22.5 101.5t-6 151t6 150.5t22.5 101t47.5 61.5t80 30.5t121 8.5q28 0 57.5 -2t56.5 -5t47 -8v-69q-23 3 -47.5 5.5t-48.5 3.5t-43 1q-58 0 -97 -5t-62 -19.5t-34.5 -45t-15.5 -81t-4 -127.5t4 -127.5t15.5 -81t34.5 -45
t62 -19.5t97 -5q34 0 74 3t69 7v-71q-21 -4 -49.5 -6.5t-58.5 -4.5t-57 -2zM293 806v81h77v-81h-77z" />
    <glyph glyph-name="cdotaccent" unicode="&#x10b;" horiz-adv-x="460" 
d="M272 -8q-58 0 -95.5 10t-60 30t-33.5 51t-14.5 74t-3.5 98q0 57 4.5 100t17 74.5t35 50.5t58.5 28.5t89 9.5q35 0 73.5 -3.5t63.5 -9.5v-66q-23 4 -56.5 7t-60.5 3q-47 0 -75.5 -8t-43 -29t-19.5 -59t-5 -98q0 -61 5 -99.5t20.5 -59t44 -28t75.5 -7.5q28 0 61 3t59 7v-66
q-25 -5 -64 -9t-75 -4zM216 628v80h77v-80h-77z" />
    <glyph glyph-name="Ccaron" unicode="&#x10c;" horiz-adv-x="575" 
d="M353 -8q-72 0 -121 8.5t-80 30t-47.5 61t-22.5 101.5t-6 151t6 150.5t22.5 101t47.5 61.5t80 30.5t121 8.5q28 0 57.5 -2t56.5 -5t47 -8v-69q-23 3 -47.5 5.5t-48.5 3.5t-43 1q-58 0 -97 -5t-62 -19.5t-34.5 -45t-15.5 -81t-4 -127.5t4 -127.5t15.5 -81t34.5 -45
t62 -19.5t97 -5q34 0 74 3t69 7v-71q-21 -4 -49.5 -6.5t-58.5 -4.5t-57 -2zM289 773l-102 134v6h56l88 -97l89 97h56v-6l-102 -134h-85z" />
    <glyph glyph-name="ccaron" unicode="&#x10d;" horiz-adv-x="460" 
d="M272 -8q-58 0 -95.5 10t-60 30t-33.5 51t-14.5 74t-3.5 98q0 57 4.5 100t17 74.5t35 50.5t58.5 28.5t89 9.5q35 0 73.5 -3.5t63.5 -9.5v-66q-23 4 -56.5 7t-60.5 3q-47 0 -75.5 -8t-43 -29t-19.5 -59t-5 -98q0 -61 5 -99.5t20.5 -59t44 -28t75.5 -7.5q28 0 61 3t59 7v-66
q-25 -5 -64 -9t-75 -4zM212 595l-102 134v6h56l88 -97l89 97h56v-6l-102 -134h-85z" />
    <glyph glyph-name="Dcaron" unicode="&#x10e;" horiz-adv-x="689" 
d="M100 0v688h218q85 0 139 -8t85.5 -29t46.5 -60t19 -99t4 -148t-4 -148t-19 -99t-46.5 -60t-85.5 -29t-139 -8h-218zM186 74h118q63 0 104 3t65 15.5t35 41t14.5 79.5t3.5 131t-3.5 130.5t-15 79.5t-35.5 41.5t-64.5 15.5t-103.5 3h-118v-540zM302 773l-102 134v6h56
l88 -97l89 97h56v-6l-102 -134h-85z" />
    <glyph glyph-name="dcaron" unicode="&#x10f;" horiz-adv-x="590" 
d="M253 -8q-55 0 -91.5 12t-57.5 41.5t-30 80.5t-9 128q0 78 8.5 129.5t29.5 80.5t57 41.5t91 12.5q41 0 73 -6.5t55.5 -22.5t37.5 -44h5v298h82v-743h-73l-4 73h-6q-14 -35 -40.5 -52.5t-59.5 -23t-68 -5.5zM285 64q51 0 81 14t42 44q10 28 12 61t2 78q0 37 -2 67.5
t-11 53.5q-13 34 -43 48.5t-83 14.5q-45 0 -72 -6t-41 -25.5t-19 -57t-5 -101.5t5 -102t19 -57t41.5 -25.5t73.5 -6.5zM534 444l14 168v76h71v-76l-34 -168h-51z" />
    <glyph glyph-name="Dcroat" unicode="&#x110;" horiz-adv-x="689" 
d="M100 0v314h-69v69h69v305h218q85 0 139 -8t85.5 -29t46.5 -60t19 -99t4 -148t-4 -148t-19 -99t-46.5 -60t-85.5 -29t-139 -8h-218zM186 74h118q63 0 104 3t65 15.5t35 41t14.5 79.5t3.5 131t-3.5 130.5t-15 79.5t-35.5 41.5t-64.5 15.5t-103.5 3h-118v-231h110v-69h-110
v-240z" />
    <glyph glyph-name="dcroat" unicode="&#x111;" horiz-adv-x="590" 
d="M286 633v55h284v-55h-284zM253 -8q-55 0 -91.5 12t-57.5 41.5t-30 80.5t-9 128q0 78 8.5 129.5t29.5 80.5t57 41.5t91 12.5q41 0 73 -6.5t55.5 -22.5t37.5 -44h5v298h82v-743h-73l-4 73h-6q-14 -35 -40.5 -52.5t-59.5 -23t-68 -5.5zM285 64q51 0 81 14t42 44q10 28 12 61
t2 78q0 37 -2 67.5t-11 53.5q-13 34 -43 48.5t-83 14.5q-45 0 -72 -6t-41 -25.5t-19 -57t-5 -101.5t5 -102t19 -57t41.5 -25.5t73.5 -6.5z" />
    <glyph glyph-name="Emacron" unicode="&#x112;" horiz-adv-x="603" 
d="M100 0v688h447v-74h-361v-229h314v-75h-314v-236h361v-74h-447zM185 806v57h289v-57h-289z" />
    <glyph glyph-name="emacron" unicode="&#x113;" horiz-adv-x="559" 
d="M294 -8q-62 0 -103.5 8t-66.5 26.5t-38 49t-17 74.5t-4 104q0 71 6 121.5t27.5 82t67.5 46t124 14.5q59 0 96.5 -9t59.5 -28t32.5 -50.5t13.5 -75t3 -100.5v-27h-349q0 -52 5 -85t20.5 -51t49 -25t91.5 -7q24 0 53 1.5t58 4.5t52 6v-66q-21 -4 -51.5 -7t-64 -5t-65.5 -2z
M416 269v27q0 52 -6 82.5t-20.5 46t-39.5 20.5t-62 5q-48 0 -76 -6.5t-42 -23.5t-19 -49t-5 -85h289zM141 628v57h289v-57h-289z" />
    <glyph glyph-name="Ebreve" unicode="&#x114;" horiz-adv-x="603" 
d="M100 0v688h447v-74h-361v-229h314v-75h-314v-236h361v-74h-447zM329 764q-49 0 -77 10.5t-40.5 30t-16 45.5t-3.5 58h53q0 -30 3.5 -51t21 -31.5t59.5 -10.5t59.5 10.5t21.5 31.5t4 51h53q0 -32 -3.5 -58t-16.5 -45.5t-41 -30t-77 -10.5z" />
    <glyph glyph-name="ebreve" unicode="&#x115;" horiz-adv-x="559" 
d="M294 -8q-62 0 -103.5 8t-66.5 26.5t-38 49t-17 74.5t-4 104q0 71 6 121.5t27.5 82t67.5 46t124 14.5q59 0 96.5 -9t59.5 -28t32.5 -50.5t13.5 -75t3 -100.5v-27h-349q0 -52 5 -85t20.5 -51t49 -25t91.5 -7q24 0 53 1.5t58 4.5t52 6v-66q-21 -4 -51.5 -7t-64 -5t-65.5 -2z
M416 269v27q0 52 -6 82.5t-20.5 46t-39.5 20.5t-62 5q-48 0 -76 -6.5t-42 -23.5t-19 -49t-5 -85h289zM284 586q-49 0 -77 11t-40.5 30t-16 45.5t-3.5 57.5h53q0 -30 3.5 -50.5t21 -31.5t59.5 -11t59.5 11t21.5 31.5t4 50.5h53q0 -31 -3.5 -57.5t-16.5 -45.5t-41 -30t-77 -11
z" />
    <glyph glyph-name="Edotaccent" unicode="&#x116;" horiz-adv-x="603" 
d="M100 0v688h447v-74h-361v-229h314v-75h-314v-236h361v-74h-447zM291 806v81h77v-81h-77z" />
    <glyph glyph-name="edotaccent" unicode="&#x117;" horiz-adv-x="559" 
d="M294 -8q-62 0 -103.5 8t-66.5 26.5t-38 49t-17 74.5t-4 104q0 71 6 121.5t27.5 82t67.5 46t124 14.5q59 0 96.5 -9t59.5 -28t32.5 -50.5t13.5 -75t3 -100.5v-27h-349q0 -52 5 -85t20.5 -51t49 -25t91.5 -7q24 0 53 1.5t58 4.5t52 6v-66q-21 -4 -51.5 -7t-64 -5t-65.5 -2z
M416 269v27q0 52 -6 82.5t-20.5 46t-39.5 20.5t-62 5q-48 0 -76 -6.5t-42 -23.5t-19 -49t-5 -85h289zM247 628v80h77v-80h-77z" />
    <glyph glyph-name="Eogonek" unicode="&#x118;" horiz-adv-x="603" 
d="M100 0v688h447v-74h-361v-229h314v-75h-314v-236h361v-74h-447zM509 -200q-37 0 -58 10.5t-29.5 28t-8.5 38.5q0 32 21 68.5t54 64.5l59 -10q-13 -10 -28 -28t-25 -38.5t-10 -39.5q0 -17 10 -28.5t37 -11.5h7.5t9.5 1v-53q-10 -1 -19.5 -1.5t-19.5 -0.5z" />
    <glyph glyph-name="eogonek" unicode="&#x119;" horiz-adv-x="559" 
d="M294 -8q-62 0 -103.5 8t-66.5 26.5t-38 49t-17 74.5t-4 104q0 71 6 121.5t27.5 82t67.5 46t124 14.5q59 0 96.5 -9t59.5 -28t32.5 -50.5t13.5 -75t3 -100.5v-27h-349q0 -52 5 -85t20.5 -51t49 -25t91.5 -7q24 0 53 1.5t58 4.5t52 6v-66q-21 -4 -51.5 -7t-64 -5t-65.5 -2z
M416 269v27q0 52 -6 82.5t-20.5 46t-39.5 20.5t-62 5q-48 0 -76 -6.5t-42 -23.5t-19 -49t-5 -85h289zM437 -194q-37 0 -58 10.5t-29.5 28t-8.5 38.5q0 32 21 68.5t54 64.5l59 -10q-13 -10 -28 -28t-25 -38.5t-10 -39.5q0 -17 10 -28.5t37 -11.5h7.5t9.5 1v-53
q-10 -1 -19.5 -1.5t-19.5 -0.5z" />
    <glyph glyph-name="Ecaron" unicode="&#x11a;" horiz-adv-x="603" 
d="M100 0v688h447v-74h-361v-229h314v-75h-314v-236h361v-74h-447zM287 773l-102 134v6h56l88 -97l89 97h56v-6l-102 -134h-85z" />
    <glyph glyph-name="ecaron" unicode="&#x11b;" horiz-adv-x="559" 
d="M294 -8q-62 0 -103.5 8t-66.5 26.5t-38 49t-17 74.5t-4 104q0 71 6 121.5t27.5 82t67.5 46t124 14.5q59 0 96.5 -9t59.5 -28t32.5 -50.5t13.5 -75t3 -100.5v-27h-349q0 -52 5 -85t20.5 -51t49 -25t91.5 -7q24 0 53 1.5t58 4.5t52 6v-66q-21 -4 -51.5 -7t-64 -5t-65.5 -2z
M416 269v27q0 52 -6 82.5t-20.5 46t-39.5 20.5t-62 5q-48 0 -76 -6.5t-42 -23.5t-19 -49t-5 -85h289zM243 595l-102 134v6h56l88 -97l89 97h56v-6l-102 -134h-85z" />
    <glyph glyph-name="Gcircumflex" unicode="&#x11c;" horiz-adv-x="676" 
d="M368 -8q-73 0 -124 8.5t-83.5 30.5t-51 61.5t-26 101t-7.5 150.5t7.5 150.5t26.5 101t52 61.5t83.5 30.5t122.5 8.5q34 0 73 -3t76.5 -7t67.5 -10v-70q-32 5 -65 8.5t-61.5 5.5t-48.5 2q-62 0 -105.5 -3t-71.5 -16t-43 -42.5t-21.5 -81.5t-6.5 -135q0 -73 4 -122.5
t16.5 -80.5t35 -48t60 -22.5t92.5 -5.5q21 0 46 1t49 3t40 4v224h-156v73h239v-358q-33 -6 -72.5 -10.5t-78 -7t-69.5 -2.5zM214 773v6l102 135h85l102 -135v-6h-56l-89 97l-88 -97h-56z" />
    <glyph glyph-name="gcircumflex" unicode="&#x11d;" horiz-adv-x="590" 
d="M273 -206q-32 0 -65.5 1.5t-63.5 3.5t-51 4v66q24 -2 53 -3.5t57.5 -2t51.5 -0.5q58 0 91 8t50 28t21.5 56t4.5 92v21h-5q-13 -28 -36 -44t-55 -22.5t-73 -6.5q-56 0 -92.5 12t-57.5 40.5t-29.5 79.5t-8.5 128q0 78 9 129t30 80t57.5 41.5t92.5 12.5q34 0 67 -5.5
t59.5 -23.5t40.5 -52h6l4 73h73v-444q0 -74 -7.5 -126t-30.5 -84t-69 -47t-124 -15zM285 66q50 0 79 13.5t42 42.5q11 24 13.5 57t2.5 77q0 42 -2 74.5t-13 55.5q-13 32 -43 46t-79 14q-46 0 -73.5 -6.5t-41.5 -25.5t-19 -57t-5 -101t5 -101t19 -57t41.5 -25.5t73.5 -6.5z
M151 595v6l102 134h85l102 -134v-6h-56l-89 96l-88 -96h-56z" />
    <glyph glyph-name="Gbreve" unicode="&#x11e;" horiz-adv-x="676" 
d="M368 -8q-73 0 -124 8.5t-83.5 30.5t-51 61.5t-26 101t-7.5 150.5t7.5 150.5t26.5 101t52 61.5t83.5 30.5t122.5 8.5q34 0 73 -3t76.5 -7t67.5 -10v-70q-32 5 -65 8.5t-61.5 5.5t-48.5 2q-62 0 -105.5 -3t-71.5 -16t-43 -42.5t-21.5 -81.5t-6.5 -135q0 -73 4 -122.5
t16.5 -80.5t35 -48t60 -22.5t92.5 -5.5q21 0 46 1t49 3t40 4v224h-156v73h239v-358q-33 -6 -72.5 -10.5t-78 -7t-69.5 -2.5zM357 764q-49 0 -77 10.5t-40.5 30t-16 45.5t-3.5 58h53q0 -30 3.5 -51t21 -31.5t59.5 -10.5t59.5 10.5t21.5 31.5t4 51h53q0 -32 -3.5 -58
t-16.5 -45.5t-41 -30t-77 -10.5z" />
    <glyph glyph-name="gbreve" unicode="&#x11f;" horiz-adv-x="590" 
d="M273 -206q-32 0 -65.5 1.5t-63.5 3.5t-51 4v66q24 -2 53 -3.5t57.5 -2t51.5 -0.5q58 0 91 8t50 28t21.5 56t4.5 92v21h-5q-13 -28 -36 -44t-55 -22.5t-73 -6.5q-56 0 -92.5 12t-57.5 40.5t-29.5 79.5t-8.5 128q0 78 9 129t30 80t57.5 41.5t92.5 12.5q34 0 67 -5.5
t59.5 -23.5t40.5 -52h6l4 73h73v-444q0 -74 -7.5 -126t-30.5 -84t-69 -47t-124 -15zM285 66q50 0 79 13.5t42 42.5q11 24 13.5 57t2.5 77q0 42 -2 74.5t-13 55.5q-13 32 -43 46t-79 14q-46 0 -73.5 -6.5t-41.5 -25.5t-19 -57t-5 -101t5 -101t19 -57t41.5 -25.5t73.5 -6.5z
M294 586q-49 0 -77 11t-40.5 30t-16 45.5t-3.5 57.5h53q0 -30 3.5 -50.5t21 -31.5t59.5 -11t59.5 11t21.5 31.5t4 50.5h53q0 -31 -3.5 -57.5t-16.5 -45.5t-41 -30t-77 -11z" />
    <glyph glyph-name="Gdotaccent" unicode="&#x120;" horiz-adv-x="676" 
d="M368 -8q-73 0 -124 8.5t-83.5 30.5t-51 61.5t-26 101t-7.5 150.5t7.5 150.5t26.5 101t52 61.5t83.5 30.5t122.5 8.5q34 0 73 -3t76.5 -7t67.5 -10v-70q-32 5 -65 8.5t-61.5 5.5t-48.5 2q-62 0 -105.5 -3t-71.5 -16t-43 -42.5t-21.5 -81.5t-6.5 -135q0 -73 4 -122.5
t16.5 -80.5t35 -48t60 -22.5t92.5 -5.5q21 0 46 1t49 3t40 4v224h-156v73h239v-358q-33 -6 -72.5 -10.5t-78 -7t-69.5 -2.5zM319 806v81h77v-81h-77z" />
    <glyph glyph-name="gdotaccent" unicode="&#x121;" horiz-adv-x="590" 
d="M273 -206q-32 0 -65.5 1.5t-63.5 3.5t-51 4v66q24 -2 53 -3.5t57.5 -2t51.5 -0.5q58 0 91 8t50 28t21.5 56t4.5 92v21h-5q-13 -28 -36 -44t-55 -22.5t-73 -6.5q-56 0 -92.5 12t-57.5 40.5t-29.5 79.5t-8.5 128q0 78 9 129t30 80t57.5 41.5t92.5 12.5q34 0 67 -5.5
t59.5 -23.5t40.5 -52h6l4 73h73v-444q0 -74 -7.5 -126t-30.5 -84t-69 -47t-124 -15zM285 66q50 0 79 13.5t42 42.5q11 24 13.5 57t2.5 77q0 42 -2 74.5t-13 55.5q-13 32 -43 46t-79 14q-46 0 -73.5 -6.5t-41.5 -25.5t-19 -57t-5 -101t5 -101t19 -57t41.5 -25.5t73.5 -6.5z
M256 628v80h77v-80h-77z" />
    <glyph glyph-name="uni0122" unicode="&#x122;" horiz-adv-x="676" 
d="M368 -8q-73 0 -124 8.5t-83.5 30.5t-51 61.5t-26 101t-7.5 150.5t7.5 150.5t26.5 101t52 61.5t83.5 30.5t122.5 8.5q34 0 73 -3t76.5 -7t67.5 -10v-70q-32 5 -65 8.5t-61.5 5.5t-48.5 2q-62 0 -105.5 -3t-71.5 -16t-43 -42.5t-21.5 -81.5t-6.5 -135q0 -73 4 -122.5
t16.5 -80.5t35 -48t60 -22.5t92.5 -5.5q21 0 46 1t49 3t40 4v224h-156v73h239v-358q-33 -6 -72.5 -10.5t-78 -7t-69.5 -2.5zM292 -283v38q25 0 37 4t16.5 15t4.5 31v17h-37v95h91v-80q0 -37 -4 -60t-15.5 -36t-34 -18.5t-58.5 -5.5z" />
    <glyph glyph-name="uni0123" unicode="&#x123;" horiz-adv-x="590" 
d="M273 -206q-32 0 -65.5 1.5t-63.5 3.5t-51 4v66q24 -2 53 -3.5t57.5 -2t51.5 -0.5q58 0 91 8t50 28t21.5 56t4.5 92v21h-5q-13 -28 -36 -44t-55 -22.5t-73 -6.5q-56 0 -92.5 12t-57.5 40.5t-29.5 79.5t-8.5 128q0 78 9 129t30 80t57.5 41.5t92.5 12.5q34 0 67 -5.5
t59.5 -23.5t40.5 -52h6l4 73h73v-444q0 -74 -7.5 -126t-30.5 -84t-69 -47t-124 -15zM285 66q50 0 79 13.5t42 42.5q11 24 13.5 57t2.5 77q0 42 -2 74.5t-13 55.5q-13 32 -43 46t-79 14q-46 0 -73.5 -6.5t-41.5 -25.5t-19 -57t-5 -101t5 -101t19 -57t41.5 -25.5t73.5 -6.5z
M250 578v80q0 37 4 60t16 36t34 18.5t58 5.5v-38q-36 0 -47 -9.5t-11 -40.5v-17h37v-95h-91z" />
    <glyph glyph-name="Hcircumflex" unicode="&#x124;" horiz-adv-x="731" 
d="M100 0v688h86v-303h360v303h86v-688h-86v309h-360v-309h-86zM221 773v6l102 135h85l102 -135v-6h-56l-89 97l-88 -97h-56z" />
    <glyph glyph-name="hcircumflex" unicode="&#x125;" horiz-adv-x="599" 
d="M86 0v743h82v-300h5q10 21 29 38t52 26.5t84 9.5q56 0 90.5 -11.5t53 -35.5t24.5 -61.5t6 -89.5v-319h-81v291q0 52 -4.5 82.5t-17.5 46t-38 20.5t-66 5q-49 0 -77 -12.5t-41 -36t-16 -57t-3 -76.5v-263h-82zM-17 773v6l102 135h85l102 -135v-6h-56l-89 97l-88 -97h-56z
" />
    <glyph glyph-name="Hbar" unicode="&#x126;" horiz-adv-x="731" 
d="M100 0v688h86v-136h360v136h86v-688h-86v278h-360v-278h-86zM186 354h360v129h-360v-129z" />
    <glyph glyph-name="hbar" unicode="&#x127;" horiz-adv-x="599" 
d="M20 633v55h284v-55h-284zM86 0v743h82v-300h5q10 21 29 38t52 26.5t84 9.5q56 0 90.5 -11.5t53 -35.5t24.5 -61.5t6 -89.5v-319h-81v291q0 52 -4.5 82.5t-17.5 46t-38 20.5t-66 5q-49 0 -77 -12.5t-41 -36t-16 -57t-3 -76.5v-263h-82z" />
    <glyph glyph-name="Itilde" unicode="&#x128;" horiz-adv-x="286" 
d="M100 0v688h86v-688h-86zM-28 780q0 39 4.5 64t20.5 37.5t49 12.5q28 0 55 -7.5t54 -16.5q21 -7 40.5 -13t39.5 -6q22 0 26.5 11.5t4.5 42.5h47q0 -39 -4.5 -64t-20 -37.5t-48.5 -12.5q-30 0 -55.5 8t-53.5 16q-21 7 -41 13t-39 6q-22 0 -26.5 -11.5t-4.5 -42.5h-48z" />
    <glyph glyph-name="itilde" unicode="&#x129;" horiz-adv-x="254" 
d="M86 0v510h82v-510h-82zM-45 602q0 39 4.5 64t20.5 37.5t49 12.5q28 0 55 -7.5t54 -16.5q21 -7 40.5 -13t39.5 -6q22 0 26.5 11.5t4.5 42.5h47q0 -39 -4.5 -64t-20 -37.5t-48.5 -12.5q-30 0 -55.5 8t-53.5 16q-21 7 -41 13t-39 6q-22 0 -26.5 -11.5t-4.5 -42.5h-48z" />
    <glyph glyph-name="Imacron" unicode="&#x12a;" horiz-adv-x="286" 
d="M100 0v688h86v-688h-86zM-2 806v57h289v-57h-289z" />
    <glyph glyph-name="imacron" unicode="&#x12b;" horiz-adv-x="254" 
d="M86 0v510h82v-510h-82zM-18 628v57h289v-57h-289z" />
    <glyph glyph-name="Ibreve" unicode="&#x12c;" horiz-adv-x="286" 
d="M100 0v688h86v-688h-86zM142 764q-49 0 -77 10.5t-40.5 30t-16 45.5t-3.5 58h53q0 -30 3.5 -51t21 -31.5t59.5 -10.5t59.5 10.5t21.5 31.5t4 51h53q0 -32 -3.5 -58t-16.5 -45.5t-41 -30t-77 -10.5z" />
    <glyph glyph-name="ibreve" unicode="&#x12d;" horiz-adv-x="254" 
d="M86 0v510h82v-510h-82zM126 586q-49 0 -77 11t-40.5 30t-16 45.5t-3.5 57.5h53q0 -30 3.5 -50.5t21 -31.5t59.5 -11t59.5 11t21.5 31.5t4 50.5h53q0 -31 -3.5 -57.5t-16.5 -45.5t-41 -30t-77 -11z" />
    <glyph glyph-name="Iogonek" unicode="&#x12e;" horiz-adv-x="286" 
d="M100 0v688h86v-688h-86zM148 -200q-37 0 -58 10.5t-29.5 28t-8.5 38.5q0 32 21 68.5t54 64.5l59 -10q-13 -10 -28 -28t-25 -38.5t-10 -39.5q0 -17 10 -28.5t37 -11.5h7.5t9.5 1v-53q-10 -1 -19.5 -1.5t-19.5 -0.5z" />
    <glyph glyph-name="iogonek" unicode="&#x12f;" horiz-adv-x="254" 
d="M84 654v89h87v-89h-87zM86 0v510h82v-510h-82zM130 -200q-37 0 -58 10.5t-29.5 28t-8.5 38.5q0 32 21 68.5t54 64.5l59 -10q-13 -10 -28 -28t-25 -38.5t-10 -39.5q0 -17 10 -28.5t37 -11.5h7.5t9.5 1v-53q-10 -1 -19.5 -1.5t-19.5 -0.5z" />
    <glyph glyph-name="Idotaccent" unicode="&#x130;" horiz-adv-x="286" 
d="M100 0v688h86v-688h-86zM104 806v81h77v-81h-77z" />
    <glyph glyph-name="dotlessi" unicode="&#x131;" horiz-adv-x="254" 
d="M86 0v510h82v-510h-82z" />
    <glyph glyph-name="IJ" unicode="&#x132;" horiz-adv-x="641" 
d="M100 0v688h86v-688h-86zM319 0v71q54 1 83 6t42 21.5t15.5 53t2.5 101.5v435h86v-408q0 -80 -3 -132.5t-14 -82t-35.5 -43.5t-67 -18t-109.5 -4z" />
    <glyph glyph-name="ij" unicode="&#x133;" horiz-adv-x="508" 
d="M84 654v89h87v-89h-87zM86 0v510h82v-510h-82zM338 654v89h87v-89h-87zM245 -200v64q44 0 64.5 5t25.5 17t5 33v591h82v-573q0 -47 -9 -75t-30 -41t-54.5 -17t-83.5 -4z" />
    <glyph glyph-name="Jcircumflex" unicode="&#x134;" horiz-adv-x="355" 
d="M33 0v71q54 1 83 6t42 21.5t15.5 53t2.5 101.5v435h86v-408q0 -80 -3 -132.5t-14 -82t-35.5 -43.5t-67 -18t-109.5 -4zM75 773v6l102 135h85l102 -135v-6h-56l-89 97l-88 -97h-56z" />
    <glyph glyph-name="jcircumflex" unicode="&#x135;" horiz-adv-x="254" 
d="M-9 -200v64q44 0 64.5 5t25.5 17t5 33v591h82v-573q0 -47 -9 -75t-30 -41t-54.5 -17t-83.5 -4zM-17 595v6l102 134h85l102 -134v-6h-56l-89 96l-88 -96h-56z" />
    <glyph glyph-name="uni0136" unicode="&#x136;" horiz-adv-x="670" 
d="M100 0v688h86v-301h123l236 301h95l-261 -334l264 -354h-100l-234 312h-123v-312h-86zM270 -283v38q25 0 37 4t16.5 15t4.5 31v17h-37v95h91v-80q0 -37 -4 -60t-15.5 -36t-34 -18.5t-58.5 -5.5z" />
    <glyph glyph-name="uni0137" unicode="&#x137;" horiz-adv-x="537" 
d="M86 0v743h82v-450h64l180 217h92l-207 -247l210 -263h-95l-180 223h-64v-223h-82zM208 -283v38q25 0 37 4t16.5 15t4.5 31v17h-37v95h91v-80q0 -37 -4 -60t-15.5 -36t-34 -18.5t-58.5 -5.5z" />
    <glyph glyph-name="kgreenlandic" unicode="&#x138;" horiz-adv-x="537" 
d="M86 0v510h82v-217h64l180 217h92l-207 -247l210 -263h-95l-180 223h-64v-223h-82z" />
    <glyph glyph-name="Lacute" unicode="&#x139;" horiz-adv-x="538" 
d="M100 0v688h86v-612h321v-76h-407zM90 773v5l101 135h88v-5l-129 -135h-60z" />
    <glyph glyph-name="lacute" unicode="&#x13a;" horiz-adv-x="254" 
d="M86 0v743h82v-743h-82zM74 835v5l101 135h88v-5l-129 -135h-60z" />
    <glyph glyph-name="uni013B" unicode="&#x13b;" horiz-adv-x="538" 
d="M100 0v688h86v-612h321v-76h-407zM250 -283v38q25 0 37 4t16.5 15t4.5 31v17h-37v95h91v-80q0 -37 -4 -60t-15.5 -36t-34 -18.5t-58.5 -5.5z" />
    <glyph glyph-name="uni013C" unicode="&#x13c;" horiz-adv-x="254" 
d="M86 0v743h82v-743h-82zM61 -283v38q25 0 37 4t16.5 15t4.5 31v17h-37v95h91v-80q0 -37 -4 -60t-15.5 -36t-34 -18.5t-58.5 -5.5z" />
    <glyph glyph-name="Lcaron" unicode="&#x13d;" horiz-adv-x="538" 
d="M100 0v688h86v-612h321v-76h-407zM325 444l14 168v76h71v-76l-34 -168h-51z" />
    <glyph glyph-name="lcaron" unicode="&#x13e;" horiz-adv-x="254" 
d="M86 0v743h82v-743h-82zM211 444l14 168v76h71v-76l-34 -168h-51z" />
    <glyph glyph-name="Ldot" unicode="&#x13f;" horiz-adv-x="536" 
d="M100 0v688h86v-612h321v-76h-407zM374 311v97h86v-97h-86z" />
    <glyph glyph-name="ldot" unicode="&#x140;" horiz-adv-x="271" 
d="M86 0v743h82v-743h-82zM220 251v97h86v-97h-86z" />
    <glyph glyph-name="Lslash" unicode="&#x141;" horiz-adv-x="538" 
d="M36 266v67l339 126v-67zM100 0v688h86v-612h321v-76h-407z" />
    <glyph glyph-name="lslash" unicode="&#x142;" horiz-adv-x="259" 
d="M89 0v320l-60 -21v68l60 21v355h81v-325l61 22v-68l-61 -22v-350h-81z" />
    <glyph glyph-name="Nacute" unicode="&#x143;" horiz-adv-x="731" 
d="M100 0v688h88l357 -527h4v527h83v-688h-83l-362 537h-4v-537h-83zM323 773v5l101 135h88v-5l-129 -135h-60z" />
    <glyph glyph-name="nacute" unicode="&#x144;" horiz-adv-x="599" 
d="M86 0v510h74l3 -73h6q11 24 30.5 42t53 28.5t85.5 10.5q57 0 91 -12t52.5 -36t24.5 -61.5t6 -89.5v-319h-81v291q0 52 -4.5 82.5t-17.5 46t-38 20.5t-66 5q-49 0 -77 -12.5t-41 -36t-16 -57t-3 -76.5v-263h-82zM223 595v5l101 135h88v-5l-129 -135h-60z" />
    <glyph glyph-name="uni0145" unicode="&#x145;" horiz-adv-x="731" 
d="M100 0v688h88l357 -527h4v527h83v-688h-83l-362 537h-4v-537h-83zM310 -283v38q25 0 37 4t16.5 15t4.5 31v17h-37v95h91v-80q0 -37 -4 -60t-15.5 -36t-34 -18.5t-58.5 -5.5z" />
    <glyph glyph-name="uni0146" unicode="&#x146;" horiz-adv-x="599" 
d="M86 0v510h74l3 -73h6q11 24 30.5 42t53 28.5t85.5 10.5q57 0 91 -12t52.5 -36t24.5 -61.5t6 -89.5v-319h-81v291q0 52 -4.5 82.5t-17.5 46t-38 20.5t-66 5q-49 0 -77 -12.5t-41 -36t-16 -57t-3 -76.5v-263h-82zM233 -283v38q25 0 37 4t16.5 15t4.5 31v17h-37v95h91v-80
q0 -37 -4 -60t-15.5 -36t-34 -18.5t-58.5 -5.5z" />
    <glyph glyph-name="Ncaron" unicode="&#x147;" horiz-adv-x="731" 
d="M100 0v688h88l357 -527h4v527h83v-688h-83l-362 537h-4v-537h-83zM333 773l-102 134v6h56l88 -97l89 97h56v-6l-102 -134h-85z" />
    <glyph glyph-name="ncaron" unicode="&#x148;" horiz-adv-x="599" 
d="M86 0v510h74l3 -73h6q11 24 30.5 42t53 28.5t85.5 10.5q57 0 91 -12t52.5 -36t24.5 -61.5t6 -89.5v-319h-81v291q0 52 -4.5 82.5t-17.5 46t-38 20.5t-66 5q-49 0 -77 -12.5t-41 -36t-16 -57t-3 -76.5v-263h-82zM257 595l-102 134v6h56l88 -97l89 97h56v-6l-102 -134h-85z
" />
    <glyph glyph-name="napostrophe" unicode="&#x149;" horiz-adv-x="604" 
d="M86 0v510h74l3 -73h6q11 24 30.5 42t53 28.5t85.5 10.5q57 0 91 -12t52.5 -36t24.5 -61.5t6 -89.5v-319h-81v291q0 52 -4.5 82.5t-17.5 46t-38 20.5t-66 5q-49 0 -77 -12.5t-41 -36t-16 -57t-3 -76.5v-263h-82zM0 516v37q25 0 37 5t16.5 19t4.5 39v17h-37v80h91v-66
q0 -40 -4 -65.5t-15.5 -40t-34 -20t-58.5 -5.5z" />
    <glyph glyph-name="Eng" unicode="&#x14a;" horiz-adv-x="731" 
d="M453 -200v64q45 0 65 5t25.5 17t5.5 33v81l-362 537h-4v-537h-83v688h88l357 -527h4v527h83v-751q0 -38 -6 -63t-18.5 -40t-33.5 -22t-51 -9.5t-70 -2.5z" />
    <glyph glyph-name="eng" unicode="&#x14b;" horiz-adv-x="599" 
d="M335 -200v64q45 0 65 5t25.5 17t5.5 33v372q0 52 -4.5 82.5t-17.5 46t-38 20.5t-66 5q-49 0 -77 -12.5t-41 -36t-16 -57t-3 -76.5v-263h-82v510h74l3 -73h6q11 24 30.5 42t53 28.5t85.5 10.5q57 0 91 -12t52.5 -36t24.5 -61.5t6 -89.5v-382q0 -47 -9 -75t-29.5 -41
t-54.5 -17t-84 -4z" />
    <glyph glyph-name="Omacron" unicode="&#x14c;" horiz-adv-x="717" 
d="M358 -8q-80 0 -132.5 8.5t-83 30.5t-44.5 61.5t-18 101t-4 150.5t4 150.5t18 101t44.5 61.5t83 30.5t132.5 8.5t132.5 -8.5t83 -30.5t44.5 -61.5t18 -101t4 -150.5t-4 -150.5t-18 -101t-44.5 -61.5t-83 -30.5t-132.5 -8.5zM358 66q55 0 91 3.5t57 16.5t32 42.5t13.5 81.5
t2.5 134t-2.5 134t-13.5 81.5t-32 42.5t-57 16.5t-91 3.5t-90.5 -3.5t-57 -16.5t-32 -42.5t-13.5 -81.5t-3 -134t3 -134t13.5 -81.5t32 -42.5t57 -16.5t90.5 -3.5zM214 806v57h289v-57h-289z" />
    <glyph glyph-name="omacron" unicode="&#x14d;" horiz-adv-x="577" 
d="M288 -8q-63 0 -104.5 7.5t-65.5 24.5t-35.5 47t-14.5 75.5t-3 108.5t3 108.5t14.5 75.5t35.5 47t65.5 24.5t104.5 7.5q64 0 105 -7.5t65.5 -24.5t36 -47t14.5 -75.5t3 -108.5t-3 -108.5t-14.5 -75.5t-36 -47t-65.5 -24.5t-105 -7.5zM288 61q54 0 83 7t41.5 27t15 58.5
t2.5 101.5t-2.5 101.5t-15 58.5t-41.5 27t-83 7q-53 0 -82.5 -7t-41.5 -27t-15 -58.5t-3 -101.5t3 -101.5t15 -58.5t41.5 -27t82.5 -7zM143 628v57h289v-57h-289z" />
    <glyph glyph-name="Obreve" unicode="&#x14e;" horiz-adv-x="717" 
d="M358 -8q-80 0 -132.5 8.5t-83 30.5t-44.5 61.5t-18 101t-4 150.5t4 150.5t18 101t44.5 61.5t83 30.5t132.5 8.5t132.5 -8.5t83 -30.5t44.5 -61.5t18 -101t4 -150.5t-4 -150.5t-18 -101t-44.5 -61.5t-83 -30.5t-132.5 -8.5zM358 66q55 0 91 3.5t57 16.5t32 42.5t13.5 81.5
t2.5 134t-2.5 134t-13.5 81.5t-32 42.5t-57 16.5t-91 3.5t-90.5 -3.5t-57 -16.5t-32 -42.5t-13.5 -81.5t-3 -134t3 -134t13.5 -81.5t32 -42.5t57 -16.5t90.5 -3.5zM357 764q-49 0 -77 10.5t-40.5 30t-16 45.5t-3.5 58h53q0 -30 3.5 -51t21 -31.5t59.5 -10.5t59.5 10.5
t21.5 31.5t4 51h53q0 -32 -3.5 -58t-16.5 -45.5t-41 -30t-77 -10.5z" />
    <glyph glyph-name="obreve" unicode="&#x14f;" horiz-adv-x="577" 
d="M288 -8q-63 0 -104.5 7.5t-65.5 24.5t-35.5 47t-14.5 75.5t-3 108.5t3 108.5t14.5 75.5t35.5 47t65.5 24.5t104.5 7.5q64 0 105 -7.5t65.5 -24.5t36 -47t14.5 -75.5t3 -108.5t-3 -108.5t-14.5 -75.5t-36 -47t-65.5 -24.5t-105 -7.5zM288 61q54 0 83 7t41.5 27t15 58.5
t2.5 101.5t-2.5 101.5t-15 58.5t-41.5 27t-83 7q-53 0 -82.5 -7t-41.5 -27t-15 -58.5t-3 -101.5t3 -101.5t15 -58.5t41.5 -27t82.5 -7zM287 586q-49 0 -77 11t-40.5 30t-16 45.5t-3.5 57.5h53q0 -30 3.5 -50.5t21 -31.5t59.5 -11t59.5 11t21.5 31.5t4 50.5h53
q0 -31 -3.5 -57.5t-16.5 -45.5t-41 -30t-77 -11z" />
    <glyph glyph-name="Ohungarumlaut" unicode="&#x150;" horiz-adv-x="717" 
d="M358 -8q-80 0 -132.5 8.5t-83 30.5t-44.5 61.5t-18 101t-4 150.5t4 150.5t18 101t44.5 61.5t83 30.5t132.5 8.5t132.5 -8.5t83 -30.5t44.5 -61.5t18 -101t4 -150.5t-4 -150.5t-18 -101t-44.5 -61.5t-83 -30.5t-132.5 -8.5zM358 66q55 0 91 3.5t57 16.5t32 42.5t13.5 81.5
t2.5 134t-2.5 134t-13.5 81.5t-32 42.5t-57 16.5t-91 3.5t-90.5 -3.5t-57 -16.5t-32 -42.5t-13.5 -81.5t-3 -134t3 -134t13.5 -81.5t32 -42.5t57 -16.5t90.5 -3.5zM226 773v5l89 117h77v-5l-113 -117h-53zM407 773v5l89 117h77v-5l-114 -117h-52z" />
    <glyph glyph-name="ohungarumlaut" unicode="&#x151;" horiz-adv-x="577" 
d="M288 -8q-63 0 -104.5 7.5t-65.5 24.5t-35.5 47t-14.5 75.5t-3 108.5t3 108.5t14.5 75.5t35.5 47t65.5 24.5t104.5 7.5q64 0 105 -7.5t65.5 -24.5t36 -47t14.5 -75.5t3 -108.5t-3 -108.5t-14.5 -75.5t-36 -47t-65.5 -24.5t-105 -7.5zM288 61q54 0 83 7t41.5 27t15 58.5
t2.5 101.5t-2.5 101.5t-15 58.5t-41.5 27t-83 7q-53 0 -82.5 -7t-41.5 -27t-15 -58.5t-3 -101.5t3 -101.5t15 -58.5t41.5 -27t82.5 -7zM164 595v5l89 117h77v-5l-113 -117h-53zM345 595v5l89 117h77v-5l-114 -117h-52z" />
    <glyph glyph-name="OE" unicode="&#x152;" horiz-adv-x="1045" 
d="M358 0q-80 0 -132.5 8t-83 30t-44.5 60.5t-18 98.5t-4 147t4 147t18 98.5t44.5 60.5t83 30t132.5 8h630v-74h-325q-19 0 -38.5 1.5t-34.5 4.5q21 -21 31.5 -53t14.5 -77t4 -105h301v-75h-301q0 -62 -3.5 -109t-14 -79t-32.5 -54q15 3 34.5 4.5t38.5 1.5h325v-74h-630z
M358 74q55 0 91 3t57 16t32 41.5t13.5 79.5t2.5 130t-2.5 130t-13.5 79.5t-32 41.5t-57 16t-91 3t-90.5 -3t-57 -16t-32 -41.5t-13.5 -79.5t-3 -130t3 -130t13.5 -79.5t32 -41.5t57 -16t90.5 -3z" />
    <glyph glyph-name="oe" unicode="&#x153;" horiz-adv-x="926" 
d="M288 -8q-79 0 -124 12t-66.5 40.5t-27 80t-5.5 130.5t5.5 130.5t27 80.5t66.5 40.5t124 11.5q77 0 120 -13.5t64 -48.5q23 33 66.5 47.5t118.5 14.5q73 0 114.5 -14.5t60.5 -45.5t24 -81t5 -122v-27h-348q0 -52 4.5 -85t20.5 -51t49.5 -25t91.5 -7q24 0 52.5 1.5
t57.5 4.5t52 6v-66q-20 -4 -50.5 -7t-64.5 -5t-65 -2q-76 0 -120 14t-69 49q-14 -24 -37.5 -37.5t-59 -19.5t-87.5 -6zM288 61q54 0 83 7t41.5 27t15 58.5t2.5 101.5t-2.5 101.5t-15 58.5t-41.5 27t-83 7q-53 0 -82.5 -7t-41.5 -27t-15 -58.5t-3 -101.5t3 -101.5t15 -58.5
t41.5 -27t82.5 -7zM783 268v28q0 52 -6 82.5t-20.5 46t-39.5 20.5t-63 5q-47 0 -75 -6.5t-42 -23.5t-19 -49t-5 -85h289z" />
    <glyph glyph-name="Racute" unicode="&#x154;" horiz-adv-x="681" 
d="M100 0v688h316q65 0 103.5 -15.5t57 -44t24.5 -66.5t6 -81q0 -37 -6.5 -76.5t-29 -71.5t-70.5 -47l116 -286h-92l-114 289l24 -12q-7 -2 -17 -3t-27 -1h-205v-273h-86zM186 348h193q50 0 78.5 8t42 25t17.5 41.5t4 58.5t-3.5 58.5t-16 41t-40 25t-75.5 8.5h-200v-266z
M288 773v5l101 135h88v-5l-129 -135h-60z" />
    <glyph glyph-name="racute" unicode="&#x155;" horiz-adv-x="367" 
d="M86 0v510h73l4 -98h6q13 43 37 66t58 31.5t75 8.5v-80q-69 0 -106 -22t-51 -68t-14 -116v-232h-82zM107 595v5l101 135h88v-5l-129 -135h-60z" />
    <glyph glyph-name="uni0156" unicode="&#x156;" horiz-adv-x="681" 
d="M100 0v688h316q65 0 103.5 -15.5t57 -44t24.5 -66.5t6 -81q0 -37 -6.5 -76.5t-29 -71.5t-70.5 -47l116 -286h-92l-114 289l24 -12q-7 -2 -17 -3t-27 -1h-205v-273h-86zM186 348h193q50 0 78.5 8t42 25t17.5 41.5t4 58.5t-3.5 58.5t-16 41t-40 25t-75.5 8.5h-200v-266z
M275 -283v38q25 0 37 4t16.5 15t4.5 31v17h-37v95h91v-80q0 -37 -4 -60t-15.5 -36t-34 -18.5t-58.5 -5.5z" />
    <glyph glyph-name="uni0157" unicode="&#x157;" horiz-adv-x="367" 
d="M86 0v510h73l4 -98h6q13 43 37 66t58 31.5t75 8.5v-80q-69 0 -106 -22t-51 -68t-14 -116v-232h-82zM61 -283v38q25 0 37 4t16.5 15t4.5 31v17h-37v95h91v-80q0 -37 -4 -60t-15.5 -36t-34 -18.5t-58.5 -5.5z" />
    <glyph glyph-name="Rcaron" unicode="&#x158;" horiz-adv-x="681" 
d="M100 0v688h316q65 0 103.5 -15.5t57 -44t24.5 -66.5t6 -81q0 -37 -6.5 -76.5t-29 -71.5t-70.5 -47l116 -286h-92l-114 289l24 -12q-7 -2 -17 -3t-27 -1h-205v-273h-86zM186 348h193q50 0 78.5 8t42 25t17.5 41.5t4 58.5t-3.5 58.5t-16 41t-40 25t-75.5 8.5h-200v-266z
M298 773l-102 134v6h56l88 -97l89 97h56v-6l-102 -134h-85z" />
    <glyph glyph-name="rcaron" unicode="&#x159;" horiz-adv-x="367" 
d="M86 0v510h73l4 -98h6q13 43 37 66t58 31.5t75 8.5v-80q-69 0 -106 -22t-51 -68t-14 -116v-232h-82zM141 595l-102 134v6h56l88 -97l89 97h56v-6l-102 -134h-85z" />
    <glyph glyph-name="Sacute" unicode="&#x15a;" horiz-adv-x="628" 
d="M329 -8q-37 0 -81 2t-85.5 5t-75.5 7v73q36 -3 75.5 -6t77 -5t63.5 -2q53 0 85 4.5t54 17.5q15 9 22 24t8.5 35t1.5 43q0 34 -2 55t-10.5 32.5t-27.5 17t-51 8.5l-171 19q-48 6 -77 20.5t-43.5 37t-19.5 54t-5 70.5q0 63 16.5 101t48.5 58t77.5 26.5t104.5 6.5
q38 0 78 -2t75.5 -5.5t58.5 -8.5v-71q-26 4 -60 7t-69.5 4.5t-67.5 1.5q-55 0 -89 -5t-54 -18q-22 -13 -27.5 -36.5t-5.5 -56.5q0 -39 5.5 -60.5t24 -30t55.5 -12.5l167 -19q36 -3 63.5 -9.5t47.5 -21.5t30 -43q6 -14 9 -31t4.5 -37.5t1.5 -45.5q0 -57 -11 -94.5t-31 -59.5
t-49 -33t-64.5 -14t-76.5 -3zM261 773v5l101 135h88v-5l-129 -135h-60z" />
    <glyph glyph-name="sacute" unicode="&#x15b;" horiz-adv-x="499" 
d="M256 -8q-29 0 -62 2t-65 4.5t-58 6.5v66q24 -2 46.5 -4t44.5 -3.5t44 -2t45 -0.5q52 0 75.5 7.5t31 25.5t7.5 47q0 33 -5.5 48t-19 19.5t-40.5 7.5l-132 15q-47 5 -71 20.5t-33 44.5t-9 73q0 50 14 80t40 45t63 19.5t83 4.5q26 0 55 -2t57 -5t48 -7v-66q-26 4 -52.5 6.5
t-54 3.5t-55.5 1q-38 0 -65 -4t-40.5 -20t-13.5 -53q0 -29 4.5 -43.5t18.5 -20t39 -8.5l138 -15q41 -4 64.5 -15.5t34 -40.5t10.5 -87q0 -48 -11.5 -77.5t-35.5 -45.5t-59 -21.5t-81 -5.5zM173 595v5l101 135h88v-5l-129 -135h-60z" />
    <glyph glyph-name="Scircumflex" unicode="&#x15c;" horiz-adv-x="628" 
d="M329 -8q-37 0 -81 2t-85.5 5t-75.5 7v73q36 -3 75.5 -6t77 -5t63.5 -2q53 0 85 4.5t54 17.5q15 9 22 24t8.5 35t1.5 43q0 34 -2 55t-10.5 32.5t-27.5 17t-51 8.5l-171 19q-48 6 -77 20.5t-43.5 37t-19.5 54t-5 70.5q0 63 16.5 101t48.5 58t77.5 26.5t104.5 6.5
q38 0 78 -2t75.5 -5.5t58.5 -8.5v-71q-26 4 -60 7t-69.5 4.5t-67.5 1.5q-55 0 -89 -5t-54 -18q-22 -13 -27.5 -36.5t-5.5 -56.5q0 -39 5.5 -60.5t24 -30t55.5 -12.5l167 -19q36 -3 63.5 -9.5t47.5 -21.5t30 -43q6 -14 9 -31t4.5 -37.5t1.5 -45.5q0 -57 -11 -94.5t-31 -59.5
t-49 -33t-64.5 -14t-76.5 -3zM170 773v6l102 135h85l102 -135v-6h-56l-89 97l-88 -97h-56z" />
    <glyph glyph-name="scircumflex" unicode="&#x15d;" horiz-adv-x="499" 
d="M256 -8q-29 0 -62 2t-65 4.5t-58 6.5v66q24 -2 46.5 -4t44.5 -3.5t44 -2t45 -0.5q52 0 75.5 7.5t31 25.5t7.5 47q0 33 -5.5 48t-19 19.5t-40.5 7.5l-132 15q-47 5 -71 20.5t-33 44.5t-9 73q0 50 14 80t40 45t63 19.5t83 4.5q26 0 55 -2t57 -5t48 -7v-66q-26 4 -52.5 6.5
t-54 3.5t-55.5 1q-38 0 -65 -4t-40.5 -20t-13.5 -53q0 -29 4.5 -43.5t18.5 -20t39 -8.5l138 -15q41 -4 64.5 -15.5t34 -40.5t10.5 -87q0 -48 -11.5 -77.5t-35.5 -45.5t-59 -21.5t-81 -5.5zM105 595v6l102 134h85l102 -134v-6h-56l-89 96l-88 -96h-56z" />
    <glyph glyph-name="Scedilla" unicode="&#x15e;" horiz-adv-x="628" 
d="M329 -8q-37 0 -81 2t-85.5 5t-75.5 7v73q36 -3 75.5 -6t77 -5t63.5 -2q53 0 85 4.5t54 17.5q15 9 22 24t8.5 35t1.5 43q0 34 -2 55t-10.5 32.5t-27.5 17t-51 8.5l-171 19q-48 6 -77 20.5t-43.5 37t-19.5 54t-5 70.5q0 63 16.5 101t48.5 58t77.5 26.5t104.5 6.5
q38 0 78 -2t75.5 -5.5t58.5 -8.5v-71q-26 4 -60 7t-69.5 4.5t-67.5 1.5q-55 0 -89 -5t-54 -18q-22 -13 -27.5 -36.5t-5.5 -56.5q0 -39 5.5 -60.5t24 -30t55.5 -12.5l167 -19q36 -3 63.5 -9.5t47.5 -21.5t30 -43q6 -14 9 -31t4.5 -37.5t1.5 -45.5q0 -57 -11 -94.5t-31 -59.5
t-49 -33t-64.5 -14t-76.5 -3zM224 -190v5l68 203h55v-5l-42 -203h-81z" />
    <glyph glyph-name="scedilla" unicode="&#x15f;" horiz-adv-x="499" 
d="M256 -8q-29 0 -62 2t-65 4.5t-58 6.5v66q24 -2 46.5 -4t44.5 -3.5t44 -2t45 -0.5q52 0 75.5 7.5t31 25.5t7.5 47q0 33 -5.5 48t-19 19.5t-40.5 7.5l-132 15q-47 5 -71 20.5t-33 44.5t-9 73q0 50 14 80t40 45t63 19.5t83 4.5q26 0 55 -2t57 -5t48 -7v-66q-26 4 -52.5 6.5
t-54 3.5t-55.5 1q-38 0 -65 -4t-40.5 -20t-13.5 -53q0 -29 4.5 -43.5t18.5 -20t39 -8.5l138 -15q41 -4 64.5 -15.5t34 -40.5t10.5 -87q0 -48 -11.5 -77.5t-35.5 -45.5t-59 -21.5t-81 -5.5zM158 -190v5l68 203h55v-5l-42 -203h-81z" />
    <glyph glyph-name="Scaron" unicode="&#x160;" horiz-adv-x="628" 
d="M329 -8q-37 0 -81 2t-85.5 5t-75.5 7v73q36 -3 75.5 -6t77 -5t63.5 -2q53 0 85 4.5t54 17.5q15 9 22 24t8.5 35t1.5 43q0 34 -2 55t-10.5 32.5t-27.5 17t-51 8.5l-171 19q-48 6 -77 20.5t-43.5 37t-19.5 54t-5 70.5q0 63 16.5 101t48.5 58t77.5 26.5t104.5 6.5
q38 0 78 -2t75.5 -5.5t58.5 -8.5v-71q-26 4 -60 7t-69.5 4.5t-67.5 1.5q-55 0 -89 -5t-54 -18q-22 -13 -27.5 -36.5t-5.5 -56.5q0 -39 5.5 -60.5t24 -30t55.5 -12.5l167 -19q36 -3 63.5 -9.5t47.5 -21.5t30 -43q6 -14 9 -31t4.5 -37.5t1.5 -45.5q0 -57 -11 -94.5t-31 -59.5
t-49 -33t-64.5 -14t-76.5 -3zM272 773l-102 134v6h56l88 -97l89 97h56v-6l-102 -134h-85z" />
    <glyph glyph-name="scaron" unicode="&#x161;" horiz-adv-x="499" 
d="M256 -8q-29 0 -62 2t-65 4.5t-58 6.5v66q24 -2 46.5 -4t44.5 -3.5t44 -2t45 -0.5q52 0 75.5 7.5t31 25.5t7.5 47q0 33 -5.5 48t-19 19.5t-40.5 7.5l-132 15q-47 5 -71 20.5t-33 44.5t-9 73q0 50 14 80t40 45t63 19.5t83 4.5q26 0 55 -2t57 -5t48 -7v-66q-26 4 -52.5 6.5
t-54 3.5t-55.5 1q-38 0 -65 -4t-40.5 -20t-13.5 -53q0 -29 4.5 -43.5t18.5 -20t39 -8.5l138 -15q41 -4 64.5 -15.5t34 -40.5t10.5 -87q0 -48 -11.5 -77.5t-35.5 -45.5t-59 -21.5t-81 -5.5zM207 595l-102 134v6h56l88 -97l89 97h56v-6l-102 -134h-85z" />
    <glyph glyph-name="uni0162" unicode="&#x162;" horiz-adv-x="581" 
d="M247 0v612h-217v76h521v-76h-218v-612h-86zM200 -190v5l68 203h55v-5l-42 -203h-81z" />
    <glyph glyph-name="uni0163" unicode="&#x163;" horiz-adv-x="358" 
d="M129 0v441h-103v69h103v148h81v-148h122v-69h-122v-441h-81zM78 -190v5l68 203h55v-5l-42 -203h-81z" />
    <glyph glyph-name="Tcaron" unicode="&#x164;" horiz-adv-x="581" 
d="M247 0v612h-217v76h521v-76h-218v-612h-86zM248 773l-102 134v6h56l88 -97l89 97h56v-6l-102 -134h-85z" />
    <glyph glyph-name="tcaron" unicode="&#x165;" horiz-adv-x="358" 
d="M129 0v441h-103v69h103v148h81v-148h122v-69h-122v-441h-81zM264 569l14 168v76h71v-76l-34 -168h-51z" />
    <glyph glyph-name="Tbar" unicode="&#x166;" horiz-adv-x="581" 
d="M55 307v68h471v-68h-471zM247 0v612h-217v76h521v-76h-218v-612h-86z" />
    <glyph glyph-name="tbar" unicode="&#x167;" horiz-adv-x="358" 
d="M27 217v68h306v-68h-306zM129 0v441h-103v69h103v148h81v-148h122v-69h-122v-441h-81z" />
    <glyph glyph-name="Utilde" unicode="&#x168;" horiz-adv-x="708" 
d="M355 -8q-71 0 -118.5 8.5t-76.5 28.5t-44 55.5t-20 88.5t-5 128v387h86v-421q0 -63 5 -102t21.5 -61t52.5 -30t99 -8t98.5 8t52 30t20.5 61t4 102v421h86v-387q0 -75 -4.5 -128t-19 -88.5t-43.5 -55.5t-76.5 -28.5t-117.5 -8.5zM184 780q0 39 4.5 64t20.5 37.5t49 12.5
q28 0 55 -7.5t54 -16.5q21 -7 40.5 -13t39.5 -6q22 0 26.5 11.5t4.5 42.5h47q0 -39 -4.5 -64t-20 -37.5t-48.5 -12.5q-30 0 -55.5 8t-53.5 16q-21 7 -41 13t-39 6q-22 0 -26.5 -11.5t-4.5 -42.5h-48z" />
    <glyph glyph-name="utilde" unicode="&#x169;" horiz-adv-x="599" 
d="M260 -8q-56 0 -90.5 12t-52.5 36t-24.5 61.5t-6.5 89.5v319h82v-291q0 -51 4 -82t17.5 -46.5t38.5 -20.5t65 -5q50 0 78 12.5t40.5 36t16 57t3.5 76.5v263h81v-510h-73l-3 73h-7q-10 -24 -29.5 -42t-53.5 -28.5t-86 -10.5zM128 602q0 39 4.5 64t20.5 37.5t49 12.5
q28 0 55 -7.5t54 -16.5q21 -7 40.5 -13t39.5 -6q22 0 26.5 11.5t4.5 42.5h47q0 -39 -4.5 -64t-20 -37.5t-48.5 -12.5q-30 0 -55.5 8t-53.5 16q-21 7 -41 13t-39 6q-22 0 -26.5 -11.5t-4.5 -42.5h-48z" />
    <glyph glyph-name="Umacron" unicode="&#x16a;" horiz-adv-x="708" 
d="M355 -8q-71 0 -118.5 8.5t-76.5 28.5t-44 55.5t-20 88.5t-5 128v387h86v-421q0 -63 5 -102t21.5 -61t52.5 -30t99 -8t98.5 8t52 30t20.5 61t4 102v421h86v-387q0 -75 -4.5 -128t-19 -88.5t-43.5 -55.5t-76.5 -28.5t-117.5 -8.5zM210 806v57h289v-57h-289z" />
    <glyph glyph-name="umacron" unicode="&#x16b;" horiz-adv-x="599" 
d="M260 -8q-56 0 -90.5 12t-52.5 36t-24.5 61.5t-6.5 89.5v319h82v-291q0 -51 4 -82t17.5 -46.5t38.5 -20.5t65 -5q50 0 78 12.5t40.5 36t16 57t3.5 76.5v263h81v-510h-73l-3 73h-7q-10 -24 -29.5 -42t-53.5 -28.5t-86 -10.5zM154 628v57h289v-57h-289z" />
    <glyph glyph-name="Ubreve" unicode="&#x16c;" horiz-adv-x="708" 
d="M355 -8q-71 0 -118.5 8.5t-76.5 28.5t-44 55.5t-20 88.5t-5 128v387h86v-421q0 -63 5 -102t21.5 -61t52.5 -30t99 -8t98.5 8t52 30t20.5 61t4 102v421h86v-387q0 -75 -4.5 -128t-19 -88.5t-43.5 -55.5t-76.5 -28.5t-117.5 -8.5zM353 764q-49 0 -77 10.5t-40.5 30
t-16 45.5t-3.5 58h53q0 -30 3.5 -51t21 -31.5t59.5 -10.5t59.5 10.5t21.5 31.5t4 51h53q0 -32 -3.5 -58t-16.5 -45.5t-41 -30t-77 -10.5z" />
    <glyph glyph-name="ubreve" unicode="&#x16d;" horiz-adv-x="599" 
d="M260 -8q-56 0 -90.5 12t-52.5 36t-24.5 61.5t-6.5 89.5v319h82v-291q0 -51 4 -82t17.5 -46.5t38.5 -20.5t65 -5q50 0 78 12.5t40.5 36t16 57t3.5 76.5v263h81v-510h-73l-3 73h-7q-10 -24 -29.5 -42t-53.5 -28.5t-86 -10.5zM298 586q-49 0 -77 11t-40.5 30t-16 45.5
t-3.5 57.5h53q0 -30 3.5 -50.5t21 -31.5t59.5 -11t59.5 11t21.5 31.5t4 50.5h53q0 -31 -3.5 -57.5t-16.5 -45.5t-41 -30t-77 -11z" />
    <glyph glyph-name="Uring" unicode="&#x16e;" horiz-adv-x="708" 
d="M355 -8q-71 0 -118.5 8.5t-76.5 28.5t-44 55.5t-20 88.5t-5 128v387h86v-421q0 -63 5 -102t21.5 -61t52.5 -30t99 -8t98.5 8t52 30t20.5 61t4 102v421h86v-387q0 -75 -4.5 -128t-19 -88.5t-43.5 -55.5t-76.5 -28.5t-117.5 -8.5zM353 759q-45 0 -70.5 5.5t-37 18t-15 32.5
t-3.5 48t3.5 48t15 32.5t37 18.5t70.5 6q46 0 72 -6t38 -18.5t15 -32.5t3 -48t-3 -48t-15 -32.5t-38 -18t-72 -5.5zM353 801q38 0 53.5 5.5t19 19t3.5 37.5t-3.5 38t-19 19.5t-53.5 5.5q-36 0 -51.5 -5.5t-19 -19.5t-3.5 -38t3.5 -37.5t19 -19t51.5 -5.5z" />
    <glyph glyph-name="uring" unicode="&#x16f;" horiz-adv-x="599" 
d="M260 -8q-56 0 -90.5 12t-52.5 36t-24.5 61.5t-6.5 89.5v319h82v-291q0 -51 4 -82t17.5 -46.5t38.5 -20.5t65 -5q50 0 78 12.5t40.5 36t16 57t3.5 76.5v263h81v-510h-73l-3 73h-7q-10 -24 -29.5 -42t-53.5 -28.5t-86 -10.5zM298 581q-45 0 -70.5 5.5t-37 18t-15 32.5
t-3.5 48t3.5 48t15 32.5t37 18.5t70.5 6q46 0 72 -6t38 -18.5t15 -32.5t3 -48t-3 -48t-15 -32.5t-38 -18t-72 -5.5zM298 623q38 0 53.5 5.5t19 19t3.5 37.5t-3.5 38t-19 19.5t-53.5 5.5q-36 0 -51.5 -5.5t-19 -19.5t-3.5 -38t3.5 -37.5t19 -19t51.5 -5.5z" />
    <glyph glyph-name="Uhungarumlaut" unicode="&#x170;" horiz-adv-x="708" 
d="M355 -8q-71 0 -118.5 8.5t-76.5 28.5t-44 55.5t-20 88.5t-5 128v387h86v-421q0 -63 5 -102t21.5 -61t52.5 -30t99 -8t98.5 8t52 30t20.5 61t4 102v421h86v-387q0 -75 -4.5 -128t-19 -88.5t-43.5 -55.5t-76.5 -28.5t-117.5 -8.5zM222 773v5l89 117h77v-5l-113 -117h-53z
M403 773v5l89 117h77v-5l-114 -117h-52z" />
    <glyph glyph-name="uhungarumlaut" unicode="&#x171;" horiz-adv-x="599" 
d="M260 -8q-56 0 -90.5 12t-52.5 36t-24.5 61.5t-6.5 89.5v319h82v-291q0 -51 4 -82t17.5 -46.5t38.5 -20.5t65 -5q50 0 78 12.5t40.5 36t16 57t3.5 76.5v263h81v-510h-73l-3 73h-7q-10 -24 -29.5 -42t-53.5 -28.5t-86 -10.5zM175 595v5l89 117h77v-5l-113 -117h-53z
M356 595v5l89 117h77v-5l-114 -117h-52z" />
    <glyph glyph-name="Uogonek" unicode="&#x172;" horiz-adv-x="708" 
d="M355 -8q-71 0 -118.5 8.5t-76.5 28.5t-44 55.5t-20 88.5t-5 128v387h86v-421q0 -63 5 -102t21.5 -61t52.5 -30t99 -8t98.5 8t52 30t20.5 61t4 102v421h86v-387q0 -75 -4.5 -128t-19 -88.5t-43.5 -55.5t-76.5 -28.5t-117.5 -8.5zM379 -200q-37 0 -58 10.5t-29.5 28
t-8.5 38.5q0 32 21 68.5t54 64.5l59 -10q-13 -10 -28 -28t-25 -38.5t-10 -39.5q0 -17 10 -28.5t37 -11.5h7.5t9.5 1v-53q-10 -1 -19.5 -1.5t-19.5 -0.5z" />
    <glyph glyph-name="uogonek" unicode="&#x173;" horiz-adv-x="599" 
d="M260 -8q-56 0 -90.5 12t-52.5 36t-24.5 61.5t-6.5 89.5v319h82v-291q0 -51 4 -82t17.5 -46.5t38.5 -20.5t65 -5q50 0 78 12.5t40.5 36t16 57t3.5 76.5v263h81v-510h-73l-3 73h-7q-10 -24 -29.5 -42t-53.5 -28.5t-86 -10.5zM474 -200q-37 0 -58 10.5t-29.5 28t-8.5 38.5
q0 32 21 68.5t54 64.5l59 -10q-13 -10 -28 -28t-25 -38.5t-10 -39.5q0 -17 10 -28.5t37 -11.5h7.5t9.5 1v-53q-10 -1 -19.5 -1.5t-19.5 -0.5z" />
    <glyph glyph-name="Wcircumflex" unicode="&#x174;" horiz-adv-x="987" 
d="M223 0l-187 688h88l153 -576h6l168 576h90l169 -576h6l149 576h86l-187 -688h-102l-166 557h-4l-166 -557h-103zM349 773v6l102 135h85l102 -135v-6h-56l-89 97l-88 -97h-56z" />
    <glyph glyph-name="wcircumflex" unicode="&#x175;" horiz-adv-x="817" 
d="M194 0l-163 510h85l124 -411h7l124 411h77l124 -411h8l123 411h82l-163 -510h-94l-117 376h-7l-116 -376h-94zM264 595v6l102 134h85l102 -134v-6h-56l-89 96l-88 -96h-56z" />
    <glyph glyph-name="Ycircumflex" unicode="&#x176;" horiz-adv-x="609" 
d="M261 0v263l-249 425h92l199 -339h7l197 339h90l-250 -425v-263h-86zM160 773v6l102 135h85l102 -135v-6h-56l-89 97l-88 -97h-56z" />
    <glyph glyph-name="ycircumflex" unicode="&#x177;" horiz-adv-x="599" 
d="M282 -206q-29 0 -60.5 1.5t-60 3t-50.5 4.5v65q33 -1 60.5 -2.5t51 -2t42.5 -0.5q58 0 91.5 9t49.5 29.5t20.5 54.5t4.5 83v30h-6q-8 -20 -27 -37t-52 -27t-86 -10q-56 0 -90.5 11.5t-52.5 36t-24.5 61.5t-6.5 88v318h82v-289q0 -52 4 -83t17.5 -46.5t38.5 -20.5t65 -5
q50 0 78 12.5t40.5 36.5t16 57.5t3.5 75.5v262h81v-447q0 -73 -7.5 -124.5t-31 -83t-69.5 -46.5t-122 -15zM155 595v6l102 134h85l102 -134v-6h-56l-89 96l-88 -96h-56z" />
    <glyph glyph-name="Ydieresis" unicode="&#x178;" horiz-adv-x="609" 
d="M261 0v263l-249 425h92l199 -339h7l197 339h90l-250 -425v-263h-86zM163 806v80h77v-80h-77zM370 806v80h76v-80h-76z" />
    <glyph glyph-name="Zacute" unicode="&#x179;" horiz-adv-x="606" 
d="M53 0v71l388 543h-377v74h486v-69l-389 -545h395v-74h-503zM250 773v5l101 135h88v-5l-129 -135h-60z" />
    <glyph glyph-name="zacute" unicode="&#x17a;" horiz-adv-x="508" 
d="M52 0v63l297 378h-285v69h390v-63l-296 -378h298v-69h-404zM184 595v5l101 135h88v-5l-129 -135h-60z" />
    <glyph glyph-name="Zdotaccent" unicode="&#x17b;" horiz-adv-x="606" 
d="M53 0v71l388 543h-377v74h486v-69l-389 -545h395v-74h-503zM264 806v81h77v-81h-77z" />
    <glyph glyph-name="zdotaccent" unicode="&#x17c;" horiz-adv-x="508" 
d="M52 0v63l297 378h-285v69h390v-63l-296 -378h298v-69h-404zM221 628v80h77v-80h-77z" />
    <glyph glyph-name="Zcaron" unicode="&#x17d;" horiz-adv-x="606" 
d="M53 0v71l388 543h-377v74h486v-69l-389 -545h395v-74h-503zM261 773l-102 134v6h56l88 -97l89 97h56v-6l-102 -134h-85z" />
    <glyph glyph-name="zcaron" unicode="&#x17e;" horiz-adv-x="508" 
d="M52 0v63l297 378h-285v69h390v-63l-296 -378h298v-69h-404zM217 595l-102 134v6h56l88 -97l89 97h56v-6l-102 -134h-85z" />
    <glyph glyph-name="longs" unicode="&#x17f;" horiz-adv-x="343" 
d="M130 0v441h-104v69h104v81q0 43 7 70.5t22.5 44t40.5 24.5t60.5 10t82.5 2v-62q-41 0 -67 -3t-40 -10.5t-19.5 -22.5t-5.5 -39v-605h-81z" />
    <glyph glyph-name="uni018F" unicode="&#x18f;" horiz-adv-x="697" 
d="M348 -8q-77 0 -127.5 8.5t-80 30.5t-43 61.5t-17.5 101t-4 150.5v41h458q0 65 -5.5 108t-18.5 69t-37.5 39t-64 17t-96.5 4q-37 0 -81 -4t-77 -11v72q24 5 55 9t63.5 6t61.5 2q74 0 125 -8.5t83 -30t49 -61t23 -101.5t6 -151t-4 -150.5t-17.5 -101t-43 -61.5t-80 -30.5
t-127.5 -8.5zM348 66q51 0 84 3t53.5 14.5t30.5 37.5t14 71.5t4 117.5h-372q1 -72 4.5 -117.5t14 -71.5t30.5 -37.5t54 -14.5t83 -3z" />
    <glyph glyph-name="florin" unicode="&#x192;" horiz-adv-x="385" 
d="M-139 -191l14 63q40 0 66.5 3t42.5 14.5t26.5 34.5t18.5 61l97 456h-103l14 69h118l-18 -17l7 28q13 60 26 100t30.5 64t44 36.5t65 16.5t93.5 4l-13 -63q-46 0 -73.5 -4t-44 -19.5t-27 -48t-22.5 -88.5l-5 -27l-11 18h146l-14 -69h-132l-90 -425q-13 -61 -27.5 -99.5
t-33.5 -60.5t-45 -32.5t-63 -12.5t-87 -2z" />
    <glyph glyph-name="uni019D" unicode="&#x19d;" horiz-adv-x="731" 
d="M4 -200v64q34 0 53 2.5t28 9t12 17t3 26.5v769h88l357 -527h4v527h83v-688h-83l-362 537h-4v-600q0 -38 -6 -63t-18.5 -40t-33.5 -22t-51 -9.5t-70 -2.5z" />
    <glyph glyph-name="Ohorn" unicode="&#x1a0;" horiz-adv-x="717" 
d="M476 649v39h66q38 0 47 13t9 50v31h59v-23q0 -33 -4.5 -54.5t-16.5 -33.5t-35 -17t-59 -5h-66zM358 -8q-80 0 -132.5 8.5t-83 30.5t-44.5 61.5t-18 101t-4 150.5t4 150.5t18 101t44.5 61.5t83 30.5t132.5 8.5t132.5 -8.5t83 -30.5t44.5 -61.5t18 -101t4 -150.5t-4 -150.5
t-18 -101t-44.5 -61.5t-83 -30.5t-132.5 -8.5zM358 66q55 0 91 3.5t57 16.5t32 42.5t13.5 81.5t2.5 134t-2.5 134t-13.5 81.5t-32 42.5t-57 16.5t-91 3.5t-90.5 -3.5t-57 -16.5t-32 -42.5t-13.5 -81.5t-3 -134t3 -134t13.5 -81.5t32 -42.5t57 -16.5t90.5 -3.5z" />
    <glyph glyph-name="ohorn" unicode="&#x1a1;" horiz-adv-x="577" 
d="M353 471v39h66q38 0 47 13t9 50v31h59v-23q0 -33 -4.5 -54.5t-16.5 -33.5t-35 -17t-59 -5h-66zM288 -8q-63 0 -104.5 7.5t-65.5 24.5t-35.5 47t-14.5 75.5t-3 108.5t3 108.5t14.5 75.5t35.5 47t65.5 24.5t104.5 7.5q64 0 105 -7.5t65.5 -24.5t36 -47t14.5 -75.5t3 -108.5
t-3 -108.5t-14.5 -75.5t-36 -47t-65.5 -24.5t-105 -7.5zM288 61q54 0 83 7t41.5 27t15 58.5t2.5 101.5t-2.5 101.5t-15 58.5t-41.5 27t-83 7q-53 0 -82.5 -7t-41.5 -27t-15 -58.5t-3 -101.5t3 -101.5t15 -58.5t41.5 -27t82.5 -7z" />
    <glyph glyph-name="Uhorn" unicode="&#x1af;" horiz-adv-x="708" 
d="M552 649v39h66q38 0 47 13t9 50v31h59v-23q0 -33 -4 -54.5t-16.5 -33.5t-35 -17t-59.5 -5h-66zM355 -8q-71 0 -118.5 8.5t-76.5 28.5t-44 55.5t-20 88.5t-5 128v387h86v-421q0 -63 5 -102t21.5 -61t52.5 -30t99 -8t98.5 8t52 30t20.5 61t4 102v421h86v-387
q0 -75 -4.5 -128t-19 -88.5t-43.5 -55.5t-76.5 -28.5t-117.5 -8.5z" />
    <glyph glyph-name="uhorn" unicode="&#x1b0;" horiz-adv-x="599" 
d="M431 471v39h66q38 0 47 13t9 50v31h59v-23q0 -33 -4.5 -54.5t-16.5 -33.5t-35 -17t-59 -5h-66zM260 -8q-56 0 -90.5 12t-52.5 36t-24.5 61.5t-6.5 89.5v319h82v-291q0 -51 4 -82t17.5 -46.5t38.5 -20.5t65 -5q50 0 78 12.5t40.5 36t16 57t3.5 76.5v263h81v-510h-73l-3 73
h-7q-10 -24 -29.5 -42t-53.5 -28.5t-86 -10.5z" />
    <glyph glyph-name="uni01C4" unicode="&#x1c4;" horiz-adv-x="1295" 
d="M100 0v688h218q85 0 139 -8t85.5 -29t46.5 -60t19 -99t4 -148t-4 -148t-19 -99t-46.5 -60t-85.5 -29t-139 -8h-218zM186 74h118q63 0 104 3t65 15.5t35 41t14.5 79.5t3.5 131t-3.5 130.5t-15 79.5t-35.5 41.5t-64.5 15.5t-103.5 3h-118v-540zM742 0v71l388 543h-377v74
h486v-69l-389 -545h395v-74h-503zM949 773l-102 134v6h56l88 -97l89 97h56v-6l-102 -134h-85z" />
    <glyph glyph-name="uni01C5" unicode="&#x1c5;" horiz-adv-x="1197" 
d="M100 0v688h218q85 0 139 -8t85.5 -29t46.5 -60t19 -99t4 -148t-4 -148t-19 -99t-46.5 -60t-85.5 -29t-139 -8h-218zM186 74h118q63 0 104 3t65 15.5t35 41t14.5 79.5t3.5 131t-3.5 130.5t-15 79.5t-35.5 41.5t-64.5 15.5t-103.5 3h-118v-540zM741 0v63l297 378h-285v69
h390v-63l-296 -378h298v-69h-404zM906 595l-102 134v6h56l88 -97l89 97h56v-6l-102 -134h-85z" />
    <glyph glyph-name="uni01C6" unicode="&#x1c6;" horiz-adv-x="1098" 
d="M253 -8q-55 0 -91.5 12t-57.5 41.5t-30 80.5t-9 128q0 78 8.5 129.5t29.5 80.5t57 41.5t91 12.5q41 0 73 -6.5t55.5 -22.5t37.5 -44h5v298h82v-743h-73l-4 73h-6q-14 -35 -40.5 -52.5t-59.5 -23t-68 -5.5zM285 64q51 0 81 14t42 44q10 28 12 61t2 78q0 37 -2 67.5
t-11 53.5q-13 34 -43 48.5t-83 14.5q-45 0 -72 -6t-41 -25.5t-19 -57t-5 -101.5t5 -102t19 -57t41.5 -25.5t73.5 -6.5zM642 0v63l297 378h-285v69h390v-63l-296 -378h298v-69h-404zM807 595l-102 134v6h56l88 -97l89 97h56v-6l-102 -134h-85z" />
    <glyph glyph-name="uni01C7" unicode="&#x1c7;" horiz-adv-x="893" 
d="M100 0v688h86v-612h321v-76h-407zM571 0v71q54 1 83 6t42 21.5t15.5 53t2.5 101.5v435h86v-408q0 -80 -3 -132.5t-14 -82t-35.5 -43.5t-67 -18t-109.5 -4z" />
    <glyph glyph-name="uni01C8" unicode="&#x1c8;" horiz-adv-x="792" 
d="M100 0v688h86v-612h321v-76h-407zM622 654v89h87v-89h-87zM529 -200v64q44 0 64.5 5t25.5 17t5 33v591h82v-573q0 -47 -9 -75t-30 -41t-54.5 -17t-83.5 -4z" />
    <glyph glyph-name="uni01C9" unicode="&#x1c9;" horiz-adv-x="508" 
d="M86 0v743h82v-743h-82zM338 654v89h87v-89h-87zM245 -200v64q44 0 64.5 5t25.5 17t5 33v591h82v-573q0 -47 -9 -75t-30 -41t-54.5 -17t-83.5 -4z" />
    <glyph glyph-name="uni01CA" unicode="&#x1ca;" horiz-adv-x="1086" 
d="M100 0v688h88l357 -527h4v527h83v-688h-83l-362 537h-4v-537h-83zM764 0v71q54 1 83 6t42 21.5t15.5 53t2.5 101.5v435h86v-408q0 -80 -3 -132.5t-14 -82t-35.5 -43.5t-67 -18t-109.5 -4z" />
    <glyph glyph-name="uni01CB" unicode="&#x1cb;" horiz-adv-x="985" 
d="M100 0v688h88l357 -527h4v527h83v-688h-83l-362 537h-4v-537h-83zM815 654v89h87v-89h-87zM722 -200v64q44 0 64.5 5t25.5 17t5 33v591h82v-573q0 -47 -9 -75t-30 -41t-54.5 -17t-83.5 -4z" />
    <glyph glyph-name="uni01CC" unicode="&#x1cc;" horiz-adv-x="853" 
d="M86 0v510h74l3 -73h6q11 24 30.5 42t53 28.5t85.5 10.5q57 0 91 -12t52.5 -36t24.5 -61.5t6 -89.5v-319h-81v291q0 52 -4.5 82.5t-17.5 46t-38 20.5t-66 5q-49 0 -77 -12.5t-41 -36t-16 -57t-3 -76.5v-263h-82zM683 654v89h87v-89h-87zM590 -200v64q44 0 64.5 5t25.5 17
t5 33v591h82v-573q0 -47 -9 -75t-30 -41t-54.5 -17t-83.5 -4z" />
    <glyph glyph-name="uni01CD" unicode="&#x1cd;" horiz-adv-x="684" 
d="M28 0l260 688h108l259 -688h-89l-71 188h-309l-71 -188h-87zM212 263h257l-126 337h-5zM299 773l-102 134v6h56l88 -97l89 97h56v-6l-102 -134h-85z" />
    <glyph glyph-name="uni01CE" unicode="&#x1ce;" horiz-adv-x="569" 
d="M223 -8q-56 0 -93.5 13t-56 45t-18.5 90t13.5 91.5t47.5 47.5t95 14q10 0 31.5 -0.5t49.5 -1t56.5 -1t52.5 -1.5v32q0 45 -5.5 70.5t-22.5 38t-47.5 16t-80.5 3.5q-22 0 -52 -1.5t-58.5 -4t-45.5 -5.5v66q38 7 85.5 10.5t98.5 3.5q54 0 91.5 -6.5t61 -20.5t35.5 -37
t16.5 -56t4.5 -77v-321h-73l-3 72h-6q-16 -35 -45.5 -52.5t-64.5 -22.5t-67 -5zM253 59q29 0 54 3.5t44 13.5t30 30q11 21 15.5 45.5t4.5 57.5v26h-170q-39 0 -60 -6t-28.5 -25t-7.5 -57q0 -37 9 -56t34.5 -25.5t74.5 -6.5zM244 595l-102 134v6h56l88 -97l89 97h56v-6
l-102 -134h-85z" />
    <glyph glyph-name="uni01CF" unicode="&#x1cf;" horiz-adv-x="286" 
d="M100 0v688h86v-688h-86zM100 773l-102 134v6h56l88 -97l89 97h56v-6l-102 -134h-85z" />
    <glyph glyph-name="uni01D0" unicode="&#x1d0;" horiz-adv-x="254" 
d="M86 0v510h82v-510h-82zM85 595l-102 134v6h56l88 -97l89 97h56v-6l-102 -134h-85z" />
    <glyph glyph-name="uni01D1" unicode="&#x1d1;" horiz-adv-x="717" 
d="M358 -8q-80 0 -132.5 8.5t-83 30.5t-44.5 61.5t-18 101t-4 150.5t4 150.5t18 101t44.5 61.5t83 30.5t132.5 8.5t132.5 -8.5t83 -30.5t44.5 -61.5t18 -101t4 -150.5t-4 -150.5t-18 -101t-44.5 -61.5t-83 -30.5t-132.5 -8.5zM358 66q55 0 91 3.5t57 16.5t32 42.5t13.5 81.5
t2.5 134t-2.5 134t-13.5 81.5t-32 42.5t-57 16.5t-91 3.5t-90.5 -3.5t-57 -16.5t-32 -42.5t-13.5 -81.5t-3 -134t3 -134t13.5 -81.5t32 -42.5t57 -16.5t90.5 -3.5zM316 773l-102 134v6h56l88 -97l89 97h56v-6l-102 -134h-85z" />
    <glyph glyph-name="uni01D2" unicode="&#x1d2;" horiz-adv-x="577" 
d="M288 -8q-63 0 -104.5 7.5t-65.5 24.5t-35.5 47t-14.5 75.5t-3 108.5t3 108.5t14.5 75.5t35.5 47t65.5 24.5t104.5 7.5q64 0 105 -7.5t65.5 -24.5t36 -47t14.5 -75.5t3 -108.5t-3 -108.5t-14.5 -75.5t-36 -47t-65.5 -24.5t-105 -7.5zM288 61q54 0 83 7t41.5 27t15 58.5
t2.5 101.5t-2.5 101.5t-15 58.5t-41.5 27t-83 7q-53 0 -82.5 -7t-41.5 -27t-15 -58.5t-3 -101.5t3 -101.5t15 -58.5t41.5 -27t82.5 -7zM246 595l-102 134v6h56l88 -97l89 97h56v-6l-102 -134h-85z" />
    <glyph glyph-name="uni01D3" unicode="&#x1d3;" horiz-adv-x="708" 
d="M355 -8q-71 0 -118.5 8.5t-76.5 28.5t-44 55.5t-20 88.5t-5 128v387h86v-421q0 -63 5 -102t21.5 -61t52.5 -30t99 -8t98.5 8t52 30t20.5 61t4 102v421h86v-387q0 -75 -4.5 -128t-19 -88.5t-43.5 -55.5t-76.5 -28.5t-117.5 -8.5zM312 773l-102 134v6h56l88 -97l89 97h56
v-6l-102 -134h-85z" />
    <glyph glyph-name="uni01D4" unicode="&#x1d4;" horiz-adv-x="599" 
d="M260 -8q-56 0 -90.5 12t-52.5 36t-24.5 61.5t-6.5 89.5v319h82v-291q0 -51 4 -82t17.5 -46.5t38.5 -20.5t65 -5q50 0 78 12.5t40.5 36t16 57t3.5 76.5v263h81v-510h-73l-3 73h-7q-10 -24 -29.5 -42t-53.5 -28.5t-86 -10.5zM257 595l-102 134v6h56l88 -97l89 97h56v-6
l-102 -134h-85z" />
    <glyph glyph-name="uni01D5" unicode="&#x1d5;" horiz-adv-x="708" 
d="M355 -8q-71 0 -118.5 8.5t-76.5 28.5t-44 55.5t-20 88.5t-5 128v387h86v-421q0 -63 5 -102t21.5 -61t52.5 -30t99 -8t98.5 8t52 30t20.5 61t4 102v421h86v-387q0 -75 -4.5 -128t-19 -88.5t-43.5 -55.5t-76.5 -28.5t-117.5 -8.5zM212 806v80h77v-80h-77zM419 806v80h76
v-80h-76zM210 986v57h289v-57h-289z" />
    <glyph glyph-name="uni01D6" unicode="&#x1d6;" horiz-adv-x="599" 
d="M260 -8q-56 0 -90.5 12t-52.5 36t-24.5 61.5t-6.5 89.5v319h82v-291q0 -51 4 -82t17.5 -46.5t38.5 -20.5t65 -5q50 0 78 12.5t40.5 36t16 57t3.5 76.5v263h81v-510h-73l-3 73h-7q-10 -24 -29.5 -42t-53.5 -28.5t-86 -10.5zM157 628v80h77v-80h-77zM364 628v80h76v-80h-76
zM154 793v57h289v-57h-289z" />
    <glyph glyph-name="uni01D7" unicode="&#x1d7;" horiz-adv-x="708" 
d="M355 -8q-71 0 -118.5 8.5t-76.5 28.5t-44 55.5t-20 88.5t-5 128v387h86v-421q0 -63 5 -102t21.5 -61t52.5 -30t99 -8t98.5 8t52 30t20.5 61t4 102v421h86v-387q0 -75 -4.5 -128t-19 -88.5t-43.5 -55.5t-76.5 -28.5t-117.5 -8.5zM212 806v80h77v-80h-77zM419 806v80h76
v-80h-76zM302 953v5l101 135h88v-5l-129 -135h-60z" />
    <glyph glyph-name="uni01D8" unicode="&#x1d8;" horiz-adv-x="599" 
d="M260 -8q-56 0 -90.5 12t-52.5 36t-24.5 61.5t-6.5 89.5v319h82v-291q0 -51 4 -82t17.5 -46.5t38.5 -20.5t65 -5q50 0 78 12.5t40.5 36t16 57t3.5 76.5v263h81v-510h-73l-3 73h-7q-10 -24 -29.5 -42t-53.5 -28.5t-86 -10.5zM157 628v80h77v-80h-77zM364 628v80h76v-80h-76
zM223 760v5l101 135h88v-5l-129 -135h-60z" />
    <glyph glyph-name="uni01D9" unicode="&#x1d9;" horiz-adv-x="708" 
d="M355 -8q-71 0 -118.5 8.5t-76.5 28.5t-44 55.5t-20 88.5t-5 128v387h86v-421q0 -63 5 -102t21.5 -61t52.5 -30t99 -8t98.5 8t52 30t20.5 61t4 102v421h86v-387q0 -75 -4.5 -128t-19 -88.5t-43.5 -55.5t-76.5 -28.5t-117.5 -8.5zM212 806v80h77v-80h-77zM419 806v80h76
v-80h-76zM312 953l-102 134v6h56l88 -97l89 97h56v-6l-102 -134h-85z" />
    <glyph glyph-name="uni01DA" unicode="&#x1da;" horiz-adv-x="599" 
d="M260 -8q-56 0 -90.5 12t-52.5 36t-24.5 61.5t-6.5 89.5v319h82v-291q0 -51 4 -82t17.5 -46.5t38.5 -20.5t65 -5q50 0 78 12.5t40.5 36t16 57t3.5 76.5v263h81v-510h-73l-3 73h-7q-10 -24 -29.5 -42t-53.5 -28.5t-86 -10.5zM157 628v80h77v-80h-77zM364 628v80h76v-80h-76
zM257 760l-102 134v6h56l88 -97l89 97h56v-6l-102 -134h-85z" />
    <glyph glyph-name="uni01DB" unicode="&#x1db;" horiz-adv-x="708" 
d="M355 -8q-71 0 -118.5 8.5t-76.5 28.5t-44 55.5t-20 88.5t-5 128v387h86v-421q0 -63 5 -102t21.5 -61t52.5 -30t99 -8t98.5 8t52 30t20.5 61t4 102v421h86v-387q0 -75 -4.5 -128t-19 -88.5t-43.5 -55.5t-76.5 -28.5t-117.5 -8.5zM212 806v80h77v-80h-77zM419 806v80h76
v-80h-76zM349 953l-129 135v5h88l101 -135v-5h-60z" />
    <glyph glyph-name="uni01DC" unicode="&#x1dc;" horiz-adv-x="599" 
d="M260 -8q-56 0 -90.5 12t-52.5 36t-24.5 61.5t-6.5 89.5v319h82v-291q0 -51 4 -82t17.5 -46.5t38.5 -20.5t65 -5q50 0 78 12.5t40.5 36t16 57t3.5 76.5v263h81v-510h-73l-3 73h-7q-10 -24 -29.5 -42t-53.5 -28.5t-86 -10.5zM157 628v80h77v-80h-77zM364 628v80h76v-80h-76
zM298 760l-129 135v5h88l101 -135v-5h-60z" />
    <glyph glyph-name="Gcaron" unicode="&#x1e6;" horiz-adv-x="676" 
d="M368 -8q-73 0 -124 8.5t-83.5 30.5t-51 61.5t-26 101t-7.5 150.5t7.5 150.5t26.5 101t52 61.5t83.5 30.5t122.5 8.5q34 0 73 -3t76.5 -7t67.5 -10v-70q-32 5 -65 8.5t-61.5 5.5t-48.5 2q-62 0 -105.5 -3t-71.5 -16t-43 -42.5t-21.5 -81.5t-6.5 -135q0 -73 4 -122.5
t16.5 -80.5t35 -48t60 -22.5t92.5 -5.5q21 0 46 1t49 3t40 4v224h-156v73h239v-358q-33 -6 -72.5 -10.5t-78 -7t-69.5 -2.5zM316 773l-102 134v6h56l88 -97l89 97h56v-6l-102 -134h-85z" />
    <glyph glyph-name="gcaron" unicode="&#x1e7;" horiz-adv-x="590" 
d="M273 -206q-32 0 -65.5 1.5t-63.5 3.5t-51 4v66q24 -2 53 -3.5t57.5 -2t51.5 -0.5q58 0 91 8t50 28t21.5 56t4.5 92v21h-5q-13 -28 -36 -44t-55 -22.5t-73 -6.5q-56 0 -92.5 12t-57.5 40.5t-29.5 79.5t-8.5 128q0 78 9 129t30 80t57.5 41.5t92.5 12.5q34 0 67 -5.5
t59.5 -23.5t40.5 -52h6l4 73h73v-444q0 -74 -7.5 -126t-30.5 -84t-69 -47t-124 -15zM285 66q50 0 79 13.5t42 42.5q11 24 13.5 57t2.5 77q0 42 -2 74.5t-13 55.5q-13 32 -43 46t-79 14q-46 0 -73.5 -6.5t-41.5 -25.5t-19 -57t-5 -101t5 -101t19 -57t41.5 -25.5t73.5 -6.5z
M253 595l-102 134v6h56l88 -97l89 97h56v-6l-102 -134h-85z" />
    <glyph glyph-name="uni01EA" unicode="&#x1ea;" horiz-adv-x="717" 
d="M358 -8q-80 0 -132.5 8.5t-83 30.5t-44.5 61.5t-18 101t-4 150.5t4 150.5t18 101t44.5 61.5t83 30.5t132.5 8.5t132.5 -8.5t83 -30.5t44.5 -61.5t18 -101t4 -150.5t-4 -150.5t-18 -101t-44.5 -61.5t-83 -30.5t-132.5 -8.5zM358 66q55 0 91 3.5t57 16.5t32 42.5t13.5 81.5
t2.5 134t-2.5 134t-13.5 81.5t-32 42.5t-57 16.5t-91 3.5t-90.5 -3.5t-57 -16.5t-32 -42.5t-13.5 -81.5t-3 -134t3 -134t13.5 -81.5t32 -42.5t57 -16.5t90.5 -3.5zM377 -200q-37 0 -58 10.5t-29.5 28t-8.5 38.5q0 32 21 68.5t54 64.5l59 -10q-13 -10 -28 -28t-25 -38.5
t-10 -39.5q0 -17 10 -28.5t37 -11.5h7.5t9.5 1v-53q-10 -1 -19.5 -1.5t-19.5 -0.5z" />
    <glyph glyph-name="uni01EB" unicode="&#x1eb;" horiz-adv-x="577" 
d="M288 -8q-63 0 -104.5 7.5t-65.5 24.5t-35.5 47t-14.5 75.5t-3 108.5t3 108.5t14.5 75.5t35.5 47t65.5 24.5t104.5 7.5q64 0 105 -7.5t65.5 -24.5t36 -47t14.5 -75.5t3 -108.5t-3 -108.5t-14.5 -75.5t-36 -47t-65.5 -24.5t-105 -7.5zM288 61q54 0 83 7t41.5 27t15 58.5
t2.5 101.5t-2.5 101.5t-15 58.5t-41.5 27t-83 7q-53 0 -82.5 -7t-41.5 -27t-15 -58.5t-3 -101.5t3 -101.5t15 -58.5t41.5 -27t82.5 -7zM304 -200q-37 0 -58 10.5t-29.5 28t-8.5 38.5q0 32 21 68.5t54 64.5l59 -10q-13 -10 -28 -28t-25 -38.5t-10 -39.5q0 -17 10 -28.5
t37 -11.5h7.5t9.5 1v-53q-10 -1 -19.5 -1.5t-19.5 -0.5z" />
    <glyph glyph-name="uni01F1" unicode="&#x1f1;" horiz-adv-x="1295" 
d="M100 0v688h218q85 0 139 -8t85.5 -29t46.5 -60t19 -99t4 -148t-4 -148t-19 -99t-46.5 -60t-85.5 -29t-139 -8h-218zM186 74h118q63 0 104 3t65 15.5t35 41t14.5 79.5t3.5 131t-3.5 130.5t-15 79.5t-35.5 41.5t-64.5 15.5t-103.5 3h-118v-540zM742 0v71l388 543h-377v74
h486v-69l-389 -545h395v-74h-503z" />
    <glyph glyph-name="uni01F2" unicode="&#x1f2;" horiz-adv-x="1197" 
d="M100 0v688h218q85 0 139 -8t85.5 -29t46.5 -60t19 -99t4 -148t-4 -148t-19 -99t-46.5 -60t-85.5 -29t-139 -8h-218zM186 74h118q63 0 104 3t65 15.5t35 41t14.5 79.5t3.5 131t-3.5 130.5t-15 79.5t-35.5 41.5t-64.5 15.5t-103.5 3h-118v-540zM741 0v63l297 378h-285v69
h390v-63l-296 -378h298v-69h-404z" />
    <glyph glyph-name="uni01F3" unicode="&#x1f3;" horiz-adv-x="1098" 
d="M253 -8q-55 0 -91.5 12t-57.5 41.5t-30 80.5t-9 128q0 78 8.5 129.5t29.5 80.5t57 41.5t91 12.5q41 0 73 -6.5t55.5 -22.5t37.5 -44h5v298h82v-743h-73l-4 73h-6q-14 -35 -40.5 -52.5t-59.5 -23t-68 -5.5zM285 64q51 0 81 14t42 44q10 28 12 61t2 78q0 37 -2 67.5
t-11 53.5q-13 34 -43 48.5t-83 14.5q-45 0 -72 -6t-41 -25.5t-19 -57t-5 -101.5t5 -102t19 -57t41.5 -25.5t73.5 -6.5zM642 0v63l297 378h-285v69h390v-63l-296 -378h298v-69h-404z" />
    <glyph glyph-name="uni01F4" unicode="&#x1f4;" horiz-adv-x="676" 
d="M368 -8q-73 0 -124 8.5t-83.5 30.5t-51 61.5t-26 101t-7.5 150.5t7.5 150.5t26.5 101t52 61.5t83.5 30.5t122.5 8.5q34 0 73 -3t76.5 -7t67.5 -10v-70q-32 5 -65 8.5t-61.5 5.5t-48.5 2q-62 0 -105.5 -3t-71.5 -16t-43 -42.5t-21.5 -81.5t-6.5 -135q0 -73 4 -122.5
t16.5 -80.5t35 -48t60 -22.5t92.5 -5.5q21 0 46 1t49 3t40 4v224h-156v73h239v-358q-33 -6 -72.5 -10.5t-78 -7t-69.5 -2.5zM305 773v5l101 135h88v-5l-129 -135h-60z" />
    <glyph glyph-name="uni01F5" unicode="&#x1f5;" horiz-adv-x="590" 
d="M273 -206q-32 0 -65.5 1.5t-63.5 3.5t-51 4v66q24 -2 53 -3.5t57.5 -2t51.5 -0.5q58 0 91 8t50 28t21.5 56t4.5 92v21h-5q-13 -28 -36 -44t-55 -22.5t-73 -6.5q-56 0 -92.5 12t-57.5 40.5t-29.5 79.5t-8.5 128q0 78 9 129t30 80t57.5 41.5t92.5 12.5q34 0 67 -5.5
t59.5 -23.5t40.5 -52h6l4 73h73v-444q0 -74 -7.5 -126t-30.5 -84t-69 -47t-124 -15zM285 66q50 0 79 13.5t42 42.5q11 24 13.5 57t2.5 77q0 42 -2 74.5t-13 55.5q-13 32 -43 46t-79 14q-46 0 -73.5 -6.5t-41.5 -25.5t-19 -57t-5 -101t5 -101t19 -57t41.5 -25.5t73.5 -6.5z
M219 595v5l101 135h88v-5l-129 -135h-60z" />
    <glyph glyph-name="Aringacute" unicode="&#x1fa;" horiz-adv-x="683" 
d="M28 0l260 688h108l259 -688h-89l-71 188h-309l-71 -188h-87zM212 263h257l-126 337h-5zM355 650q-45 0 -70.5 5.5t-37 18t-15 32.5t-3.5 48t3.5 48t15 32.5t37 18.5t70.5 6q46 0 72 -6t38 -18.5t15 -32.5t3 -48t-3 -48t-15 -32.5t-38 -18t-72 -5.5zM355 692
q38 0 53.5 5.5t19 19t3.5 37.5t-3.5 38t-19 19.5t-53.5 5.5q-36 0 -51.5 -5.5t-19 -19.5t-3.5 -38t3.5 -37.5t19 -19t51.5 -5.5zM307 894v5l101 135h88v-5l-129 -135h-60z" />
    <glyph glyph-name="aringacute" unicode="&#x1fb;" horiz-adv-x="569" 
d="M223 -8q-56 0 -93.5 13t-56 45t-18.5 90t13.5 91.5t47.5 47.5t95 14q10 0 31.5 -0.5t49.5 -1t56.5 -1t52.5 -1.5v32q0 45 -5.5 70.5t-22.5 38t-47.5 16t-80.5 3.5q-22 0 -52 -1.5t-58.5 -4t-45.5 -5.5v66q38 7 85.5 10.5t98.5 3.5q54 0 91.5 -6.5t61 -20.5t35.5 -37
t16.5 -56t4.5 -77v-321h-73l-3 72h-6q-16 -35 -45.5 -52.5t-64.5 -22.5t-67 -5zM253 59q29 0 54 3.5t44 13.5t30 30q11 21 15.5 45.5t4.5 57.5v26h-170q-39 0 -60 -6t-28.5 -25t-7.5 -57q0 -37 9 -56t34.5 -25.5t74.5 -6.5zM285 581q-45 0 -70.5 5.5t-37 18t-15 32.5
t-3.5 48t3.5 48t15 32.5t37 18.5t70.5 6q46 0 72 -6t38 -18.5t15 -32.5t3 -48t-3 -48t-15 -32.5t-38 -18t-72 -5.5zM285 623q38 0 53.5 5.5t19 19t3.5 37.5t-3.5 38t-19 19.5t-53.5 5.5q-36 0 -51.5 -5.5t-19 -19.5t-3.5 -38t3.5 -37.5t19 -19t51.5 -5.5zM210 841v5l101 135
h88v-5l-129 -135h-60z" />
    <glyph glyph-name="AEacute" unicode="&#x1fc;" horiz-adv-x="955" 
d="M-7 0l335 688h570v-74h-443l63 -229h333v-75h-315l65 -236h297v-74h-368l-50 188h-309l-91 -188h-87zM205 263h257l-89 337h-5zM422 773v5l101 135h88v-5l-129 -135h-60z" />
    <glyph glyph-name="aeacute" unicode="&#x1fd;" horiz-adv-x="897" 
d="M234 -8q-45 0 -78.5 7t-56 23.5t-33.5 45t-11 72.5q0 57 13.5 90t47.5 47t95 14h56t67 -0.5t67 -1.5v32q0 45 -5.5 70.5t-22.5 38t-47.5 16t-80.5 3.5q-22 0 -53.5 -1.5t-59.5 -4t-43 -5.5v66q32 5 79.5 9.5t104.5 4.5q72 0 113 -12.5t61 -44.5q23 31 65.5 44t114.5 13
q59 0 96.5 -9t59.5 -28t32 -50t13 -74.5t3 -99.5v-26h-348q0 -53 5 -86t20.5 -51.5t49 -26t91.5 -7.5q24 0 53 1.5t57.5 4.5t51.5 6v-66q-20 -4 -50.5 -7t-64 -5t-65.5 -2q-58 0 -97 7.5t-63.5 25t-38.5 46.5q-21 -36 -54.5 -53t-70.5 -21.5t-73 -4.5zM253 59q30 0 56 3.5
t45.5 15t29.5 34.5q9 20 13 43t4 54v22h-170q-39 0 -60 -5.5t-28.5 -23.5t-7.5 -55t9 -56t34.5 -25.5t74.5 -6.5zM754 252q0 65 -4 104t-17 59.5t-39 27.5t-69 7q-48 0 -76 -6.5t-42 -23.5t-19 -48.5t-5 -83.5h307zM373 595v5l101 135h88v-5l-129 -135h-60z" />
    <glyph glyph-name="Oslashacute" unicode="&#x1fe;" horiz-adv-x="717" 
d="M76 -55l489 798h75l-489 -798h-75zM358 -8q-80 0 -132.5 8.5t-83 30.5t-44.5 61.5t-18 101t-4 150.5t4 150.5t18 101t44.5 61.5t83 30.5t132.5 8.5t132.5 -8.5t83 -30.5t44.5 -61.5t18 -101t4 -150.5t-4 -150.5t-18 -101t-44.5 -61.5t-83 -30.5t-132.5 -8.5zM358 66
q55 0 91 3.5t57 16.5t32 42.5t13.5 81.5t2.5 134t-2.5 134t-13.5 81.5t-32 42.5t-57 16.5t-91 3.5t-90.5 -3.5t-57 -16.5t-32 -42.5t-13.5 -81.5t-3 -134t3 -134t13.5 -81.5t32 -42.5t57 -16.5t90.5 -3.5zM306 773v5l101 135h88v-5l-129 -135h-60z" />
    <glyph glyph-name="oslashacute" unicode="&#x1ff;" horiz-adv-x="577" 
d="M65 -55l379 620h68l-381 -620h-66zM288 -8q-63 0 -104.5 7.5t-65.5 24.5t-35.5 47t-14.5 75.5t-3 108.5t3 108.5t14.5 75.5t35.5 47t65.5 24.5t104.5 7.5q64 0 105 -7.5t65.5 -24.5t36 -47t14.5 -75.5t3 -108.5t-3 -108.5t-14.5 -75.5t-36 -47t-65.5 -24.5t-105 -7.5z
M288 61q54 0 83 7t41.5 27t15 58.5t2.5 101.5t-2.5 101.5t-15 58.5t-41.5 27t-83 7q-53 0 -82.5 -7t-41.5 -27t-15 -58.5t-3 -101.5t3 -101.5t15 -58.5t41.5 -27t82.5 -7zM212 595v5l101 135h88v-5l-129 -135h-60z" />
    <glyph glyph-name="uni0200" unicode="&#x200;" horiz-adv-x="684" 
d="M28 0l260 688h108l259 -688h-89l-71 188h-309l-71 -188h-87zM212 263h257l-126 337h-5zM484 773h-52l-114 117v5h77l89 -117v-5zM303 773h-52l-114 117v5h78l88 -117v-5z" />
    <glyph glyph-name="uni0201" unicode="&#x201;" horiz-adv-x="569" 
d="M223 -8q-56 0 -93.5 13t-56 45t-18.5 90t13.5 91.5t47.5 47.5t95 14q10 0 31.5 -0.5t49.5 -1t56.5 -1t52.5 -1.5v32q0 45 -5.5 70.5t-22.5 38t-47.5 16t-80.5 3.5q-22 0 -52 -1.5t-58.5 -4t-45.5 -5.5v66q38 7 85.5 10.5t98.5 3.5q54 0 91.5 -6.5t61 -20.5t35.5 -37
t16.5 -56t4.5 -77v-321h-73l-3 72h-6q-16 -35 -45.5 -52.5t-64.5 -22.5t-67 -5zM253 59q29 0 54 3.5t44 13.5t30 30q11 21 15.5 45.5t4.5 57.5v26h-170q-39 0 -60 -6t-28.5 -25t-7.5 -57q0 -37 9 -56t34.5 -25.5t74.5 -6.5zM422 595h-52l-114 117v5h77l89 -117v-5zM241 595
h-52l-114 117v5h78l88 -117v-5z" />
    <glyph glyph-name="uni0202" unicode="&#x202;" horiz-adv-x="684" 
d="M28 0l260 688h108l259 -688h-89l-71 188h-309l-71 -188h-87zM212 263h257l-126 337h-5zM343 917q49 0 76.5 -10.5t40.5 -30t16 -45.5t3 -58h-52q0 30 -3.5 51t-21 31.5t-59.5 10.5t-60 -10.5t-22 -31.5t-4 -51h-53q0 32 3.5 58t16.5 45.5t41.5 30t77.5 10.5z" />
    <glyph glyph-name="uni0203" unicode="&#x203;" horiz-adv-x="569" 
d="M223 -8q-56 0 -93.5 13t-56 45t-18.5 90t13.5 91.5t47.5 47.5t95 14q10 0 31.5 -0.5t49.5 -1t56.5 -1t52.5 -1.5v32q0 45 -5.5 70.5t-22.5 38t-47.5 16t-80.5 3.5q-22 0 -52 -1.5t-58.5 -4t-45.5 -5.5v66q38 7 85.5 10.5t98.5 3.5q54 0 91.5 -6.5t61 -20.5t35.5 -37
t16.5 -56t4.5 -77v-321h-73l-3 72h-6q-16 -35 -45.5 -52.5t-64.5 -22.5t-67 -5zM253 59q29 0 54 3.5t44 13.5t30 30q11 21 15.5 45.5t4.5 57.5v26h-170q-39 0 -60 -6t-28.5 -25t-7.5 -57q0 -37 9 -56t34.5 -25.5t74.5 -6.5zM287 739q49 0 76.5 -10.5t40.5 -30t16 -45.5
t3 -58h-52q0 30 -3.5 51t-21 31.5t-59.5 10.5t-60 -10.5t-22 -31.5t-4 -51h-53q0 32 3.5 58t16.5 45.5t41.5 30t77.5 10.5z" />
    <glyph glyph-name="uni0204" unicode="&#x204;" horiz-adv-x="603" 
d="M100 0v688h447v-74h-361v-229h314v-75h-314v-236h361v-74h-447zM471 773h-52l-114 117v5h77l89 -117v-5zM290 773h-52l-114 117v5h78l88 -117v-5z" />
    <glyph glyph-name="uni0205" unicode="&#x205;" horiz-adv-x="559" 
d="M294 -8q-62 0 -103.5 8t-66.5 26.5t-38 49t-17 74.5t-4 104q0 71 6 121.5t27.5 82t67.5 46t124 14.5q59 0 96.5 -9t59.5 -28t32.5 -50.5t13.5 -75t3 -100.5v-27h-349q0 -52 5 -85t20.5 -51t49 -25t91.5 -7q24 0 53 1.5t58 4.5t52 6v-66q-21 -4 -51.5 -7t-64 -5t-65.5 -2z
M416 269v27q0 52 -6 82.5t-20.5 46t-39.5 20.5t-62 5q-48 0 -76 -6.5t-42 -23.5t-19 -49t-5 -85h289zM420 595h-52l-114 117v5h77l89 -117v-5zM239 595h-52l-114 117v5h78l88 -117v-5z" />
    <glyph glyph-name="uni0206" unicode="&#x206;" horiz-adv-x="603" 
d="M100 0v688h447v-74h-361v-229h314v-75h-314v-236h361v-74h-447zM331 917q49 0 76.5 -10.5t40.5 -30t16 -45.5t3 -58h-52q0 30 -3.5 51t-21 31.5t-59.5 10.5t-60 -10.5t-22 -31.5t-4 -51h-53q0 32 3.5 58t16.5 45.5t41.5 30t77.5 10.5z" />
    <glyph glyph-name="uni0207" unicode="&#x207;" horiz-adv-x="559" 
d="M294 -8q-62 0 -103.5 8t-66.5 26.5t-38 49t-17 74.5t-4 104q0 71 6 121.5t27.5 82t67.5 46t124 14.5q59 0 96.5 -9t59.5 -28t32.5 -50.5t13.5 -75t3 -100.5v-27h-349q0 -52 5 -85t20.5 -51t49 -25t91.5 -7q24 0 53 1.5t58 4.5t52 6v-66q-21 -4 -51.5 -7t-64 -5t-65.5 -2z
M416 269v27q0 52 -6 82.5t-20.5 46t-39.5 20.5t-62 5q-48 0 -76 -6.5t-42 -23.5t-19 -49t-5 -85h289zM286 739q49 0 76.5 -10.5t40.5 -30t16 -45.5t3 -58h-52q0 30 -3.5 51t-21 31.5t-59.5 10.5t-60 -10.5t-22 -31.5t-4 -51h-53q0 32 3.5 58t16.5 45.5t41.5 30t77.5 10.5z
" />
    <glyph glyph-name="uni0208" unicode="&#x208;" horiz-adv-x="286" 
d="M100 0v688h86v-688h-86zM284 773h-52l-114 117v5h77l89 -117v-5zM103 773h-52l-114 117v5h78l88 -117v-5z" />
    <glyph glyph-name="uni0209" unicode="&#x209;" horiz-adv-x="254" 
d="M86 0v510h82v-510h-82zM262 595h-52l-114 117v5h77l89 -117v-5zM81 595h-52l-114 117v5h78l88 -117v-5z" />
    <glyph glyph-name="uni020A" unicode="&#x20a;" horiz-adv-x="286" 
d="M100 0v688h86v-688h-86zM144 917q49 0 76.5 -10.5t40.5 -30t16 -45.5t3 -58h-52q0 30 -3.5 51t-21 31.5t-59.5 10.5t-60 -10.5t-22 -31.5t-4 -51h-53q0 32 3.5 58t16.5 45.5t41.5 30t77.5 10.5z" />
    <glyph glyph-name="uni020B" unicode="&#x20b;" horiz-adv-x="254" 
d="M86 0v510h82v-510h-82zM128 739q49 0 76.5 -10.5t40.5 -30t16 -45.5t3 -58h-52q0 30 -3.5 51t-21 31.5t-59.5 10.5t-60 -10.5t-22 -31.5t-4 -51h-53q0 32 3.5 58t16.5 45.5t41.5 30t77.5 10.5z" />
    <glyph glyph-name="uni020C" unicode="&#x20c;" horiz-adv-x="717" 
d="M358 -8q-80 0 -132.5 8.5t-83 30.5t-44.5 61.5t-18 101t-4 150.5t4 150.5t18 101t44.5 61.5t83 30.5t132.5 8.5t132.5 -8.5t83 -30.5t44.5 -61.5t18 -101t4 -150.5t-4 -150.5t-18 -101t-44.5 -61.5t-83 -30.5t-132.5 -8.5zM358 66q55 0 91 3.5t57 16.5t32 42.5t13.5 81.5
t2.5 134t-2.5 134t-13.5 81.5t-32 42.5t-57 16.5t-91 3.5t-90.5 -3.5t-57 -16.5t-32 -42.5t-13.5 -81.5t-3 -134t3 -134t13.5 -81.5t32 -42.5t57 -16.5t90.5 -3.5zM500 773h-52l-114 117v5h77l89 -117v-5zM319 773h-52l-114 117v5h78l88 -117v-5z" />
    <glyph glyph-name="uni020D" unicode="&#x20d;" horiz-adv-x="577" 
d="M288 -8q-63 0 -104.5 7.5t-65.5 24.5t-35.5 47t-14.5 75.5t-3 108.5t3 108.5t14.5 75.5t35.5 47t65.5 24.5t104.5 7.5q64 0 105 -7.5t65.5 -24.5t36 -47t14.5 -75.5t3 -108.5t-3 -108.5t-14.5 -75.5t-36 -47t-65.5 -24.5t-105 -7.5zM288 61q54 0 83 7t41.5 27t15 58.5
t2.5 101.5t-2.5 101.5t-15 58.5t-41.5 27t-83 7q-53 0 -82.5 -7t-41.5 -27t-15 -58.5t-3 -101.5t3 -101.5t15 -58.5t41.5 -27t82.5 -7zM423 595h-52l-114 117v5h77l89 -117v-5zM242 595h-52l-114 117v5h78l88 -117v-5z" />
    <glyph glyph-name="uni020E" unicode="&#x20e;" horiz-adv-x="717" 
d="M358 -8q-80 0 -132.5 8.5t-83 30.5t-44.5 61.5t-18 101t-4 150.5t4 150.5t18 101t44.5 61.5t83 30.5t132.5 8.5t132.5 -8.5t83 -30.5t44.5 -61.5t18 -101t4 -150.5t-4 -150.5t-18 -101t-44.5 -61.5t-83 -30.5t-132.5 -8.5zM358 66q55 0 91 3.5t57 16.5t32 42.5t13.5 81.5
t2.5 134t-2.5 134t-13.5 81.5t-32 42.5t-57 16.5t-91 3.5t-90.5 -3.5t-57 -16.5t-32 -42.5t-13.5 -81.5t-3 -134t3 -134t13.5 -81.5t32 -42.5t57 -16.5t90.5 -3.5zM359 917q49 0 76.5 -10.5t40.5 -30t16 -45.5t3 -58h-52q0 30 -3.5 51t-21 31.5t-59.5 10.5t-60 -10.5
t-22 -31.5t-4 -51h-53q0 32 3.5 58t16.5 45.5t41.5 30t77.5 10.5z" />
    <glyph glyph-name="uni020F" unicode="&#x20f;" horiz-adv-x="577" 
d="M288 -8q-63 0 -104.5 7.5t-65.5 24.5t-35.5 47t-14.5 75.5t-3 108.5t3 108.5t14.5 75.5t35.5 47t65.5 24.5t104.5 7.5q64 0 105 -7.5t65.5 -24.5t36 -47t14.5 -75.5t3 -108.5t-3 -108.5t-14.5 -75.5t-36 -47t-65.5 -24.5t-105 -7.5zM288 61q54 0 83 7t41.5 27t15 58.5
t2.5 101.5t-2.5 101.5t-15 58.5t-41.5 27t-83 7q-53 0 -82.5 -7t-41.5 -27t-15 -58.5t-3 -101.5t3 -101.5t15 -58.5t41.5 -27t82.5 -7zM289 739q49 0 76.5 -10.5t40.5 -30t16 -45.5t3 -58h-52q0 30 -3.5 51t-21 31.5t-59.5 10.5t-60 -10.5t-22 -31.5t-4 -51h-53q0 32 3.5 58
t16.5 45.5t41.5 30t77.5 10.5z" />
    <glyph glyph-name="uni0210" unicode="&#x210;" horiz-adv-x="681" 
d="M100 0v688h316q65 0 103.5 -15.5t57 -44t24.5 -66.5t6 -81q0 -37 -6.5 -76.5t-29 -71.5t-70.5 -47l116 -286h-92l-114 289l24 -12q-7 -2 -17 -3t-27 -1h-205v-273h-86zM186 348h193q50 0 78.5 8t42 25t17.5 41.5t4 58.5t-3.5 58.5t-16 41t-40 25t-75.5 8.5h-200v-266z
M482 773h-52l-114 117v5h77l89 -117v-5zM301 773h-52l-114 117v5h78l88 -117v-5z" />
    <glyph glyph-name="uni0211" unicode="&#x211;" horiz-adv-x="367" 
d="M86 0v510h73l4 -98h6q13 43 37 66t58 31.5t75 8.5v-80q-69 0 -106 -22t-51 -68t-14 -116v-232h-82zM319 595h-52l-114 117v5h77l89 -117v-5zM138 595h-52l-114 117v5h78l88 -117v-5z" />
    <glyph glyph-name="uni0212" unicode="&#x212;" horiz-adv-x="681" 
d="M100 0v688h316q65 0 103.5 -15.5t57 -44t24.5 -66.5t6 -81q0 -37 -6.5 -76.5t-29 -71.5t-70.5 -47l116 -286h-92l-114 289l24 -12q-7 -2 -17 -3t-27 -1h-205v-273h-86zM186 348h193q50 0 78.5 8t42 25t17.5 41.5t4 58.5t-3.5 58.5t-16 41t-40 25t-75.5 8.5h-200v-266z
M342 917q49 0 76.5 -10.5t40.5 -30t16 -45.5t3 -58h-52q0 30 -3.5 51t-21 31.5t-59.5 10.5t-60 -10.5t-22 -31.5t-4 -51h-53q0 32 3.5 58t16.5 45.5t41.5 30t77.5 10.5z" />
    <glyph glyph-name="uni0213" unicode="&#x213;" horiz-adv-x="367" 
d="M86 0v510h73l4 -98h6q13 43 37 66t58 31.5t75 8.5v-80q-69 0 -106 -22t-51 -68t-14 -116v-232h-82zM184 739q49 0 76.5 -10.5t40.5 -30t16 -45.5t3 -58h-52q0 30 -3.5 51t-21 31.5t-59.5 10.5t-60 -10.5t-22 -31.5t-4 -51h-53q0 32 3.5 58t16.5 45.5t41.5 30t77.5 10.5z
" />
    <glyph glyph-name="uni0214" unicode="&#x214;" horiz-adv-x="708" 
d="M355 -8q-71 0 -118.5 8.5t-76.5 28.5t-44 55.5t-20 88.5t-5 128v387h86v-421q0 -63 5 -102t21.5 -61t52.5 -30t99 -8t98.5 8t52 30t20.5 61t4 102v421h86v-387q0 -75 -4.5 -128t-19 -88.5t-43.5 -55.5t-76.5 -28.5t-117.5 -8.5zM496 773h-52l-114 117v5h77l89 -117v-5z
M315 773h-52l-114 117v5h78l88 -117v-5z" />
    <glyph glyph-name="uni0215" unicode="&#x215;" horiz-adv-x="599" 
d="M260 -8q-56 0 -90.5 12t-52.5 36t-24.5 61.5t-6.5 89.5v319h82v-291q0 -51 4 -82t17.5 -46.5t38.5 -20.5t65 -5q50 0 78 12.5t40.5 36t16 57t3.5 76.5v263h81v-510h-73l-3 73h-7q-10 -24 -29.5 -42t-53.5 -28.5t-86 -10.5zM434 595h-52l-114 117v5h77l89 -117v-5z
M253 595h-52l-114 117v5h78l88 -117v-5z" />
    <glyph glyph-name="uni0216" unicode="&#x216;" horiz-adv-x="708" 
d="M355 -8q-71 0 -118.5 8.5t-76.5 28.5t-44 55.5t-20 88.5t-5 128v387h86v-421q0 -63 5 -102t21.5 -61t52.5 -30t99 -8t98.5 8t52 30t20.5 61t4 102v421h86v-387q0 -75 -4.5 -128t-19 -88.5t-43.5 -55.5t-76.5 -28.5t-117.5 -8.5zM355 917q49 0 76.5 -10.5t40.5 -30
t16 -45.5t3 -58h-52q0 30 -3.5 51t-21 31.5t-59.5 10.5t-60 -10.5t-22 -31.5t-4 -51h-53q0 32 3.5 58t16.5 45.5t41.5 30t77.5 10.5z" />
    <glyph glyph-name="uni0217" unicode="&#x217;" horiz-adv-x="599" 
d="M260 -8q-56 0 -90.5 12t-52.5 36t-24.5 61.5t-6.5 89.5v319h82v-291q0 -51 4 -82t17.5 -46.5t38.5 -20.5t65 -5q50 0 78 12.5t40.5 36t16 57t3.5 76.5v263h81v-510h-73l-3 73h-7q-10 -24 -29.5 -42t-53.5 -28.5t-86 -10.5zM300 739q49 0 76.5 -10.5t40.5 -30t16 -45.5
t3 -58h-52q0 30 -3.5 51t-21 31.5t-59.5 10.5t-60 -10.5t-22 -31.5t-4 -51h-53q0 32 3.5 58t16.5 45.5t41.5 30t77.5 10.5z" />
    <glyph glyph-name="uni0218" unicode="&#x218;" horiz-adv-x="628" 
d="M329 -8q-37 0 -81 2t-85.5 5t-75.5 7v73q36 -3 75.5 -6t77 -5t63.5 -2q53 0 85 4.5t54 17.5q15 9 22 24t8.5 35t1.5 43q0 34 -2 55t-10.5 32.5t-27.5 17t-51 8.5l-171 19q-48 6 -77 20.5t-43.5 37t-19.5 54t-5 70.5q0 63 16.5 101t48.5 58t77.5 26.5t104.5 6.5
q38 0 78 -2t75.5 -5.5t58.5 -8.5v-71q-26 4 -60 7t-69.5 4.5t-67.5 1.5q-55 0 -89 -5t-54 -18q-22 -13 -27.5 -36.5t-5.5 -56.5q0 -39 5.5 -60.5t24 -30t55.5 -12.5l167 -19q36 -3 63.5 -9.5t47.5 -21.5t30 -43q6 -14 9 -31t4.5 -37.5t1.5 -45.5q0 -57 -11 -94.5t-31 -59.5
t-49 -33t-64.5 -14t-76.5 -3zM248 -283v38q25 0 37 4t16.5 15t4.5 31v17h-37v95h91v-80q0 -37 -4 -60t-15.5 -36t-34 -18.5t-58.5 -5.5z" />
    <glyph glyph-name="uni0219" unicode="&#x219;" horiz-adv-x="499" 
d="M256 -8q-29 0 -62 2t-65 4.5t-58 6.5v66q24 -2 46.5 -4t44.5 -3.5t44 -2t45 -0.5q52 0 75.5 7.5t31 25.5t7.5 47q0 33 -5.5 48t-19 19.5t-40.5 7.5l-132 15q-47 5 -71 20.5t-33 44.5t-9 73q0 50 14 80t40 45t63 19.5t83 4.5q26 0 55 -2t57 -5t48 -7v-66q-26 4 -52.5 6.5
t-54 3.5t-55.5 1q-38 0 -65 -4t-40.5 -20t-13.5 -53q0 -29 4.5 -43.5t18.5 -20t39 -8.5l138 -15q41 -4 64.5 -15.5t34 -40.5t10.5 -87q0 -48 -11.5 -77.5t-35.5 -45.5t-59 -21.5t-81 -5.5zM183 -283v38q25 0 37 4t16.5 15t4.5 31v17h-37v95h91v-80q0 -37 -4 -60t-15.5 -36
t-34 -18.5t-58.5 -5.5z" />
    <glyph glyph-name="uni021A" unicode="&#x21a;" horiz-adv-x="581" 
d="M247 0v612h-217v76h521v-76h-218v-612h-86zM224 -283v38q25 0 37 4t16.5 15t4.5 31v17h-37v95h91v-80q0 -37 -4 -60t-15.5 -36t-34 -18.5t-58.5 -5.5z" />
    <glyph glyph-name="uni021B" unicode="&#x21b;" horiz-adv-x="358" 
d="M129 0v441h-103v69h103v148h81v-148h122v-69h-122v-441h-81zM104 -283v38q25 0 37 4t16.5 15t4.5 31v17h-37v95h91v-80q0 -37 -4 -60t-15.5 -36t-34 -18.5t-58.5 -5.5z" />
    <glyph glyph-name="uni022A" unicode="&#x22a;" horiz-adv-x="717" 
d="M358 -8q-80 0 -132.5 8.5t-83 30.5t-44.5 61.5t-18 101t-4 150.5t4 150.5t18 101t44.5 61.5t83 30.5t132.5 8.5t132.5 -8.5t83 -30.5t44.5 -61.5t18 -101t4 -150.5t-4 -150.5t-18 -101t-44.5 -61.5t-83 -30.5t-132.5 -8.5zM358 66q55 0 91 3.5t57 16.5t32 42.5t13.5 81.5
t2.5 134t-2.5 134t-13.5 81.5t-32 42.5t-57 16.5t-91 3.5t-90.5 -3.5t-57 -16.5t-32 -42.5t-13.5 -81.5t-3 -134t3 -134t13.5 -81.5t32 -42.5t57 -16.5t90.5 -3.5zM216 806v80h77v-80h-77zM423 806v80h76v-80h-76zM214 986v57h289v-57h-289z" />
    <glyph glyph-name="uni022B" unicode="&#x22b;" horiz-adv-x="577" 
d="M288 -8q-63 0 -104.5 7.5t-65.5 24.5t-35.5 47t-14.5 75.5t-3 108.5t3 108.5t14.5 75.5t35.5 47t65.5 24.5t104.5 7.5q64 0 105 -7.5t65.5 -24.5t36 -47t14.5 -75.5t3 -108.5t-3 -108.5t-14.5 -75.5t-36 -47t-65.5 -24.5t-105 -7.5zM288 61q54 0 83 7t41.5 27t15 58.5
t2.5 101.5t-2.5 101.5t-15 58.5t-41.5 27t-83 7q-53 0 -82.5 -7t-41.5 -27t-15 -58.5t-3 -101.5t3 -101.5t15 -58.5t41.5 -27t82.5 -7zM146 628v80h77v-80h-77zM353 628v80h76v-80h-76zM143 793v57h289v-57h-289z" />
    <glyph glyph-name="uni022C" unicode="&#x22c;" horiz-adv-x="717" 
d="M358 -8q-80 0 -132.5 8.5t-83 30.5t-44.5 61.5t-18 101t-4 150.5t4 150.5t18 101t44.5 61.5t83 30.5t132.5 8.5t132.5 -8.5t83 -30.5t44.5 -61.5t18 -101t4 -150.5t-4 -150.5t-18 -101t-44.5 -61.5t-83 -30.5t-132.5 -8.5zM358 66q55 0 91 3.5t57 16.5t32 42.5t13.5 81.5
t2.5 134t-2.5 134t-13.5 81.5t-32 42.5t-57 16.5t-91 3.5t-90.5 -3.5t-57 -16.5t-32 -42.5t-13.5 -81.5t-3 -134t3 -134t13.5 -81.5t32 -42.5t57 -16.5t90.5 -3.5zM188 780q0 39 4.5 64t20.5 37.5t49 12.5q28 0 55 -7.5t54 -16.5q21 -7 40.5 -13t39.5 -6q22 0 26.5 11.5
t4.5 42.5h47q0 -39 -4.5 -64t-20 -37.5t-48.5 -12.5q-30 0 -55.5 8t-53.5 16q-21 7 -41 13t-39 6q-22 0 -26.5 -11.5t-4.5 -42.5h-48zM214 984v57h289v-57h-289z" />
    <glyph glyph-name="uni022D" unicode="&#x22d;" horiz-adv-x="577" 
d="M288 -8q-63 0 -104.5 7.5t-65.5 24.5t-35.5 47t-14.5 75.5t-3 108.5t3 108.5t14.5 75.5t35.5 47t65.5 24.5t104.5 7.5q64 0 105 -7.5t65.5 -24.5t36 -47t14.5 -75.5t3 -108.5t-3 -108.5t-14.5 -75.5t-36 -47t-65.5 -24.5t-105 -7.5zM288 61q54 0 83 7t41.5 27t15 58.5
t2.5 101.5t-2.5 101.5t-15 58.5t-41.5 27t-83 7q-53 0 -82.5 -7t-41.5 -27t-15 -58.5t-3 -101.5t3 -101.5t15 -58.5t41.5 -27t82.5 -7zM117 602q0 39 4.5 64t20.5 37.5t49 12.5q28 0 55 -7.5t54 -16.5q21 -7 40.5 -13t39.5 -6q22 0 26.5 11.5t4.5 42.5h47q0 -39 -4.5 -64
t-20 -37.5t-48.5 -12.5q-30 0 -55.5 8t-53.5 16q-21 7 -41 13t-39 6q-22 0 -26.5 -11.5t-4.5 -42.5h-48zM143 806v57h289v-57h-289z" />
    <glyph glyph-name="uni0230" unicode="&#x230;" horiz-adv-x="717" 
d="M358 -8q-80 0 -132.5 8.5t-83 30.5t-44.5 61.5t-18 101t-4 150.5t4 150.5t18 101t44.5 61.5t83 30.5t132.5 8.5t132.5 -8.5t83 -30.5t44.5 -61.5t18 -101t4 -150.5t-4 -150.5t-18 -101t-44.5 -61.5t-83 -30.5t-132.5 -8.5zM358 66q55 0 91 3.5t57 16.5t32 42.5t13.5 81.5
t2.5 134t-2.5 134t-13.5 81.5t-32 42.5t-57 16.5t-91 3.5t-90.5 -3.5t-57 -16.5t-32 -42.5t-13.5 -81.5t-3 -134t3 -134t13.5 -81.5t32 -42.5t57 -16.5t90.5 -3.5zM320 806v81h77v-81h-77zM214 971v57h289v-57h-289z" />
    <glyph glyph-name="uni0231" unicode="&#x231;" horiz-adv-x="577" 
d="M288 -8q-63 0 -104.5 7.5t-65.5 24.5t-35.5 47t-14.5 75.5t-3 108.5t3 108.5t14.5 75.5t35.5 47t65.5 24.5t104.5 7.5q64 0 105 -7.5t65.5 -24.5t36 -47t14.5 -75.5t3 -108.5t-3 -108.5t-14.5 -75.5t-36 -47t-65.5 -24.5t-105 -7.5zM288 61q54 0 83 7t41.5 27t15 58.5
t2.5 101.5t-2.5 101.5t-15 58.5t-41.5 27t-83 7q-53 0 -82.5 -7t-41.5 -27t-15 -58.5t-3 -101.5t3 -101.5t15 -58.5t41.5 -27t82.5 -7zM250 628v80h77v-80h-77zM143 793v57h289v-57h-289z" />
    <glyph glyph-name="uni0232" unicode="&#x232;" horiz-adv-x="609" 
d="M261 0v263l-249 425h92l199 -339h7l197 339h90l-250 -425v-263h-86zM160 806v57h289v-57h-289z" />
    <glyph glyph-name="uni0233" unicode="&#x233;" horiz-adv-x="599" 
d="M282 -206q-29 0 -60.5 1.5t-60 3t-50.5 4.5v65q33 -1 60.5 -2.5t51 -2t42.5 -0.5q58 0 91.5 9t49.5 29.5t20.5 54.5t4.5 83v30h-6q-8 -20 -27 -37t-52 -27t-86 -10q-56 0 -90.5 11.5t-52.5 36t-24.5 61.5t-6.5 88v318h82v-289q0 -52 4 -83t17.5 -46.5t38.5 -20.5t65 -5
q50 0 78 12.5t40.5 36.5t16 57.5t3.5 75.5v262h81v-447q0 -73 -7.5 -124.5t-31 -83t-69.5 -46.5t-122 -15zM154 628v57h289v-57h-289z" />
    <glyph glyph-name="uni0237" unicode="&#x237;" horiz-adv-x="254" 
d="M-9 -200v64q44 0 64.5 5t25.5 17t5 33v591h82v-573q0 -47 -9 -75t-30 -41t-54.5 -17t-83.5 -4z" />
    <glyph glyph-name="uni0259" unicode="&#x259;" horiz-adv-x="559" 
d="M265 518q62 0 103.5 -8t67 -26.5t38 -49t17 -74.5t4.5 -104q0 -71 -6.5 -121.5t-28 -82t-67 -46t-124.5 -14.5q-59 0 -96.5 9t-59.5 28t-32 50.5t-13 75t-3 100.5v27h348q0 52 -4.5 85t-20.5 51t-49.5 25t-90.5 7q-24 0 -53 -1.5t-58 -4t-52 -6.5v66q21 4 51 7t64 5t65 2
zM143 241v-27q0 -52 6 -82.5t20.5 -46t39.5 -20.5t63 -5q47 0 75 6.5t42.5 23.5t19 49t4.5 85h-289z" />
    <glyph glyph-name="uni0272" unicode="&#x272;" horiz-adv-x="599" 
d="M-9 -200v64q44 0 64.5 5t25.5 17t5 33v591h74l3 -73h6q11 24 30.5 42t53 28.5t85.5 10.5q57 0 91 -12t52.5 -36t24.5 -61.5t6 -89.5v-319h-81v291q0 52 -4.5 82.5t-17.5 46t-38 20.5t-66 5q-49 0 -77 -12.5t-41 -36t-16 -57t-3 -76.5v-326q0 -47 -9 -75t-30 -41
t-54.5 -17t-83.5 -4z" />
    <glyph glyph-name="uni02B9" unicode="&#x2b9;" horiz-adv-x="99" 
d="M0 384l20 304h79l-9 -136l-34 -168h-56z" />
    <glyph glyph-name="uni02BA" unicode="&#x2ba;" horiz-adv-x="252" 
d="M153 384l20 304h79l-9 -136l-34 -168h-56zM0 384l20 304h79l-9 -136l-34 -168h-56z" />
    <glyph glyph-name="uni02BC" unicode="&#x2bc;" horiz-adv-x="112" 
d="M0 546v37q25 0 37 5t16.5 19t4.5 39v17h-37v80h91v-66q0 -40 -4 -65.5t-15.5 -40t-34 -20t-58.5 -5.5z" />
    <glyph glyph-name="circumflex" unicode="&#x2c6;" horiz-adv-x="289" 
d="M0 595v6l102 134h85l102 -134v-6h-56l-89 96l-88 -96h-56z" />
    <glyph glyph-name="caron" unicode="&#x2c7;" horiz-adv-x="289" 
d="M102 595l-102 134v6h56l88 -97l89 97h56v-6l-102 -134h-85z" />
    <glyph glyph-name="uni02C9" unicode="&#x2c9;" horiz-adv-x="289" 
d="M0 628v57h289v-57h-289z" />
    <glyph glyph-name="breve" unicode="&#x2d8;" horiz-adv-x="275" 
d="M137 586q-49 0 -77 10.5t-40.5 30t-16 45.5t-3.5 58h53q0 -30 3.5 -51t21 -31.5t59.5 -10.5t59.5 10.5t21.5 31.5t4 51h53q0 -32 -3.5 -58t-16.5 -45.5t-41 -30t-77 -10.5z" />
    <glyph glyph-name="dotaccent" unicode="&#x2d9;" horiz-adv-x="77" 
d="M0 628v80h77v-80h-77z" />
    <glyph glyph-name="ring" unicode="&#x2da;" horiz-adv-x="254" 
d="M126 581q-45 0 -70.5 5.5t-37 18t-15 32.5t-3.5 48t3.5 48t15 32.5t37 18.5t70.5 6q46 0 72 -6t38 -18.5t15 -32.5t3 -48t-3 -48t-15 -32.5t-38 -18t-72 -5.5zM126 623q38 0 53.5 5.5t19 19t3.5 37.5t-3.5 38t-19 19.5t-53.5 5.5q-36 0 -51.5 -5.5t-19 -19.5t-3.5 -38
t3.5 -37.5t19 -19t51.5 -5.5z" />
    <glyph glyph-name="ogonek" unicode="&#x2db;" horiz-adv-x="135" 
d="M96 -196q-37 0 -58 10.5t-29.5 28t-8.5 38.5q0 32 21 68.5t54 64.5l59 -10q-13 -10 -28 -28t-25 -38.5t-10 -39.5q0 -17 10 -28.5t37 -11.5h7.5t9.5 1v-53q-10 -1 -19.5 -1.5t-19.5 -0.5z" />
    <glyph glyph-name="tilde" unicode="&#x2dc;" horiz-adv-x="341" 
d="M0 602q0 39 4.5 64t20.5 37.5t49 12.5q28 0 55 -7.5t54 -16.5q21 -7 40.5 -13t39.5 -6q22 0 26.5 11.5t4.5 42.5h47q0 -39 -4.5 -64t-20 -37.5t-48.5 -12.5q-30 0 -55.5 8t-53.5 16q-21 7 -41 13t-39 6q-22 0 -26.5 -11.5t-4.5 -42.5h-48z" />
    <glyph glyph-name="hungarumlaut" unicode="&#x2dd;" horiz-adv-x="347" 
d="M0 595v5l89 117h77v-5l-113 -117h-53zM181 595v5l89 117h77v-5l-114 -117h-52z" />
    <glyph glyph-name="gravecomb" unicode="&#x300;" 
d="M129 595l-129 135v5h88l101 -135v-5h-60z" />
    <glyph glyph-name="acutecomb" unicode="&#x301;" 
d="M0 595v5l101 135h88v-5l-129 -135h-60z" />
    <glyph glyph-name="uni0302" unicode="&#x302;" 
d="M0 595v6l102 134h85l102 -134v-6h-56l-89 96l-88 -96h-56z" />
    <glyph glyph-name="tildecomb" unicode="&#x303;" 
d="M0 602q0 39 4.5 64t20.5 37.5t49 12.5q28 0 55 -7.5t54 -16.5q21 -7 40.5 -13t39.5 -6q22 0 26.5 11.5t4.5 42.5h47q0 -39 -4.5 -64t-20 -37.5t-48.5 -12.5q-30 0 -55.5 8t-53.5 16q-21 7 -41 13t-39 6q-22 0 -26.5 -11.5t-4.5 -42.5h-48z" />
    <glyph glyph-name="uni0304" unicode="&#x304;" 
d="M0 628v57h289v-57h-289z" />
    <glyph glyph-name="uni0306" unicode="&#x306;" 
d="M137 586q-49 0 -77 11t-40.5 30t-16 45.5t-3.5 57.5h53q0 -30 3.5 -50.5t21 -31.5t59.5 -11t59.5 11t21.5 31.5t4 50.5h53q0 -31 -3.5 -57.5t-16.5 -45.5t-41 -30t-77 -11z" />
    <glyph glyph-name="uni0307" unicode="&#x307;" 
d="M0 628v80h77v-80h-77z" />
    <glyph glyph-name="uni0308" unicode="&#x308;" 
d="M0 628v80h77v-80h-77zM207 628v80h76v-80h-76z" />
    <glyph glyph-name="hookabovecomb" unicode="&#x309;" 
d="M72 581v10q0 15 4 25t13.5 17t26.5 12l23 6q22 7 33.5 12t14.5 11.5t3 18.5q0 19 -7.5 26.5t-26.5 9.5t-53 2q-12 0 -30 -0.5t-37.5 -1.5t-35.5 -3v43q25 3 58 5.5t59 2.5q43 0 72 -5t43.5 -21.5t14.5 -51.5q0 -22 -5 -36t-18 -23t-38 -16l-25 -7q-19 -5 -28 -9t-11 -9.5
t-2 -17.5h-48z" />
    <glyph glyph-name="uni030A" unicode="&#x30a;" 
d="M126 581q-45 0 -70.5 5.5t-37 18t-15 32.5t-3.5 48t3.5 48t15 32.5t37 18.5t70.5 6q46 0 72 -6t38 -18.5t15 -32.5t3 -48t-3 -48t-15 -32.5t-38 -18t-72 -5.5zM126 623q38 0 53.5 5.5t19 19t3.5 37.5t-3.5 38t-19 19.5t-53.5 5.5q-36 0 -51.5 -5.5t-19 -19.5t-3.5 -38
t3.5 -37.5t19 -19t51.5 -5.5z" />
    <glyph glyph-name="uni030B" unicode="&#x30b;" 
d="M0 595v5l89 117h77v-5l-113 -117h-53zM181 595v5l89 117h77v-5l-114 -117h-52z" />
    <glyph glyph-name="uni030C" unicode="&#x30c;" 
d="M102 595l-102 134v6h56l88 -97l89 97h56v-6l-102 -134h-85z" />
    <glyph glyph-name="uni030F" unicode="&#x30f;" 
d="M347 595h-52l-114 117v5h77l89 -117v-5zM166 595h-52l-114 117v5h78l88 -117v-5z" />
    <glyph glyph-name="uni0311" unicode="&#x311;" 
d="M139 739q49 0 76.5 -10.5t40.5 -30t16 -45.5t3 -58h-52q0 30 -3.5 51t-21 31.5t-59.5 10.5t-60 -10.5t-22 -31.5t-4 -51h-53q0 32 3.5 58t16.5 45.5t41.5 30t77.5 10.5z" />
    <glyph glyph-name="uni0312" unicode="&#x312;" 
d="M0 578v80q0 37 4 60t16 36t34 18.5t58 5.5v-38q-36 0 -47 -9.5t-11 -40.5v-17h37v-95h-91z" />
    <glyph glyph-name="uni031B" unicode="&#x31b;" 
d="M0 471v39h66q38 0 47 13t9 50v31h59v-23q0 -33 -4.5 -54.5t-16.5 -33.5t-35 -17t-59 -5h-66z" />
    <glyph glyph-name="dotbelowcomb" unicode="&#x323;" 
d="M0 -192v76h72v-76h-72z" />
    <glyph glyph-name="uni0324" unicode="&#x324;" 
d="M0 -165v81h77v-81h-77zM207 -165v81h76v-81h-76z" />
    <glyph glyph-name="uni0326" unicode="&#x326;" 
d="M0 -283v38q25 0 37 4t16.5 15t4.5 31v17h-37v95h91v-80q0 -37 -4 -60t-15.5 -36t-34 -18.5t-58.5 -5.5z" />
    <glyph glyph-name="uni0327" unicode="&#x327;" 
d="M0 -190v5l68 203h55v-5l-42 -203h-81z" />
    <glyph glyph-name="uni0328" unicode="&#x328;" 
d="M96 -196q-37 0 -58 10.5t-29.5 28t-8.5 38.5q0 32 21 68.5t54 64.5l59 -10q-13 -10 -28 -28t-25 -38.5t-10 -39.5q0 -17 10 -28.5t37 -11.5h7.5t9.5 1v-53q-10 -1 -19.5 -1.5t-19.5 -0.5z" />
    <glyph glyph-name="uni032E" unicode="&#x32e;" 
d="M137 -219q-49 0 -77 10.5t-40.5 30t-16 45.5t-3.5 58h53q0 -30 3.5 -51t21 -31.5t59.5 -10.5t59.5 10.5t21.5 31.5t4 51h53q0 -32 -3.5 -58t-16.5 -45.5t-41 -30t-77 -10.5z" />
    <glyph glyph-name="uni0331" unicode="&#x331;" 
d="M0 -176v57h289v-57h-289z" />
    <glyph glyph-name="uni0335" unicode="&#x335;" 
d="M0 314v69h264v-69h-264z" />
    <glyph glyph-name="uni0336" unicode="&#x336;" 
d="M0 482v70h532v-70h-532z" />
    <glyph glyph-name="uni0394" unicode="&#x394;" horiz-adv-x="684" 
d="M28 0l260 688h108l260 -688h-628zM138 74h406l-201 530h-5z" />
    <glyph glyph-name="uni03A9" unicode="&#x3a9;" horiz-adv-x="717" 
d="M79 0v74h10l115 -18v5q-54 20 -81.5 60t-36.5 102t-9 142q0 76 4.5 131.5t19 94t45 61.5t82.5 33.5t131 10.5t131 -10.5t82.5 -33.5t45 -61.5t19 -94t4.5 -131.5q0 -80 -9.5 -142t-36.5 -102t-81 -60v-5l115 18h11v-74h-225v68q47 6 75 23.5t41.5 50t18 86.5t4.5 133
q0 70 -3.5 117t-13.5 75.5t-31 43.5t-57 20t-90 5t-90 -5t-57 -20t-31.5 -43t-13.5 -75.5t-3 -117.5q0 -79 4.5 -133t18 -86.5t41.5 -50t75 -23.5v-68h-224z" />
    <glyph glyph-name="uni03BC" unicode="&#x3bc;" horiz-adv-x="599" 
d="M86 -189v699h82v-291q0 -51 4 -82t17.5 -46.5t38.5 -20.5t65 -5q50 0 78 12.5t40.5 36t16 57t3.5 76.5v263h81v-510h-73l-3 73h-7q-10 -24 -29.5 -42t-53.5 -28.5t-86 -10.5q-35 0 -63 9t-49 27.5t-39 47.5l75 -41h-16v-224h-82z" />
    <glyph glyph-name="pi" unicode="&#x3c0;" horiz-adv-x="591" 
d="M86 0v510h418v-510h-81v441h-255v-441h-82z" />
    <glyph glyph-name="uni1E0C" unicode="&#x1e0c;" horiz-adv-x="689" 
d="M100 0v688h218q85 0 139 -8t85.5 -29t46.5 -60t19 -99t4 -148t-4 -148t-19 -99t-46.5 -60t-85.5 -29t-139 -8h-218zM186 74h118q63 0 104 3t65 15.5t35 41t14.5 79.5t3.5 131t-3.5 130.5t-15 79.5t-35.5 41.5t-64.5 15.5t-103.5 3h-118v-540zM309 -192v76h72v-76h-72z
" />
    <glyph glyph-name="uni1E0D" unicode="&#x1e0d;" horiz-adv-x="590" 
d="M253 -8q-55 0 -91.5 12t-57.5 41.5t-30 80.5t-9 128q0 78 8.5 129.5t29.5 80.5t57 41.5t91 12.5q41 0 73 -6.5t55.5 -22.5t37.5 -44h5v298h82v-743h-73l-4 73h-6q-14 -35 -40.5 -52.5t-59.5 -23t-68 -5.5zM285 64q51 0 81 14t42 44q10 28 12 61t2 78q0 37 -2 67.5
t-11 53.5q-13 34 -43 48.5t-83 14.5q-45 0 -72 -6t-41 -25.5t-19 -57t-5 -101.5t5 -102t19 -57t41.5 -25.5t73.5 -6.5zM259 -192v76h72v-76h-72z" />
    <glyph glyph-name="uni1E24" unicode="&#x1e24;" horiz-adv-x="731" 
d="M100 0v688h86v-303h360v303h86v-688h-86v309h-360v-309h-86zM330 -192v76h72v-76h-72z" />
    <glyph glyph-name="uni1E25" unicode="&#x1e25;" horiz-adv-x="599" 
d="M86 0v743h82v-300h5q10 21 29 38t52 26.5t84 9.5q56 0 90.5 -11.5t53 -35.5t24.5 -61.5t6 -89.5v-319h-81v291q0 52 -4.5 82.5t-17.5 46t-38 20.5t-66 5q-49 0 -77 -12.5t-41 -36t-16 -57t-3 -76.5v-263h-82zM263 -192v76h72v-76h-72z" />
    <glyph glyph-name="uni1E44" unicode="&#x1e44;" horiz-adv-x="731" 
d="M100 0v688h88l357 -527h4v527h83v-688h-83l-362 537h-4v-537h-83zM337 806v81h77v-81h-77z" />
    <glyph glyph-name="uni1E45" unicode="&#x1e45;" horiz-adv-x="599" 
d="M86 0v510h74l3 -73h6q11 24 30.5 42t53 28.5t85.5 10.5q57 0 91 -12t52.5 -36t24.5 -61.5t6 -89.5v-319h-81v291q0 52 -4.5 82.5t-17.5 46t-38 20.5t-66 5q-49 0 -77 -12.5t-41 -36t-16 -57t-3 -76.5v-263h-82zM260 628v80h77v-80h-77z" />
    <glyph glyph-name="uni1E5A" unicode="&#x1e5a;" horiz-adv-x="681" 
d="M100 0v688h316q65 0 103.5 -15.5t57 -44t24.5 -66.5t6 -81q0 -37 -6.5 -76.5t-29 -71.5t-70.5 -47l116 -286h-92l-114 289l24 -12q-7 -2 -17 -3t-27 -1h-205v-273h-86zM186 348h193q50 0 78.5 8t42 25t17.5 41.5t4 58.5t-3.5 58.5t-16 41t-40 25t-75.5 8.5h-200v-266z
M305 -192v76h72v-76h-72z" />
    <glyph glyph-name="uni1E5B" unicode="&#x1e5b;" horiz-adv-x="367" 
d="M86 0v510h73l4 -98h6q13 43 37 66t58 31.5t75 8.5v-80q-69 0 -106 -22t-51 -68t-14 -116v-232h-82zM91 -192v76h72v-76h-72z" />
    <glyph glyph-name="uni1E62" unicode="&#x1e62;" horiz-adv-x="628" 
d="M329 -8q-37 0 -81 2t-85.5 5t-75.5 7v73q36 -3 75.5 -6t77 -5t63.5 -2q53 0 85 4.5t54 17.5q15 9 22 24t8.5 35t1.5 43q0 34 -2 55t-10.5 32.5t-27.5 17t-51 8.5l-171 19q-48 6 -77 20.5t-43.5 37t-19.5 54t-5 70.5q0 63 16.5 101t48.5 58t77.5 26.5t104.5 6.5
q38 0 78 -2t75.5 -5.5t58.5 -8.5v-71q-26 4 -60 7t-69.5 4.5t-67.5 1.5q-55 0 -89 -5t-54 -18q-22 -13 -27.5 -36.5t-5.5 -56.5q0 -39 5.5 -60.5t24 -30t55.5 -12.5l167 -19q36 -3 63.5 -9.5t47.5 -21.5t30 -43q6 -14 9 -31t4.5 -37.5t1.5 -45.5q0 -57 -11 -94.5t-31 -59.5
t-49 -33t-64.5 -14t-76.5 -3zM278 -192v76h72v-76h-72z" />
    <glyph glyph-name="uni1E63" unicode="&#x1e63;" horiz-adv-x="499" 
d="M256 -8q-29 0 -62 2t-65 4.5t-58 6.5v66q24 -2 46.5 -4t44.5 -3.5t44 -2t45 -0.5q52 0 75.5 7.5t31 25.5t7.5 47q0 33 -5.5 48t-19 19.5t-40.5 7.5l-132 15q-47 5 -71 20.5t-33 44.5t-9 73q0 50 14 80t40 45t63 19.5t83 4.5q26 0 55 -2t57 -5t48 -7v-66q-26 4 -52.5 6.5
t-54 3.5t-55.5 1q-38 0 -65 -4t-40.5 -20t-13.5 -53q0 -29 4.5 -43.5t18.5 -20t39 -8.5l138 -15q41 -4 64.5 -15.5t34 -40.5t10.5 -87q0 -48 -11.5 -77.5t-35.5 -45.5t-59 -21.5t-81 -5.5zM213 -192v76h72v-76h-72z" />
    <glyph glyph-name="uni1E6C" unicode="&#x1e6c;" horiz-adv-x="581" 
d="M247 0v612h-217v76h521v-76h-218v-612h-86zM254 -192v76h72v-76h-72z" />
    <glyph glyph-name="uni1E6D" unicode="&#x1e6d;" horiz-adv-x="358" 
d="M129 0v441h-103v69h103v148h81v-148h122v-69h-122v-441h-81zM134 -192v76h72v-76h-72z" />
    <glyph glyph-name="Wgrave" unicode="&#x1e80;" horiz-adv-x="987" 
d="M223 0l-187 688h88l153 -576h6l168 576h90l169 -576h6l149 576h86l-187 -688h-102l-166 557h-4l-166 -557h-103zM488 773l-129 135v5h88l101 -135v-5h-60z" />
    <glyph glyph-name="wgrave" unicode="&#x1e81;" horiz-adv-x="817" 
d="M194 0l-163 510h85l124 -411h7l124 411h77l124 -411h8l123 411h82l-163 -510h-94l-117 376h-7l-116 -376h-94zM407 595l-129 135v5h88l101 -135v-5h-60z" />
    <glyph glyph-name="Wacute" unicode="&#x1e82;" horiz-adv-x="987" 
d="M223 0l-187 688h88l153 -576h6l168 576h90l169 -576h6l149 576h86l-187 -688h-102l-166 557h-4l-166 -557h-103zM441 773v5l101 135h88v-5l-129 -135h-60z" />
    <glyph glyph-name="wacute" unicode="&#x1e83;" horiz-adv-x="817" 
d="M194 0l-163 510h85l124 -411h7l124 411h77l124 -411h8l123 411h82l-163 -510h-94l-117 376h-7l-116 -376h-94zM332 595v5l101 135h88v-5l-129 -135h-60z" />
    <glyph glyph-name="Wdieresis" unicode="&#x1e84;" horiz-adv-x="987" 
d="M223 0l-187 688h88l153 -576h6l168 576h90l169 -576h6l149 576h86l-187 -688h-102l-166 557h-4l-166 -557h-103zM351 806v80h77v-80h-77zM558 806v80h76v-80h-76z" />
    <glyph glyph-name="wdieresis" unicode="&#x1e85;" horiz-adv-x="817" 
d="M194 0l-163 510h85l124 -411h7l124 411h77l124 -411h8l123 411h82l-163 -510h-94l-117 376h-7l-116 -376h-94zM266 628v80h77v-80h-77zM473 628v80h76v-80h-76z" />
    <glyph glyph-name="uni1E92" unicode="&#x1e92;" horiz-adv-x="606" 
d="M53 0v71l388 543h-377v74h486v-69l-389 -545h395v-74h-503zM267 -192v76h72v-76h-72z" />
    <glyph glyph-name="uni1E93" unicode="&#x1e93;" horiz-adv-x="508" 
d="M52 0v63l297 378h-285v69h390v-63l-296 -378h298v-69h-404zM224 -192v76h72v-76h-72z" />
    <glyph glyph-name="uni1E9E" unicode="&#x1e9e;" horiz-adv-x="715" 
d="M414 -8q-35 0 -78 5t-73 12v69q37 -5 77.5 -8.5t67.5 -3.5q58 0 90.5 11t45 37t12.5 74q0 46 -11.5 73t-37.5 38.5t-70 11.5h-112v61l204 260l2 -34q-32 9 -59.5 14t-54 7.5t-53.5 2.5q-51 0 -85.5 -5t-54.5 -21t-30 -46t-13.5 -80.5t-3.5 -125.5v-344h-86v369
q0 81 7 138t23 93.5t44.5 57.5t72.5 29.5t106 8.5q48 0 94.5 -5t88 -13.5t71.5 -19.5v-64l-194 -249l-8 29h53q68 0 111 -19t63 -60.5t20 -112.5q0 -49 -12.5 -84.5t-40 -59t-71.5 -35t-105 -11.5z" />
    <glyph glyph-name="uni1EA0" unicode="&#x1ea0;" horiz-adv-x="684" 
d="M28 0l260 688h108l259 -688h-89l-71 188h-309l-71 -188h-87zM212 263h257l-126 337h-5zM306 -192v76h72v-76h-72z" />
    <glyph glyph-name="uni1EA1" unicode="&#x1ea1;" horiz-adv-x="569" 
d="M223 -8q-56 0 -93.5 13t-56 45t-18.5 90t13.5 91.5t47.5 47.5t95 14q10 0 31.5 -0.5t49.5 -1t56.5 -1t52.5 -1.5v32q0 45 -5.5 70.5t-22.5 38t-47.5 16t-80.5 3.5q-22 0 -52 -1.5t-58.5 -4t-45.5 -5.5v66q38 7 85.5 10.5t98.5 3.5q54 0 91.5 -6.5t61 -20.5t35.5 -37
t16.5 -56t4.5 -77v-321h-73l-3 72h-6q-16 -35 -45.5 -52.5t-64.5 -22.5t-67 -5zM253 59q29 0 54 3.5t44 13.5t30 30q11 21 15.5 45.5t4.5 57.5v26h-170q-39 0 -60 -6t-28.5 -25t-7.5 -57q0 -37 9 -56t34.5 -25.5t74.5 -6.5zM249 -192v76h72v-76h-72z" />
    <glyph glyph-name="uni1EA2" unicode="&#x1ea2;" horiz-adv-x="684" 
d="M28 0l260 688h108l259 -688h-89l-71 188h-309l-71 -188h-87zM212 263h257l-126 337h-5zM297 759v10q0 15 4 25t13.5 17t26.5 12l23 6q22 7 33.5 12t14.5 11.5t3 18.5q0 19 -7.5 26.5t-26.5 9.5t-53 2q-12 0 -30 -0.5t-37.5 -1.5t-35.5 -3v43q25 3 58 5.5t59 2.5
q43 0 72 -5t43.5 -21.5t14.5 -51.5q0 -22 -5 -36t-18 -23t-38 -16l-25 -7q-19 -5 -28 -9t-11 -9.5t-2 -17.5h-48z" />
    <glyph glyph-name="uni1EA3" unicode="&#x1ea3;" horiz-adv-x="569" 
d="M223 -8q-56 0 -93.5 13t-56 45t-18.5 90t13.5 91.5t47.5 47.5t95 14q10 0 31.5 -0.5t49.5 -1t56.5 -1t52.5 -1.5v32q0 45 -5.5 70.5t-22.5 38t-47.5 16t-80.5 3.5q-22 0 -52 -1.5t-58.5 -4t-45.5 -5.5v66q38 7 85.5 10.5t98.5 3.5q54 0 91.5 -6.5t61 -20.5t35.5 -37
t16.5 -56t4.5 -77v-321h-73l-3 72h-6q-16 -35 -45.5 -52.5t-64.5 -22.5t-67 -5zM253 59q29 0 54 3.5t44 13.5t30 30q11 21 15.5 45.5t4.5 57.5v26h-170q-39 0 -60 -6t-28.5 -25t-7.5 -57q0 -37 9 -56t34.5 -25.5t74.5 -6.5zM242 581v10q0 15 4 25t13.5 17t26.5 12l23 6
q22 7 33.5 12t14.5 11.5t3 18.5q0 19 -7.5 26.5t-26.5 9.5t-53 2q-12 0 -30 -0.5t-37.5 -1.5t-35.5 -3v43q25 3 58 5.5t59 2.5q43 0 72 -5t43.5 -21.5t14.5 -51.5q0 -22 -5 -36t-18 -23t-38 -16l-25 -7q-19 -5 -28 -9t-11 -9.5t-2 -17.5h-48z" />
    <glyph glyph-name="uni1EA4" unicode="&#x1ea4;" horiz-adv-x="684" 
d="M28 0l260 688h108l259 -688h-89l-71 188h-309l-71 -188h-87zM212 263h257l-126 337h-5zM197 773v6l102 135h85l102 -135v-6h-56l-89 97l-88 -97h-56zM289 951v5l101 135h88v-5l-129 -135h-60z" />
    <glyph glyph-name="uni1EA5" unicode="&#x1ea5;" horiz-adv-x="569" 
d="M223 -8q-56 0 -93.5 13t-56 45t-18.5 90t13.5 91.5t47.5 47.5t95 14q10 0 31.5 -0.5t49.5 -1t56.5 -1t52.5 -1.5v32q0 45 -5.5 70.5t-22.5 38t-47.5 16t-80.5 3.5q-22 0 -52 -1.5t-58.5 -4t-45.5 -5.5v66q38 7 85.5 10.5t98.5 3.5q54 0 91.5 -6.5t61 -20.5t35.5 -37
t16.5 -56t4.5 -77v-321h-73l-3 72h-6q-16 -35 -45.5 -52.5t-64.5 -22.5t-67 -5zM253 59q29 0 54 3.5t44 13.5t30 30q11 21 15.5 45.5t4.5 57.5v26h-170q-39 0 -60 -6t-28.5 -25t-7.5 -57q0 -37 9 -56t34.5 -25.5t74.5 -6.5zM142 595v6l102 134h85l102 -134v-6h-56l-89 96
l-88 -96h-56zM210 773v5l102 135h87v-5l-128 -135h-61z" />
    <glyph glyph-name="uni1EA6" unicode="&#x1ea6;" horiz-adv-x="684" 
d="M28 0l260 688h108l259 -688h-89l-71 188h-309l-71 -188h-87zM212 263h257l-126 337h-5zM197 773v6l102 135h85l102 -135v-6h-56l-89 97l-88 -97h-56zM336 951l-129 135v5h88l101 -135v-5h-60z" />
    <glyph glyph-name="uni1EA7" unicode="&#x1ea7;" horiz-adv-x="569" 
d="M223 -8q-56 0 -93.5 13t-56 45t-18.5 90t13.5 91.5t47.5 47.5t95 14q10 0 31.5 -0.5t49.5 -1t56.5 -1t52.5 -1.5v32q0 45 -5.5 70.5t-22.5 38t-47.5 16t-80.5 3.5q-22 0 -52 -1.5t-58.5 -4t-45.5 -5.5v66q38 7 85.5 10.5t98.5 3.5q54 0 91.5 -6.5t61 -20.5t35.5 -37
t16.5 -56t4.5 -77v-321h-73l-3 72h-6q-16 -35 -45.5 -52.5t-64.5 -22.5t-67 -5zM253 59q29 0 54 3.5t44 13.5t30 30q11 21 15.5 45.5t4.5 57.5v26h-170q-39 0 -60 -6t-28.5 -25t-7.5 -57q0 -37 9 -56t34.5 -25.5t74.5 -6.5zM142 595v6l102 134h85l102 -134v-6h-56l-89 96
l-88 -96h-56zM285 773l-129 135v5h88l101 -135v-5h-60z" />
    <glyph glyph-name="uni1EA8" unicode="&#x1ea8;" horiz-adv-x="684" 
d="M28 0l260 688h108l259 -688h-89l-71 188h-309l-71 -188h-87zM212 263h257l-126 337h-5zM197 773v6l102 135h85l102 -135v-6h-56l-89 97l-88 -97h-56zM296 937v10q0 15 4 25t13.5 17t27.5 12l22 6q23 7 34 12t14.5 11.5t3.5 18.5q0 19 -7.5 26.5t-26.5 9.5t-54 2
q-12 0 -29.5 -0.5t-37 -1.5t-35.5 -3v43q24 3 57 5.5t59 2.5q44 0 73 -5t43.5 -21.5t14.5 -51.5q0 -22 -5 -36t-18.5 -23t-38.5 -16l-24 -7q-20 -5 -28.5 -9t-10.5 -9.5t-2 -17.5h-49z" />
    <glyph glyph-name="uni1EA9" unicode="&#x1ea9;" horiz-adv-x="569" 
d="M223 -8q-56 0 -93.5 13t-56 45t-18.5 90t13.5 91.5t47.5 47.5t95 14q10 0 31.5 -0.5t49.5 -1t56.5 -1t52.5 -1.5v32q0 45 -5.5 70.5t-22.5 38t-47.5 16t-80.5 3.5q-22 0 -52 -1.5t-58.5 -4t-45.5 -5.5v66q38 7 85.5 10.5t98.5 3.5q54 0 91.5 -6.5t61 -20.5t35.5 -37
t16.5 -56t4.5 -77v-321h-73l-3 72h-6q-16 -35 -45.5 -52.5t-64.5 -22.5t-67 -5zM253 59q29 0 54 3.5t44 13.5t30 30q11 21 15.5 45.5t4.5 57.5v26h-170q-39 0 -60 -6t-28.5 -25t-7.5 -57q0 -37 9 -56t34.5 -25.5t74.5 -6.5zM142 595v6l102 134h85l102 -134v-6h-56l-89 96
l-88 -96h-56zM241 759v10q0 15 4 25t13.5 17t27.5 12l22 6q23 7 34 12t14.5 11.5t3.5 18.5q0 19 -7.5 26.5t-26.5 9.5t-54 2q-12 0 -29.5 -0.5t-37 -1.5t-35.5 -3v43q24 3 57 5.5t59 2.5q44 0 73 -5t43.5 -21.5t14.5 -51.5q0 -22 -5 -36t-18.5 -23t-38.5 -16l-24 -7
q-20 -5 -28.5 -9t-10.5 -9.5t-2 -17.5h-49z" />
    <glyph glyph-name="uni1EAA" unicode="&#x1eaa;" horiz-adv-x="684" 
d="M28 0l260 688h108l259 -688h-89l-71 188h-309l-71 -188h-87zM212 263h257l-126 337h-5zM197 773v6l102 135h85l102 -135v-6h-56l-89 97l-88 -97h-56zM171 958q0 39 4.5 64t20.5 37.5t49 12.5q28 0 55 -7.5t54 -16.5q21 -7 40.5 -13t39.5 -6q22 0 26.5 11.5t4.5 42.5h47
q0 -39 -4.5 -64t-20 -37.5t-48.5 -12.5q-30 0 -56 8t-53 16q-21 7 -41 13t-39 6q-22 0 -26.5 -11.5t-4.5 -42.5h-48z" />
    <glyph glyph-name="uni1EAB" unicode="&#x1eab;" horiz-adv-x="569" 
d="M223 -8q-56 0 -93.5 13t-56 45t-18.5 90t13.5 91.5t47.5 47.5t95 14q10 0 31.5 -0.5t49.5 -1t56.5 -1t52.5 -1.5v32q0 45 -5.5 70.5t-22.5 38t-47.5 16t-80.5 3.5q-22 0 -52 -1.5t-58.5 -4t-45.5 -5.5v66q38 7 85.5 10.5t98.5 3.5q54 0 91.5 -6.5t61 -20.5t35.5 -37
t16.5 -56t4.5 -77v-321h-73l-3 72h-6q-16 -35 -45.5 -52.5t-64.5 -22.5t-67 -5zM253 59q29 0 54 3.5t44 13.5t30 30q11 21 15.5 45.5t4.5 57.5v26h-170q-39 0 -60 -6t-28.5 -25t-7.5 -57q0 -37 9 -56t34.5 -25.5t74.5 -6.5zM142 595v6l102 134h85l102 -134v-6h-56l-89 96
l-88 -96h-56zM115 780q0 39 4.5 64t20.5 37.5t49 12.5q28 0 55 -7.5t54 -16.5q21 -7 40.5 -13t39.5 -6q22 0 26.5 11.5t4.5 42.5h47q0 -39 -4.5 -64t-20 -37.5t-48.5 -12.5q-30 0 -55.5 8t-53.5 16q-21 7 -41 13t-39 6q-22 0 -26.5 -11.5t-4.5 -42.5h-48z" />
    <glyph glyph-name="uni1EAC" unicode="&#x1eac;" horiz-adv-x="684" 
d="M28 0l260 688h108l259 -688h-89l-71 188h-309l-71 -188h-87zM212 263h257l-126 337h-5zM306 -192v76h72v-76h-72zM197 773v6l102 135h85l102 -135v-6h-56l-89 97l-88 -97h-56z" />
    <glyph glyph-name="uni1EAD" unicode="&#x1ead;" horiz-adv-x="569" 
d="M223 -8q-56 0 -93.5 13t-56 45t-18.5 90t13.5 91.5t47.5 47.5t95 14q10 0 31.5 -0.5t49.5 -1t56.5 -1t52.5 -1.5v32q0 45 -5.5 70.5t-22.5 38t-47.5 16t-80.5 3.5q-22 0 -52 -1.5t-58.5 -4t-45.5 -5.5v66q38 7 85.5 10.5t98.5 3.5q54 0 91.5 -6.5t61 -20.5t35.5 -37
t16.5 -56t4.5 -77v-321h-73l-3 72h-6q-16 -35 -45.5 -52.5t-64.5 -22.5t-67 -5zM253 59q29 0 54 3.5t44 13.5t30 30q11 21 15.5 45.5t4.5 57.5v26h-170q-39 0 -60 -6t-28.5 -25t-7.5 -57q0 -37 9 -56t34.5 -25.5t74.5 -6.5zM249 -192v76h72v-76h-72zM142 595v6l102 134h85
l102 -134v-6h-56l-89 96l-88 -96h-56z" />
    <glyph glyph-name="uni1EAE" unicode="&#x1eae;" horiz-adv-x="684" 
d="M28 0l260 688h108l259 -688h-89l-71 188h-309l-71 -188h-87zM212 263h257l-126 337h-5zM341 764q-49 0 -77 10.5t-40.5 30t-16 45.5t-3.5 58h53q0 -30 3.5 -51t21 -31.5t59.5 -10.5t59.5 10.5t21.5 31.5t4 51h53q0 -32 -3.5 -58t-16.5 -45.5t-41 -30t-77 -10.5zM289 945
v5l101 136h88v-5l-129 -136h-60z" />
    <glyph glyph-name="uni1EAF" unicode="&#x1eaf;" horiz-adv-x="569" 
d="M223 -8q-56 0 -93.5 13t-56 45t-18.5 90t13.5 91.5t47.5 47.5t95 14q10 0 31.5 -0.5t49.5 -1t56.5 -1t52.5 -1.5v32q0 45 -5.5 70.5t-22.5 38t-47.5 16t-80.5 3.5q-22 0 -52 -1.5t-58.5 -4t-45.5 -5.5v66q38 7 85.5 10.5t98.5 3.5q54 0 91.5 -6.5t61 -20.5t35.5 -37
t16.5 -56t4.5 -77v-321h-73l-3 72h-6q-16 -35 -45.5 -52.5t-64.5 -22.5t-67 -5zM253 59q29 0 54 3.5t44 13.5t30 30q11 21 15.5 45.5t4.5 57.5v26h-170q-39 0 -60 -6t-28.5 -25t-7.5 -57q0 -37 9 -56t34.5 -25.5t74.5 -6.5zM285 586q-49 0 -77 11t-40.5 30t-16 45.5
t-3.5 57.5h53q0 -30 3.5 -50.5t21 -31.5t59.5 -11t59.5 11t21.5 31.5t4 50.5h53q0 -31 -3.5 -57.5t-16.5 -45.5t-41 -30t-77 -11zM210 767v5l101 136h88v-5l-129 -136h-60z" />
    <glyph glyph-name="uni1EB0" unicode="&#x1eb0;" horiz-adv-x="684" 
d="M28 0l260 688h108l259 -688h-89l-71 188h-309l-71 -188h-87zM212 263h257l-126 337h-5zM341 764q-49 0 -77 11t-40.5 30t-16 45.5t-3.5 57.5h53q0 -30 3.5 -50.5t21 -31.5t59.5 -11t59.5 11t21.5 31.5t4 50.5h53q0 -31 -3.5 -57.5t-16.5 -45.5t-41 -30t-77 -11zM340 945
l-128 135v5h88l101 -135v-5h-61z" />
    <glyph glyph-name="uni1EB1" unicode="&#x1eb1;" horiz-adv-x="569" 
d="M223 -8q-56 0 -93.5 13t-56 45t-18.5 90t13.5 91.5t47.5 47.5t95 14q10 0 31.5 -0.5t49.5 -1t56.5 -1t52.5 -1.5v32q0 45 -5.5 70.5t-22.5 38t-47.5 16t-80.5 3.5q-22 0 -52 -1.5t-58.5 -4t-45.5 -5.5v66q38 7 85.5 10.5t98.5 3.5q54 0 91.5 -6.5t61 -20.5t35.5 -37
t16.5 -56t4.5 -77v-321h-73l-3 72h-6q-16 -35 -45.5 -52.5t-64.5 -22.5t-67 -5zM253 59q29 0 54 3.5t44 13.5t30 30q11 21 15.5 45.5t4.5 57.5v26h-170q-39 0 -60 -6t-28.5 -25t-7.5 -57q0 -37 9 -56t34.5 -25.5t74.5 -6.5zM285 586q-49 0 -76.5 11t-40.5 30t-16.5 45.5
t-3.5 57.5h53q0 -30 3.5 -50.5t21 -31.5t59.5 -11t60 11t21.5 31.5t3.5 50.5h54q0 -31 -3.5 -57.5t-17 -45.5t-41.5 -30t-77 -11zM285 767l-129 135v5h88l101 -135v-5h-60z" />
    <glyph glyph-name="uni1EB2" unicode="&#x1eb2;" horiz-adv-x="684" 
d="M28 0l260 688h108l259 -688h-89l-71 188h-309l-71 -188h-87zM212 263h257l-126 337h-5zM341 764q-49 0 -77 11t-40.5 30t-16 45.5t-3.5 57.5h53q0 -30 3.5 -50.5t21 -31.5t59.5 -11t59.5 11t21.5 31.5t4 50.5h53q0 -31 -3.5 -57.5t-16.5 -45.5t-41 -30t-77 -11zM297 931
v10q0 15 4 25.5t13.5 17.5t26.5 11l23 7q22 7 33.5 11.5t15 11t3.5 18.5q0 20 -8 27t-27 9t-53 2q-12 0 -30 -0.5t-37 -1.5t-36 -3v43q25 4 58 6t59 2q44 0 72.5 -5t43.5 -21.5t15 -51.5q0 -22 -5.5 -36t-18.5 -22.5t-38 -15.5l-25 -7q-19 -6 -27.5 -9.5t-10.5 -9.5t-2 -18
h-49z" />
    <glyph glyph-name="uni1EB3" unicode="&#x1eb3;" horiz-adv-x="569" 
d="M223 -8q-56 0 -93.5 13t-56 45t-18.5 90t13.5 91.5t47.5 47.5t95 14q10 0 31.5 -0.5t49.5 -1t56.5 -1t52.5 -1.5v32q0 45 -5.5 70.5t-22.5 38t-47.5 16t-80.5 3.5q-22 0 -52 -1.5t-58.5 -4t-45.5 -5.5v66q38 7 85.5 10.5t98.5 3.5q54 0 91.5 -6.5t61 -20.5t35.5 -37
t16.5 -56t4.5 -77v-321h-73l-3 72h-6q-16 -35 -45.5 -52.5t-64.5 -22.5t-67 -5zM253 59q29 0 54 3.5t44 13.5t30 30q11 21 15.5 45.5t4.5 57.5v26h-170q-39 0 -60 -6t-28.5 -25t-7.5 -57q0 -37 9 -56t34.5 -25.5t74.5 -6.5zM285 586q-49 0 -77 11t-40.5 30t-16 45.5
t-3.5 57.5h53q0 -30 3.5 -50.5t21 -31.5t59.5 -11t59.5 11t21.5 31.5t4 50.5h53q0 -31 -3.5 -57.5t-16.5 -45.5t-41 -30t-77 -11zM241 753v10q0 15 4 25.5t13.5 17.5t26.5 11l23 7q22 7 33.5 11.5t15 11t3.5 18.5q0 20 -8 27t-27 9t-53 2q-12 0 -30 -0.5t-37 -1.5t-36 -3v43
q25 4 58 6t59 2q44 0 72.5 -5t43.5 -21.5t15 -51.5q0 -22 -5.5 -36t-18.5 -22.5t-38 -15.5l-25 -7q-19 -6 -27.5 -9.5t-10.5 -9.5t-2 -18h-49z" />
    <glyph glyph-name="uni1EB4" unicode="&#x1eb4;" horiz-adv-x="684" 
d="M28 0l260 688h108l259 -688h-89l-71 188h-309l-71 -188h-87zM212 263h257l-126 337h-5zM341 764q-49 0 -77 10.5t-40.5 30t-16 45.5t-3.5 58h53q0 -30 3.5 -51t21 -31.5t59.5 -10.5t59.5 10.5t21.5 31.5t4 51h53q0 -32 -3.5 -58t-16.5 -45.5t-41 -30t-77 -10.5zM172 952
q0 40 4.5 65t20 37t48.5 12q28 0 55.5 -7.5t53.5 -16.5q21 -7 41 -13t40 -6q22 0 26.5 12t4.5 42h47q0 -39 -4.5 -64t-20 -37.5t-48.5 -12.5q-30 0 -56 8t-53 16q-21 7 -41.5 13.5t-39.5 6.5q-21 0 -26 -12t-5 -43h-47z" />
    <glyph glyph-name="uni1EB5" unicode="&#x1eb5;" horiz-adv-x="569" 
d="M223 -8q-56 0 -93.5 13t-56 45t-18.5 90t13.5 91.5t47.5 47.5t95 14q10 0 31.5 -0.5t49.5 -1t56.5 -1t52.5 -1.5v32q0 45 -5.5 70.5t-22.5 38t-47.5 16t-80.5 3.5q-22 0 -52 -1.5t-58.5 -4t-45.5 -5.5v66q38 7 85.5 10.5t98.5 3.5q54 0 91.5 -6.5t61 -20.5t35.5 -37
t16.5 -56t4.5 -77v-321h-73l-3 72h-6q-16 -35 -45.5 -52.5t-64.5 -22.5t-67 -5zM253 59q29 0 54 3.5t44 13.5t30 30q11 21 15.5 45.5t4.5 57.5v26h-170q-39 0 -60 -6t-28.5 -25t-7.5 -57q0 -37 9 -56t34.5 -25.5t74.5 -6.5zM285 586q-48 0 -76 11t-41 30t-16 45.5t-3 57.5
h52q0 -30 4 -50.5t21.5 -31.5t58.5 -11q42 0 60 11t22 31.5t4 50.5h53q0 -31 -3.5 -57.5t-16.5 -45.5t-41.5 -30t-77.5 -11zM115 774q0 40 4.5 65t20.5 37t49 12q28 0 55 -7.5t54 -16.5q21 -7 40.5 -13t39.5 -6q22 0 26.5 12t4.5 42h47q0 -39 -4.5 -64t-20 -37.5
t-48.5 -12.5q-30 0 -55.5 8t-53.5 16q-21 7 -41 13.5t-39 6.5q-22 0 -26.5 -12t-4.5 -43h-48z" />
    <glyph glyph-name="uni1EB6" unicode="&#x1eb6;" horiz-adv-x="684" 
d="M28 0l260 688h108l259 -688h-89l-71 188h-309l-71 -188h-87zM212 263h257l-126 337h-5zM306 -192v76h72v-76h-72zM341 764q-49 0 -77 10.5t-40.5 30t-16 45.5t-3.5 58h53q0 -30 3.5 -51t21 -31.5t59.5 -10.5t59.5 10.5t21.5 31.5t4 51h53q0 -32 -3.5 -58t-16.5 -45.5
t-41 -30t-77 -10.5z" />
    <glyph glyph-name="uni1EB7" unicode="&#x1eb7;" horiz-adv-x="569" 
d="M223 -8q-56 0 -93.5 13t-56 45t-18.5 90t13.5 91.5t47.5 47.5t95 14q10 0 31.5 -0.5t49.5 -1t56.5 -1t52.5 -1.5v32q0 45 -5.5 70.5t-22.5 38t-47.5 16t-80.5 3.5q-22 0 -52 -1.5t-58.5 -4t-45.5 -5.5v66q38 7 85.5 10.5t98.5 3.5q54 0 91.5 -6.5t61 -20.5t35.5 -37
t16.5 -56t4.5 -77v-321h-73l-3 72h-6q-16 -35 -45.5 -52.5t-64.5 -22.5t-67 -5zM253 59q29 0 54 3.5t44 13.5t30 30q11 21 15.5 45.5t4.5 57.5v26h-170q-39 0 -60 -6t-28.5 -25t-7.5 -57q0 -37 9 -56t34.5 -25.5t74.5 -6.5zM249 -192v76h72v-76h-72zM285 586q-49 0 -77 11
t-40.5 30t-16 45.5t-3.5 57.5h53q0 -30 3.5 -50.5t21 -31.5t59.5 -11t59.5 11t21.5 31.5t4 50.5h53q0 -31 -3.5 -57.5t-16.5 -45.5t-41 -30t-77 -11z" />
    <glyph glyph-name="uni1EB8" unicode="&#x1eb8;" horiz-adv-x="603" 
d="M100 0v688h447v-74h-361v-229h314v-75h-314v-236h361v-74h-447zM294 -192v76h72v-76h-72z" />
    <glyph glyph-name="uni1EB9" unicode="&#x1eb9;" horiz-adv-x="559" 
d="M294 -8q-62 0 -103.5 8t-66.5 26.5t-38 49t-17 74.5t-4 104q0 71 6 121.5t27.5 82t67.5 46t124 14.5q59 0 96.5 -9t59.5 -28t32.5 -50.5t13.5 -75t3 -100.5v-27h-349q0 -52 5 -85t20.5 -51t49 -25t91.5 -7q24 0 53 1.5t58 4.5t52 6v-66q-21 -4 -51.5 -7t-64 -5t-65.5 -2z
M416 269v27q0 52 -6 82.5t-20.5 46t-39.5 20.5t-62 5q-48 0 -76 -6.5t-42 -23.5t-19 -49t-5 -85h289zM244 -192v76h72v-76h-72z" />
    <glyph glyph-name="uni1EBA" unicode="&#x1eba;" horiz-adv-x="603" 
d="M100 0v688h447v-74h-361v-229h314v-75h-314v-236h361v-74h-447zM285 759v10q0 15 4 25t13.5 17t26.5 12l23 6q22 7 33.5 12t14.5 11.5t3 18.5q0 19 -7.5 26.5t-26.5 9.5t-53 2q-12 0 -30 -0.5t-37.5 -1.5t-35.5 -3v43q25 3 58 5.5t59 2.5q43 0 72 -5t43.5 -21.5
t14.5 -51.5q0 -22 -5 -36t-18 -23t-38 -16l-25 -7q-19 -5 -28 -9t-11 -9.5t-2 -17.5h-48z" />
    <glyph glyph-name="uni1EBB" unicode="&#x1ebb;" horiz-adv-x="559" 
d="M294 -8q-62 0 -103.5 8t-66.5 26.5t-38 49t-17 74.5t-4 104q0 71 6 121.5t27.5 82t67.5 46t124 14.5q59 0 96.5 -9t59.5 -28t32.5 -50.5t13.5 -75t3 -100.5v-27h-349q0 -52 5 -85t20.5 -51t49 -25t91.5 -7q24 0 53 1.5t58 4.5t52 6v-66q-21 -4 -51.5 -7t-64 -5t-65.5 -2z
M416 269v27q0 52 -6 82.5t-20.5 46t-39.5 20.5t-62 5q-48 0 -76 -6.5t-42 -23.5t-19 -49t-5 -85h289zM240 581v10q0 15 4 25t13.5 17t26.5 12l23 6q22 7 33.5 12t14.5 11.5t3 18.5q0 19 -7.5 26.5t-26.5 9.5t-53 2q-12 0 -30 -0.5t-37.5 -1.5t-35.5 -3v43q25 3 58 5.5
t59 2.5q43 0 72 -5t43.5 -21.5t14.5 -51.5q0 -22 -5 -36t-18 -23t-38 -16l-25 -7q-19 -5 -28 -9t-11 -9.5t-2 -17.5h-48z" />
    <glyph glyph-name="uni1EBC" unicode="&#x1ebc;" horiz-adv-x="603" 
d="M100 0v688h447v-74h-361v-229h314v-75h-314v-236h361v-74h-447zM159 780q0 39 4.5 64t20.5 37.5t49 12.5q28 0 55 -7.5t54 -16.5q21 -7 40.5 -13t39.5 -6q22 0 26.5 11.5t4.5 42.5h47q0 -39 -4.5 -64t-20 -37.5t-48.5 -12.5q-30 0 -55.5 8t-53.5 16q-21 7 -41 13t-39 6
q-22 0 -26.5 -11.5t-4.5 -42.5h-48z" />
    <glyph glyph-name="uni1EBD" unicode="&#x1ebd;" horiz-adv-x="559" 
d="M294 -8q-62 0 -103.5 8t-66.5 26.5t-38 49t-17 74.5t-4 104q0 71 6 121.5t27.5 82t67.5 46t124 14.5q59 0 96.5 -9t59.5 -28t32.5 -50.5t13.5 -75t3 -100.5v-27h-349q0 -52 5 -85t20.5 -51t49 -25t91.5 -7q24 0 53 1.5t58 4.5t52 6v-66q-21 -4 -51.5 -7t-64 -5t-65.5 -2z
M416 269v27q0 52 -6 82.5t-20.5 46t-39.5 20.5t-62 5q-48 0 -76 -6.5t-42 -23.5t-19 -49t-5 -85h289zM114 602q0 39 4.5 64t20.5 37.5t49 12.5q28 0 55 -7.5t54 -16.5q21 -7 40.5 -13t39.5 -6q22 0 26.5 11.5t4.5 42.5h47q0 -39 -4.5 -64t-20 -37.5t-48.5 -12.5
q-30 0 -55.5 8t-53.5 16q-21 7 -41 13t-39 6q-22 0 -26.5 -11.5t-4.5 -42.5h-48z" />
    <glyph glyph-name="uni1EBE" unicode="&#x1ebe;" horiz-adv-x="603" 
d="M100 0v688h447v-74h-361v-229h314v-75h-314v-236h361v-74h-447zM185 773v6l102 135h85l102 -135v-6h-56l-89 97l-88 -97h-56zM277 951v5l101 135h88v-5l-129 -135h-60z" />
    <glyph glyph-name="uni1EBF" unicode="&#x1ebf;" horiz-adv-x="559" 
d="M294 -8q-62 0 -103.5 8t-66.5 26.5t-38 49t-17 74.5t-4 104q0 71 6 121.5t27.5 82t67.5 46t124 14.5q59 0 96.5 -9t59.5 -28t32.5 -50.5t13.5 -75t3 -100.5v-27h-349q0 -52 5 -85t20.5 -51t49 -25t91.5 -7q24 0 53 1.5t58 4.5t52 6v-66q-21 -4 -51.5 -7t-64 -5t-65.5 -2z
M416 269v27q0 52 -6 82.5t-20.5 46t-39.5 20.5t-62 5q-48 0 -76 -6.5t-42 -23.5t-19 -49t-5 -85h289zM141 595v6l102 134h85l102 -134v-6h-56l-89 96l-88 -96h-56zM209 773v5l102 135h87v-5l-128 -135h-61z" />
    <glyph glyph-name="uni1EC0" unicode="&#x1ec0;" horiz-adv-x="603" 
d="M100 0v688h447v-74h-361v-229h314v-75h-314v-236h361v-74h-447zM185 773v6l102 135h85l102 -135v-6h-56l-89 97l-88 -97h-56zM324 951l-129 135v5h88l101 -135v-5h-60z" />
    <glyph glyph-name="uni1EC1" unicode="&#x1ec1;" horiz-adv-x="559" 
d="M294 -8q-62 0 -103.5 8t-66.5 26.5t-38 49t-17 74.5t-4 104q0 71 6 121.5t27.5 82t67.5 46t124 14.5q59 0 96.5 -9t59.5 -28t32.5 -50.5t13.5 -75t3 -100.5v-27h-349q0 -52 5 -85t20.5 -51t49 -25t91.5 -7q24 0 53 1.5t58 4.5t52 6v-66q-21 -4 -51.5 -7t-64 -5t-65.5 -2z
M416 269v27q0 52 -6 82.5t-20.5 46t-39.5 20.5t-62 5q-48 0 -76 -6.5t-42 -23.5t-19 -49t-5 -85h289zM141 595v6l102 134h85l102 -134v-6h-56l-89 96l-88 -96h-56zM284 773l-129 135v5h88l101 -135v-5h-60z" />
    <glyph glyph-name="uni1EC2" unicode="&#x1ec2;" horiz-adv-x="603" 
d="M100 0v688h447v-74h-361v-229h314v-75h-314v-236h361v-74h-447zM185 773v6l102 135h85l102 -135v-6h-56l-89 97l-88 -97h-56zM284 937v10q0 15 4 25t13.5 17t27.5 12l22 6q23 7 34 12t14.5 11.5t3.5 18.5q0 19 -7.5 26.5t-26.5 9.5t-54 2q-12 0 -29.5 -0.5t-37 -1.5
t-35.5 -3v43q24 3 57 5.5t59 2.5q44 0 73 -5t43.5 -21.5t14.5 -51.5q0 -22 -5 -36t-18.5 -23t-38.5 -16l-24 -7q-20 -5 -28.5 -9t-10.5 -9.5t-2 -17.5h-49z" />
    <glyph glyph-name="uni1EC3" unicode="&#x1ec3;" horiz-adv-x="559" 
d="M294 -8q-62 0 -103.5 8t-66.5 26.5t-38 49t-17 74.5t-4 104q0 71 6 121.5t27.5 82t67.5 46t124 14.5q59 0 96.5 -9t59.5 -28t32.5 -50.5t13.5 -75t3 -100.5v-27h-349q0 -52 5 -85t20.5 -51t49 -25t91.5 -7q24 0 53 1.5t58 4.5t52 6v-66q-21 -4 -51.5 -7t-64 -5t-65.5 -2z
M416 269v27q0 52 -6 82.5t-20.5 46t-39.5 20.5t-62 5q-48 0 -76 -6.5t-42 -23.5t-19 -49t-5 -85h289zM141 595v6l102 134h85l102 -134v-6h-56l-89 96l-88 -96h-56zM240 759v10q0 15 4 25t13.5 17t27.5 12l22 6q23 7 34 12t14.5 11.5t3.5 18.5q0 19 -7.5 26.5t-26.5 9.5
t-54 2q-12 0 -29.5 -0.5t-37 -1.5t-35.5 -3v43q24 3 57 5.5t59 2.5q44 0 73 -5t43.5 -21.5t14.5 -51.5q0 -22 -5 -36t-18.5 -23t-38.5 -16l-24 -7q-20 -5 -28.5 -9t-10.5 -9.5t-2 -17.5h-49z" />
    <glyph glyph-name="uni1EC4" unicode="&#x1ec4;" horiz-adv-x="603" 
d="M100 0v688h447v-74h-361v-229h314v-75h-314v-236h361v-74h-447zM185 773v6l102 135h85l102 -135v-6h-56l-89 97l-88 -97h-56zM159 958q0 39 4.5 64t20.5 37.5t49 12.5q28 0 55 -7.5t54 -16.5q21 -7 40.5 -13t39.5 -6q22 0 26.5 11.5t4.5 42.5h47q0 -39 -4.5 -64
t-20 -37.5t-48.5 -12.5q-30 0 -56 8t-53 16q-21 7 -41 13t-39 6q-22 0 -26.5 -11.5t-4.5 -42.5h-48z" />
    <glyph glyph-name="uni1EC5" unicode="&#x1ec5;" horiz-adv-x="559" 
d="M294 -8q-62 0 -103.5 8t-66.5 26.5t-38 49t-17 74.5t-4 104q0 71 6 121.5t27.5 82t67.5 46t124 14.5q59 0 96.5 -9t59.5 -28t32.5 -50.5t13.5 -75t3 -100.5v-27h-349q0 -52 5 -85t20.5 -51t49 -25t91.5 -7q24 0 53 1.5t58 4.5t52 6v-66q-21 -4 -51.5 -7t-64 -5t-65.5 -2z
M416 269v27q0 52 -6 82.5t-20.5 46t-39.5 20.5t-62 5q-48 0 -76 -6.5t-42 -23.5t-19 -49t-5 -85h289zM141 595v6l102 134h85l102 -134v-6h-56l-89 96l-88 -96h-56zM114 780q0 39 4.5 64t20.5 37.5t49 12.5q28 0 55 -7.5t54 -16.5q21 -7 40.5 -13t39.5 -6q22 0 26.5 11.5
t4.5 42.5h47q0 -39 -4.5 -64t-20 -37.5t-48.5 -12.5q-30 0 -55.5 8t-53.5 16q-21 7 -41 13t-39 6q-22 0 -26.5 -11.5t-4.5 -42.5h-48z" />
    <glyph glyph-name="uni1EC6" unicode="&#x1ec6;" horiz-adv-x="603" 
d="M100 0v688h447v-74h-361v-229h314v-75h-314v-236h361v-74h-447zM294 -192v76h72v-76h-72zM185 773v6l102 135h85l102 -135v-6h-56l-89 97l-88 -97h-56z" />
    <glyph glyph-name="uni1EC7" unicode="&#x1ec7;" horiz-adv-x="559" 
d="M294 -8q-62 0 -103.5 8t-66.5 26.5t-38 49t-17 74.5t-4 104q0 71 6 121.5t27.5 82t67.5 46t124 14.5q59 0 96.5 -9t59.5 -28t32.5 -50.5t13.5 -75t3 -100.5v-27h-349q0 -52 5 -85t20.5 -51t49 -25t91.5 -7q24 0 53 1.5t58 4.5t52 6v-66q-21 -4 -51.5 -7t-64 -5t-65.5 -2z
M416 269v27q0 52 -6 82.5t-20.5 46t-39.5 20.5t-62 5q-48 0 -76 -6.5t-42 -23.5t-19 -49t-5 -85h289zM244 -192v76h72v-76h-72zM141 595v6l102 134h85l102 -134v-6h-56l-89 96l-88 -96h-56z" />
    <glyph glyph-name="uni1EC8" unicode="&#x1ec8;" horiz-adv-x="286" 
d="M100 0v688h86v-688h-86zM98 759v10q0 15 4 25t13.5 17t26.5 12l23 6q22 7 33.5 12t14.5 11.5t3 18.5q0 19 -7.5 26.5t-26.5 9.5t-53 2q-12 0 -30 -0.5t-37.5 -1.5t-35.5 -3v43q25 3 58 5.5t59 2.5q43 0 72 -5t43.5 -21.5t14.5 -51.5q0 -22 -5 -36t-18 -23t-38 -16l-25 -7
q-19 -5 -28 -9t-11 -9.5t-2 -17.5h-48z" />
    <glyph glyph-name="uni1EC9" unicode="&#x1ec9;" horiz-adv-x="254" 
d="M86 0v510h82v-510h-82zM82 581v10q0 15 4 25t13.5 17t26.5 12l23 6q22 7 33.5 12t14.5 11.5t3 18.5q0 19 -7.5 26.5t-26.5 9.5t-53 2q-12 0 -30 -0.5t-37.5 -1.5t-35.5 -3v43q25 3 58 5.5t59 2.5q43 0 72 -5t43.5 -21.5t14.5 -51.5q0 -22 -5 -36t-18 -23t-38 -16l-25 -7
q-19 -5 -28 -9t-11 -9.5t-2 -17.5h-48z" />
    <glyph glyph-name="uni1ECA" unicode="&#x1eca;" horiz-adv-x="286" 
d="M100 0v688h86v-688h-86zM107 -192v76h72v-76h-72z" />
    <glyph glyph-name="uni1ECB" unicode="&#x1ecb;" horiz-adv-x="254" 
d="M84 654v89h87v-89h-87zM86 0v510h82v-510h-82zM91 -192v76h72v-76h-72z" />
    <glyph glyph-name="uni1ECC" unicode="&#x1ecc;" horiz-adv-x="717" 
d="M358 -8q-80 0 -132.5 8.5t-83 30.5t-44.5 61.5t-18 101t-4 150.5t4 150.5t18 101t44.5 61.5t83 30.5t132.5 8.5t132.5 -8.5t83 -30.5t44.5 -61.5t18 -101t4 -150.5t-4 -150.5t-18 -101t-44.5 -61.5t-83 -30.5t-132.5 -8.5zM358 66q55 0 91 3.5t57 16.5t32 42.5t13.5 81.5
t2.5 134t-2.5 134t-13.5 81.5t-32 42.5t-57 16.5t-91 3.5t-90.5 -3.5t-57 -16.5t-32 -42.5t-13.5 -81.5t-3 -134t3 -134t13.5 -81.5t32 -42.5t57 -16.5t90.5 -3.5zM323 -192v76h72v-76h-72z" />
    <glyph glyph-name="uni1ECD" unicode="&#x1ecd;" horiz-adv-x="577" 
d="M288 -8q-63 0 -104.5 7.5t-65.5 24.5t-35.5 47t-14.5 75.5t-3 108.5t3 108.5t14.5 75.5t35.5 47t65.5 24.5t104.5 7.5q64 0 105 -7.5t65.5 -24.5t36 -47t14.5 -75.5t3 -108.5t-3 -108.5t-14.5 -75.5t-36 -47t-65.5 -24.5t-105 -7.5zM288 61q54 0 83 7t41.5 27t15 58.5
t2.5 101.5t-2.5 101.5t-15 58.5t-41.5 27t-83 7q-53 0 -82.5 -7t-41.5 -27t-15 -58.5t-3 -101.5t3 -101.5t15 -58.5t41.5 -27t82.5 -7zM252 -192v76h72v-76h-72z" />
    <glyph glyph-name="uni1ECE" unicode="&#x1ece;" horiz-adv-x="717" 
d="M358 -8q-80 0 -132.5 8.5t-83 30.5t-44.5 61.5t-18 101t-4 150.5t4 150.5t18 101t44.5 61.5t83 30.5t132.5 8.5t132.5 -8.5t83 -30.5t44.5 -61.5t18 -101t4 -150.5t-4 -150.5t-18 -101t-44.5 -61.5t-83 -30.5t-132.5 -8.5zM358 66q55 0 91 3.5t57 16.5t32 42.5t13.5 81.5
t2.5 134t-2.5 134t-13.5 81.5t-32 42.5t-57 16.5t-91 3.5t-90.5 -3.5t-57 -16.5t-32 -42.5t-13.5 -81.5t-3 -134t3 -134t13.5 -81.5t32 -42.5t57 -16.5t90.5 -3.5zM314 759v10q0 15 4 25t13.5 17t26.5 12l23 6q22 7 33.5 12t14.5 11.5t3 18.5q0 19 -7.5 26.5t-26.5 9.5
t-53 2q-12 0 -30 -0.5t-37.5 -1.5t-35.5 -3v43q25 3 58 5.5t59 2.5q43 0 72 -5t43.5 -21.5t14.5 -51.5q0 -22 -5 -36t-18 -23t-38 -16l-25 -7q-19 -5 -28 -9t-11 -9.5t-2 -17.5h-48z" />
    <glyph glyph-name="uni1ECF" unicode="&#x1ecf;" horiz-adv-x="577" 
d="M288 -8q-63 0 -104.5 7.5t-65.5 24.5t-35.5 47t-14.5 75.5t-3 108.5t3 108.5t14.5 75.5t35.5 47t65.5 24.5t104.5 7.5q64 0 105 -7.5t65.5 -24.5t36 -47t14.5 -75.5t3 -108.5t-3 -108.5t-14.5 -75.5t-36 -47t-65.5 -24.5t-105 -7.5zM288 61q54 0 83 7t41.5 27t15 58.5
t2.5 101.5t-2.5 101.5t-15 58.5t-41.5 27t-83 7q-53 0 -82.5 -7t-41.5 -27t-15 -58.5t-3 -101.5t3 -101.5t15 -58.5t41.5 -27t82.5 -7zM243 581v10q0 15 4 25t13.5 17t26.5 12l23 6q22 7 33.5 12t14.5 11.5t3 18.5q0 19 -7.5 26.5t-26.5 9.5t-53 2q-12 0 -30 -0.5
t-37.5 -1.5t-35.5 -3v43q25 3 58 5.5t59 2.5q43 0 72 -5t43.5 -21.5t14.5 -51.5q0 -22 -5 -36t-18 -23t-38 -16l-25 -7q-19 -5 -28 -9t-11 -9.5t-2 -17.5h-48z" />
    <glyph glyph-name="uni1ED0" unicode="&#x1ed0;" horiz-adv-x="717" 
d="M358 -8q-80 0 -132.5 8.5t-83 30.5t-44.5 61.5t-18 101t-4 150.5t4 150.5t18 101t44.5 61.5t83 30.5t132.5 8.5t132.5 -8.5t83 -30.5t44.5 -61.5t18 -101t4 -150.5t-4 -150.5t-18 -101t-44.5 -61.5t-83 -30.5t-132.5 -8.5zM358 66q55 0 91 3.5t57 16.5t32 42.5t13.5 81.5
t2.5 134t-2.5 134t-13.5 81.5t-32 42.5t-57 16.5t-91 3.5t-90.5 -3.5t-57 -16.5t-32 -42.5t-13.5 -81.5t-3 -134t3 -134t13.5 -81.5t32 -42.5t57 -16.5t90.5 -3.5zM214 773v6l102 135h85l102 -135v-6h-56l-89 97l-88 -97h-56zM306 951v5l101 135h88v-5l-129 -135h-60z" />
    <glyph glyph-name="uni1ED1" unicode="&#x1ed1;" horiz-adv-x="577" 
d="M288 -8q-63 0 -104.5 7.5t-65.5 24.5t-35.5 47t-14.5 75.5t-3 108.5t3 108.5t14.5 75.5t35.5 47t65.5 24.5t104.5 7.5q64 0 105 -7.5t65.5 -24.5t36 -47t14.5 -75.5t3 -108.5t-3 -108.5t-14.5 -75.5t-36 -47t-65.5 -24.5t-105 -7.5zM288 61q54 0 83 7t41.5 27t15 58.5
t2.5 101.5t-2.5 101.5t-15 58.5t-41.5 27t-83 7q-53 0 -82.5 -7t-41.5 -27t-15 -58.5t-3 -101.5t3 -101.5t15 -58.5t41.5 -27t82.5 -7zM144 595v6l102 134h85l102 -134v-6h-56l-89 96l-88 -96h-56zM212 773v5l102 135h87v-5l-128 -135h-61z" />
    <glyph glyph-name="uni1ED2" unicode="&#x1ed2;" horiz-adv-x="717" 
d="M358 -8q-80 0 -132.5 8.5t-83 30.5t-44.5 61.5t-18 101t-4 150.5t4 150.5t18 101t44.5 61.5t83 30.5t132.5 8.5t132.5 -8.5t83 -30.5t44.5 -61.5t18 -101t4 -150.5t-4 -150.5t-18 -101t-44.5 -61.5t-83 -30.5t-132.5 -8.5zM358 66q55 0 91 3.5t57 16.5t32 42.5t13.5 81.5
t2.5 134t-2.5 134t-13.5 81.5t-32 42.5t-57 16.5t-91 3.5t-90.5 -3.5t-57 -16.5t-32 -42.5t-13.5 -81.5t-3 -134t3 -134t13.5 -81.5t32 -42.5t57 -16.5t90.5 -3.5zM214 773v6l102 135h85l102 -135v-6h-56l-89 97l-88 -97h-56zM353 951l-129 135v5h88l101 -135v-5h-60z" />
    <glyph glyph-name="uni1ED3" unicode="&#x1ed3;" horiz-adv-x="577" 
d="M288 -8q-63 0 -104.5 7.5t-65.5 24.5t-35.5 47t-14.5 75.5t-3 108.5t3 108.5t14.5 75.5t35.5 47t65.5 24.5t104.5 7.5q64 0 105 -7.5t65.5 -24.5t36 -47t14.5 -75.5t3 -108.5t-3 -108.5t-14.5 -75.5t-36 -47t-65.5 -24.5t-105 -7.5zM288 61q54 0 83 7t41.5 27t15 58.5
t2.5 101.5t-2.5 101.5t-15 58.5t-41.5 27t-83 7q-53 0 -82.5 -7t-41.5 -27t-15 -58.5t-3 -101.5t3 -101.5t15 -58.5t41.5 -27t82.5 -7zM144 595v6l102 134h85l102 -134v-6h-56l-89 96l-88 -96h-56zM287 773l-129 135v5h88l101 -135v-5h-60z" />
    <glyph glyph-name="uni1ED4" unicode="&#x1ed4;" horiz-adv-x="717" 
d="M358 -8q-80 0 -132.5 8.5t-83 30.5t-44.5 61.5t-18 101t-4 150.5t4 150.5t18 101t44.5 61.5t83 30.5t132.5 8.5t132.5 -8.5t83 -30.5t44.5 -61.5t18 -101t4 -150.5t-4 -150.5t-18 -101t-44.5 -61.5t-83 -30.5t-132.5 -8.5zM358 66q55 0 91 3.5t57 16.5t32 42.5t13.5 81.5
t2.5 134t-2.5 134t-13.5 81.5t-32 42.5t-57 16.5t-91 3.5t-90.5 -3.5t-57 -16.5t-32 -42.5t-13.5 -81.5t-3 -134t3 -134t13.5 -81.5t32 -42.5t57 -16.5t90.5 -3.5zM214 773v6l102 135h85l102 -135v-6h-56l-89 97l-88 -97h-56zM313 937v10q0 15 4 25t13.5 17t27.5 12l22 6
q23 7 34 12t14.5 11.5t3.5 18.5q0 19 -7.5 26.5t-26.5 9.5t-54 2q-12 0 -29.5 -0.5t-37 -1.5t-35.5 -3v43q24 3 57 5.5t59 2.5q44 0 73 -5t43.5 -21.5t14.5 -51.5q0 -22 -5 -36t-18.5 -23t-38.5 -16l-24 -7q-20 -5 -28.5 -9t-10.5 -9.5t-2 -17.5h-49z" />
    <glyph glyph-name="uni1ED5" unicode="&#x1ed5;" horiz-adv-x="577" 
d="M288 -8q-63 0 -104.5 7.5t-65.5 24.5t-35.5 47t-14.5 75.5t-3 108.5t3 108.5t14.5 75.5t35.5 47t65.5 24.5t104.5 7.5q64 0 105 -7.5t65.5 -24.5t36 -47t14.5 -75.5t3 -108.5t-3 -108.5t-14.5 -75.5t-36 -47t-65.5 -24.5t-105 -7.5zM288 61q54 0 83 7t41.5 27t15 58.5
t2.5 101.5t-2.5 101.5t-15 58.5t-41.5 27t-83 7q-53 0 -82.5 -7t-41.5 -27t-15 -58.5t-3 -101.5t3 -101.5t15 -58.5t41.5 -27t82.5 -7zM144 595v6l102 134h85l102 -134v-6h-56l-89 96l-88 -96h-56zM243 759v10q0 15 4 25t13.5 17t27.5 12l22 6q23 7 34 12t14.5 11.5
t3.5 18.5q0 19 -7.5 26.5t-26.5 9.5t-54 2q-12 0 -29.5 -0.5t-37 -1.5t-35.5 -3v43q24 3 57 5.5t59 2.5q44 0 73 -5t43.5 -21.5t14.5 -51.5q0 -22 -5 -36t-18.5 -23t-38.5 -16l-24 -7q-20 -5 -28.5 -9t-10.5 -9.5t-2 -17.5h-49z" />
    <glyph glyph-name="uni1ED6" unicode="&#x1ed6;" horiz-adv-x="717" 
d="M358 -8q-80 0 -132.5 8.5t-83 30.5t-44.5 61.5t-18 101t-4 150.5t4 150.5t18 101t44.5 61.5t83 30.5t132.5 8.5t132.5 -8.5t83 -30.5t44.5 -61.5t18 -101t4 -150.5t-4 -150.5t-18 -101t-44.5 -61.5t-83 -30.5t-132.5 -8.5zM358 66q55 0 91 3.5t57 16.5t32 42.5t13.5 81.5
t2.5 134t-2.5 134t-13.5 81.5t-32 42.5t-57 16.5t-91 3.5t-90.5 -3.5t-57 -16.5t-32 -42.5t-13.5 -81.5t-3 -134t3 -134t13.5 -81.5t32 -42.5t57 -16.5t90.5 -3.5zM214 773v6l102 135h85l102 -135v-6h-56l-89 97l-88 -97h-56zM188 958q0 39 4.5 64t20.5 37.5t49 12.5
q28 0 55 -7.5t54 -16.5q21 -7 40.5 -13t39.5 -6q22 0 26.5 11.5t4.5 42.5h47q0 -39 -4.5 -64t-20 -37.5t-48.5 -12.5q-30 0 -56 8t-53 16q-21 7 -41 13t-39 6q-22 0 -26.5 -11.5t-4.5 -42.5h-48z" />
    <glyph glyph-name="uni1ED7" unicode="&#x1ed7;" horiz-adv-x="577" 
d="M288 -8q-63 0 -104.5 7.5t-65.5 24.5t-35.5 47t-14.5 75.5t-3 108.5t3 108.5t14.5 75.5t35.5 47t65.5 24.5t104.5 7.5q64 0 105 -7.5t65.5 -24.5t36 -47t14.5 -75.5t3 -108.5t-3 -108.5t-14.5 -75.5t-36 -47t-65.5 -24.5t-105 -7.5zM288 61q54 0 83 7t41.5 27t15 58.5
t2.5 101.5t-2.5 101.5t-15 58.5t-41.5 27t-83 7q-53 0 -82.5 -7t-41.5 -27t-15 -58.5t-3 -101.5t3 -101.5t15 -58.5t41.5 -27t82.5 -7zM144 595v6l102 134h85l102 -134v-6h-56l-89 96l-88 -96h-56zM117 780q0 39 4.5 64t20.5 37.5t49 12.5q28 0 55 -7.5t54 -16.5
q21 -7 40.5 -13t39.5 -6q22 0 26.5 11.5t4.5 42.5h47q0 -39 -4.5 -64t-20 -37.5t-48.5 -12.5q-30 0 -55.5 8t-53.5 16q-21 7 -41 13t-39 6q-22 0 -26.5 -11.5t-4.5 -42.5h-48z" />
    <glyph glyph-name="uni1ED8" unicode="&#x1ed8;" horiz-adv-x="717" 
d="M358 -8q-80 0 -132.5 8.5t-83 30.5t-44.5 61.5t-18 101t-4 150.5t4 150.5t18 101t44.5 61.5t83 30.5t132.5 8.5t132.5 -8.5t83 -30.5t44.5 -61.5t18 -101t4 -150.5t-4 -150.5t-18 -101t-44.5 -61.5t-83 -30.5t-132.5 -8.5zM358 66q55 0 91 3.5t57 16.5t32 42.5t13.5 81.5
t2.5 134t-2.5 134t-13.5 81.5t-32 42.5t-57 16.5t-91 3.5t-90.5 -3.5t-57 -16.5t-32 -42.5t-13.5 -81.5t-3 -134t3 -134t13.5 -81.5t32 -42.5t57 -16.5t90.5 -3.5zM323 -192v76h72v-76h-72zM214 773v6l102 135h85l102 -135v-6h-56l-89 97l-88 -97h-56z" />
    <glyph glyph-name="uni1ED9" unicode="&#x1ed9;" horiz-adv-x="577" 
d="M288 -8q-63 0 -104.5 7.5t-65.5 24.5t-35.5 47t-14.5 75.5t-3 108.5t3 108.5t14.5 75.5t35.5 47t65.5 24.5t104.5 7.5q64 0 105 -7.5t65.5 -24.5t36 -47t14.5 -75.5t3 -108.5t-3 -108.5t-14.5 -75.5t-36 -47t-65.5 -24.5t-105 -7.5zM288 61q54 0 83 7t41.5 27t15 58.5
t2.5 101.5t-2.5 101.5t-15 58.5t-41.5 27t-83 7q-53 0 -82.5 -7t-41.5 -27t-15 -58.5t-3 -101.5t3 -101.5t15 -58.5t41.5 -27t82.5 -7zM252 -192v76h72v-76h-72zM144 595v6l102 134h85l102 -134v-6h-56l-89 96l-88 -96h-56z" />
    <glyph glyph-name="uni1EDA" unicode="&#x1eda;" horiz-adv-x="717" 
d="M476 649v39h66q38 0 47 13t9 50v31h59v-23q0 -33 -4.5 -54.5t-16.5 -33.5t-35 -17t-59 -5h-66zM358 -8q-80 0 -132.5 8.5t-83 30.5t-44.5 61.5t-18 101t-4 150.5t4 150.5t18 101t44.5 61.5t83 30.5t132.5 8.5t132.5 -8.5t83 -30.5t44.5 -61.5t18 -101t4 -150.5t-4 -150.5
t-18 -101t-44.5 -61.5t-83 -30.5t-132.5 -8.5zM358 66q55 0 91 3.5t57 16.5t32 42.5t13.5 81.5t2.5 134t-2.5 134t-13.5 81.5t-32 42.5t-57 16.5t-91 3.5t-90.5 -3.5t-57 -16.5t-32 -42.5t-13.5 -81.5t-3 -134t3 -134t13.5 -81.5t32 -42.5t57 -16.5t90.5 -3.5zM306 773v5
l101 135h88v-5l-129 -135h-60z" />
    <glyph glyph-name="uni1EDB" unicode="&#x1edb;" horiz-adv-x="577" 
d="M353 471v39h66q38 0 47 13t9 50v31h59v-23q0 -33 -4.5 -54.5t-16.5 -33.5t-35 -17t-59 -5h-66zM288 -8q-63 0 -104.5 7.5t-65.5 24.5t-35.5 47t-14.5 75.5t-3 108.5t3 108.5t14.5 75.5t35.5 47t65.5 24.5t104.5 7.5q64 0 105 -7.5t65.5 -24.5t36 -47t14.5 -75.5t3 -108.5
t-3 -108.5t-14.5 -75.5t-36 -47t-65.5 -24.5t-105 -7.5zM288 61q54 0 83 7t41.5 27t15 58.5t2.5 101.5t-2.5 101.5t-15 58.5t-41.5 27t-83 7q-53 0 -82.5 -7t-41.5 -27t-15 -58.5t-3 -101.5t3 -101.5t15 -58.5t41.5 -27t82.5 -7zM212 595v5l101 135h88v-5l-129 -135h-60z
" />
    <glyph glyph-name="uni1EDC" unicode="&#x1edc;" horiz-adv-x="717" 
d="M476 649v39h66q38 0 47 13t9 50v31h59v-23q0 -33 -4.5 -54.5t-16.5 -33.5t-35 -17t-59 -5h-66zM358 -8q-80 0 -132.5 8.5t-83 30.5t-44.5 61.5t-18 101t-4 150.5t4 150.5t18 101t44.5 61.5t83 30.5t132.5 8.5t132.5 -8.5t83 -30.5t44.5 -61.5t18 -101t4 -150.5t-4 -150.5
t-18 -101t-44.5 -61.5t-83 -30.5t-132.5 -8.5zM358 66q55 0 91 3.5t57 16.5t32 42.5t13.5 81.5t2.5 134t-2.5 134t-13.5 81.5t-32 42.5t-57 16.5t-91 3.5t-90.5 -3.5t-57 -16.5t-32 -42.5t-13.5 -81.5t-3 -134t3 -134t13.5 -81.5t32 -42.5t57 -16.5t90.5 -3.5zM353 773
l-129 135v5h88l101 -135v-5h-60z" />
    <glyph glyph-name="uni1EDD" unicode="&#x1edd;" horiz-adv-x="577" 
d="M353 471v39h66q38 0 47 13t9 50v31h59v-23q0 -33 -4.5 -54.5t-16.5 -33.5t-35 -17t-59 -5h-66zM288 -8q-63 0 -104.5 7.5t-65.5 24.5t-35.5 47t-14.5 75.5t-3 108.5t3 108.5t14.5 75.5t35.5 47t65.5 24.5t104.5 7.5q64 0 105 -7.5t65.5 -24.5t36 -47t14.5 -75.5t3 -108.5
t-3 -108.5t-14.5 -75.5t-36 -47t-65.5 -24.5t-105 -7.5zM288 61q54 0 83 7t41.5 27t15 58.5t2.5 101.5t-2.5 101.5t-15 58.5t-41.5 27t-83 7q-53 0 -82.5 -7t-41.5 -27t-15 -58.5t-3 -101.5t3 -101.5t15 -58.5t41.5 -27t82.5 -7zM287 595l-129 135v5h88l101 -135v-5h-60z
" />
    <glyph glyph-name="uni1EDE" unicode="&#x1ede;" horiz-adv-x="717" 
d="M476 649v39h66q38 0 47 13t9 50v31h59v-23q0 -33 -4.5 -54.5t-16.5 -33.5t-35 -17t-59 -5h-66zM358 -8q-80 0 -132.5 8.5t-83 30.5t-44.5 61.5t-18 101t-4 150.5t4 150.5t18 101t44.5 61.5t83 30.5t132.5 8.5t132.5 -8.5t83 -30.5t44.5 -61.5t18 -101t4 -150.5t-4 -150.5
t-18 -101t-44.5 -61.5t-83 -30.5t-132.5 -8.5zM358 66q55 0 91 3.5t57 16.5t32 42.5t13.5 81.5t2.5 134t-2.5 134t-13.5 81.5t-32 42.5t-57 16.5t-91 3.5t-90.5 -3.5t-57 -16.5t-32 -42.5t-13.5 -81.5t-3 -134t3 -134t13.5 -81.5t32 -42.5t57 -16.5t90.5 -3.5zM314 759v10
q0 15 4 25t13.5 17t26.5 12l23 6q22 7 33.5 12t14.5 11.5t3 18.5q0 19 -7.5 26.5t-26.5 9.5t-53 2q-12 0 -30 -0.5t-37.5 -1.5t-35.5 -3v43q25 3 58 5.5t59 2.5q43 0 72 -5t43.5 -21.5t14.5 -51.5q0 -22 -5 -36t-18 -23t-38 -16l-25 -7q-19 -5 -28 -9t-11 -9.5t-2 -17.5h-48
z" />
    <glyph glyph-name="uni1EDF" unicode="&#x1edf;" horiz-adv-x="577" 
d="M353 471v39h66q38 0 47 13t9 50v31h59v-23q0 -33 -4.5 -54.5t-16.5 -33.5t-35 -17t-59 -5h-66zM288 -8q-63 0 -104.5 7.5t-65.5 24.5t-35.5 47t-14.5 75.5t-3 108.5t3 108.5t14.5 75.5t35.5 47t65.5 24.5t104.5 7.5q64 0 105 -7.5t65.5 -24.5t36 -47t14.5 -75.5t3 -108.5
t-3 -108.5t-14.5 -75.5t-36 -47t-65.5 -24.5t-105 -7.5zM288 61q54 0 83 7t41.5 27t15 58.5t2.5 101.5t-2.5 101.5t-15 58.5t-41.5 27t-83 7q-53 0 -82.5 -7t-41.5 -27t-15 -58.5t-3 -101.5t3 -101.5t15 -58.5t41.5 -27t82.5 -7zM243 581v10q0 15 4 25t13.5 17t26.5 12l23 6
q22 7 33.5 12t14.5 11.5t3 18.5q0 19 -7.5 26.5t-26.5 9.5t-53 2q-12 0 -30 -0.5t-37.5 -1.5t-35.5 -3v43q25 3 58 5.5t59 2.5q43 0 72 -5t43.5 -21.5t14.5 -51.5q0 -22 -5 -36t-18 -23t-38 -16l-25 -7q-19 -5 -28 -9t-11 -9.5t-2 -17.5h-48z" />
    <glyph glyph-name="uni1EE0" unicode="&#x1ee0;" horiz-adv-x="717" 
d="M476 649v39h66q38 0 47 13t9 50v31h59v-23q0 -33 -4.5 -54.5t-16.5 -33.5t-35 -17t-59 -5h-66zM358 -8q-80 0 -132.5 8.5t-83 30.5t-44.5 61.5t-18 101t-4 150.5t4 150.5t18 101t44.5 61.5t83 30.5t132.5 8.5t132.5 -8.5t83 -30.5t44.5 -61.5t18 -101t4 -150.5t-4 -150.5
t-18 -101t-44.5 -61.5t-83 -30.5t-132.5 -8.5zM358 66q55 0 91 3.5t57 16.5t32 42.5t13.5 81.5t2.5 134t-2.5 134t-13.5 81.5t-32 42.5t-57 16.5t-91 3.5t-90.5 -3.5t-57 -16.5t-32 -42.5t-13.5 -81.5t-3 -134t3 -134t13.5 -81.5t32 -42.5t57 -16.5t90.5 -3.5zM188 780
q0 39 4.5 64t20.5 37.5t49 12.5q28 0 55 -7.5t54 -16.5q21 -7 40.5 -13t39.5 -6q22 0 26.5 11.5t4.5 42.5h47q0 -39 -4.5 -64t-20 -37.5t-48.5 -12.5q-30 0 -55.5 8t-53.5 16q-21 7 -41 13t-39 6q-22 0 -26.5 -11.5t-4.5 -42.5h-48z" />
    <glyph glyph-name="uni1EE1" unicode="&#x1ee1;" horiz-adv-x="580" 
d="M353 471v39h66q38 0 47 13t9 50v31h59v-23q0 -33 -4.5 -54.5t-16.5 -33.5t-35 -17t-59 -5h-66zM288 -8q-63 0 -104.5 7.5t-65.5 24.5t-35.5 47t-14.5 75.5t-3 108.5t3 108.5t14.5 75.5t35.5 47t65.5 24.5t104.5 7.5q64 0 105 -7.5t65.5 -24.5t36 -47t14.5 -75.5t3 -108.5
t-3 -108.5t-14.5 -75.5t-36 -47t-65.5 -24.5t-105 -7.5zM288 61q54 0 83 7t41.5 27t15 58.5t2.5 101.5t-2.5 101.5t-15 58.5t-41.5 27t-83 7q-53 0 -82.5 -7t-41.5 -27t-15 -58.5t-3 -101.5t3 -101.5t15 -58.5t41.5 -27t82.5 -7zM128 602q0 39 4.5 64t20.5 37.5t49 12.5
q28 0 55 -7.5t54 -16.5q21 -7 40.5 -13t39.5 -6q22 0 26.5 11.5t4.5 42.5h47q0 -39 -4.5 -64t-20 -37.5t-48.5 -12.5q-30 0 -55.5 8t-53.5 16q-21 7 -41 13t-39 6q-22 0 -26.5 -11.5t-4.5 -42.5h-48z" />
    <glyph glyph-name="uni1EE2" unicode="&#x1ee2;" horiz-adv-x="717" 
d="M476 649v39h66q38 0 47 13t9 50v31h59v-23q0 -33 -4.5 -54.5t-16.5 -33.5t-35 -17t-59 -5h-66zM358 -8q-80 0 -132.5 8.5t-83 30.5t-44.5 61.5t-18 101t-4 150.5t4 150.5t18 101t44.5 61.5t83 30.5t132.5 8.5t132.5 -8.5t83 -30.5t44.5 -61.5t18 -101t4 -150.5t-4 -150.5
t-18 -101t-44.5 -61.5t-83 -30.5t-132.5 -8.5zM358 66q55 0 91 3.5t57 16.5t32 42.5t13.5 81.5t2.5 134t-2.5 134t-13.5 81.5t-32 42.5t-57 16.5t-91 3.5t-90.5 -3.5t-57 -16.5t-32 -42.5t-13.5 -81.5t-3 -134t3 -134t13.5 -81.5t32 -42.5t57 -16.5t90.5 -3.5zM323 -192v76
h72v-76h-72z" />
    <glyph glyph-name="uni1EE3" unicode="&#x1ee3;" horiz-adv-x="577" 
d="M353 471v39h66q38 0 47 13t9 50v31h59v-23q0 -33 -4.5 -54.5t-16.5 -33.5t-35 -17t-59 -5h-66zM288 -8q-63 0 -104.5 7.5t-65.5 24.5t-35.5 47t-14.5 75.5t-3 108.5t3 108.5t14.5 75.5t35.5 47t65.5 24.5t104.5 7.5q64 0 105 -7.5t65.5 -24.5t36 -47t14.5 -75.5t3 -108.5
t-3 -108.5t-14.5 -75.5t-36 -47t-65.5 -24.5t-105 -7.5zM288 61q54 0 83 7t41.5 27t15 58.5t2.5 101.5t-2.5 101.5t-15 58.5t-41.5 27t-83 7q-53 0 -82.5 -7t-41.5 -27t-15 -58.5t-3 -101.5t3 -101.5t15 -58.5t41.5 -27t82.5 -7zM252 -192v76h72v-76h-72z" />
    <glyph glyph-name="uni1EE4" unicode="&#x1ee4;" horiz-adv-x="708" 
d="M355 -8q-71 0 -118.5 8.5t-76.5 28.5t-44 55.5t-20 88.5t-5 128v387h86v-421q0 -63 5 -102t21.5 -61t52.5 -30t99 -8t98.5 8t52 30t20.5 61t4 102v421h86v-387q0 -75 -4.5 -128t-19 -88.5t-43.5 -55.5t-76.5 -28.5t-117.5 -8.5zM319 -192v76h72v-76h-72z" />
    <glyph glyph-name="uni1EE5" unicode="&#x1ee5;" horiz-adv-x="599" 
d="M260 -8q-56 0 -90.5 12t-52.5 36t-24.5 61.5t-6.5 89.5v319h82v-291q0 -51 4 -82t17.5 -46.5t38.5 -20.5t65 -5q50 0 78 12.5t40.5 36t16 57t3.5 76.5v263h81v-510h-73l-3 73h-7q-10 -24 -29.5 -42t-53.5 -28.5t-86 -10.5zM243 -192v76h72v-76h-72z" />
    <glyph glyph-name="uni1EE6" unicode="&#x1ee6;" horiz-adv-x="708" 
d="M355 -8q-71 0 -118.5 8.5t-76.5 28.5t-44 55.5t-20 88.5t-5 128v387h86v-421q0 -63 5 -102t21.5 -61t52.5 -30t99 -8t98.5 8t52 30t20.5 61t4 102v421h86v-387q0 -75 -4.5 -128t-19 -88.5t-43.5 -55.5t-76.5 -28.5t-117.5 -8.5zM310 759v10q0 15 4 25t13.5 17t26.5 12
l23 6q22 7 33.5 12t14.5 11.5t3 18.5q0 19 -7.5 26.5t-26.5 9.5t-53 2q-12 0 -30 -0.5t-37.5 -1.5t-35.5 -3v43q25 3 58 5.5t59 2.5q43 0 72 -5t43.5 -21.5t14.5 -51.5q0 -22 -5 -36t-18 -23t-38 -16l-25 -7q-19 -5 -28 -9t-11 -9.5t-2 -17.5h-48z" />
    <glyph glyph-name="uni1EE7" unicode="&#x1ee7;" horiz-adv-x="599" 
d="M260 -8q-56 0 -90.5 12t-52.5 36t-24.5 61.5t-6.5 89.5v319h82v-291q0 -51 4 -82t17.5 -46.5t38.5 -20.5t65 -5q50 0 78 12.5t40.5 36t16 57t3.5 76.5v263h81v-510h-73l-3 73h-7q-10 -24 -29.5 -42t-53.5 -28.5t-86 -10.5zM254 581v10q0 15 4 25t13.5 17t26.5 12l23 6
q22 7 33.5 12t14.5 11.5t3 18.5q0 19 -7.5 26.5t-26.5 9.5t-53 2q-12 0 -30 -0.5t-37.5 -1.5t-35.5 -3v43q25 3 58 5.5t59 2.5q43 0 72 -5t43.5 -21.5t14.5 -51.5q0 -22 -5 -36t-18 -23t-38 -16l-25 -7q-19 -5 -28 -9t-11 -9.5t-2 -17.5h-48z" />
    <glyph glyph-name="uni1EE8" unicode="&#x1ee8;" horiz-adv-x="708" 
d="M552 649v39h66q38 0 47 13t9 50v31h59v-23q0 -33 -4 -54.5t-16.5 -33.5t-35 -17t-59.5 -5h-66zM355 -8q-71 0 -118.5 8.5t-76.5 28.5t-44 55.5t-20 88.5t-5 128v387h86v-421q0 -63 5 -102t21.5 -61t52.5 -30t99 -8t98.5 8t52 30t20.5 61t4 102v421h86v-387
q0 -75 -4.5 -128t-19 -88.5t-43.5 -55.5t-76.5 -28.5t-117.5 -8.5zM302 773v5l101 135h88v-5l-129 -135h-60z" />
    <glyph glyph-name="uni1EE9" unicode="&#x1ee9;" horiz-adv-x="599" 
d="M431 471v39h66q38 0 47 13t9 50v31h59v-23q0 -33 -4.5 -54.5t-16.5 -33.5t-35 -17t-59 -5h-66zM260 -8q-56 0 -90.5 12t-52.5 36t-24.5 61.5t-6.5 89.5v319h82v-291q0 -51 4 -82t17.5 -46.5t38.5 -20.5t65 -5q50 0 78 12.5t40.5 36t16 57t3.5 76.5v263h81v-510h-73l-3 73
h-7q-10 -24 -29.5 -42t-53.5 -28.5t-86 -10.5zM223 595v5l101 135h88v-5l-129 -135h-60z" />
    <glyph glyph-name="uni1EEA" unicode="&#x1eea;" horiz-adv-x="708" 
d="M552 649v39h66q38 0 47 13t9 50v31h59v-23q0 -33 -4 -54.5t-16.5 -33.5t-35 -17t-59.5 -5h-66zM355 -8q-71 0 -118.5 8.5t-76.5 28.5t-44 55.5t-20 88.5t-5 128v387h86v-421q0 -63 5 -102t21.5 -61t52.5 -30t99 -8t98.5 8t52 30t20.5 61t4 102v421h86v-387
q0 -75 -4.5 -128t-19 -88.5t-43.5 -55.5t-76.5 -28.5t-117.5 -8.5zM349 773l-129 135v5h88l101 -135v-5h-60z" />
    <glyph glyph-name="uni1EEB" unicode="&#x1eeb;" horiz-adv-x="599" 
d="M431 471v39h66q38 0 47 13t9 50v31h59v-23q0 -33 -4.5 -54.5t-16.5 -33.5t-35 -17t-59 -5h-66zM260 -8q-56 0 -90.5 12t-52.5 36t-24.5 61.5t-6.5 89.5v319h82v-291q0 -51 4 -82t17.5 -46.5t38.5 -20.5t65 -5q50 0 78 12.5t40.5 36t16 57t3.5 76.5v263h81v-510h-73l-3 73
h-7q-10 -24 -29.5 -42t-53.5 -28.5t-86 -10.5zM298 595l-129 135v5h88l101 -135v-5h-60z" />
    <glyph glyph-name="uni1EEC" unicode="&#x1eec;" horiz-adv-x="708" 
d="M552 649v39h66q38 0 47 13t9 50v31h59v-23q0 -33 -4 -54.5t-16.5 -33.5t-35 -17t-59.5 -5h-66zM355 -8q-71 0 -118.5 8.5t-76.5 28.5t-44 55.5t-20 88.5t-5 128v387h86v-421q0 -63 5 -102t21.5 -61t52.5 -30t99 -8t98.5 8t52 30t20.5 61t4 102v421h86v-387
q0 -75 -4.5 -128t-19 -88.5t-43.5 -55.5t-76.5 -28.5t-117.5 -8.5zM310 759v10q0 15 4 25t13.5 17t26.5 12l23 6q22 7 33.5 12t14.5 11.5t3 18.5q0 19 -7.5 26.5t-26.5 9.5t-53 2q-12 0 -30 -0.5t-37.5 -1.5t-35.5 -3v43q25 3 58 5.5t59 2.5q43 0 72 -5t43.5 -21.5
t14.5 -51.5q0 -22 -5 -36t-18 -23t-38 -16l-25 -7q-19 -5 -28 -9t-11 -9.5t-2 -17.5h-48z" />
    <glyph glyph-name="uni1EED" unicode="&#x1eed;" horiz-adv-x="599" 
d="M431 471v39h66q38 0 47 13t9 50v31h59v-23q0 -33 -4.5 -54.5t-16.5 -33.5t-35 -17t-59 -5h-66zM260 -8q-56 0 -90.5 12t-52.5 36t-24.5 61.5t-6.5 89.5v319h82v-291q0 -51 4 -82t17.5 -46.5t38.5 -20.5t65 -5q50 0 78 12.5t40.5 36t16 57t3.5 76.5v263h81v-510h-73l-3 73
h-7q-10 -24 -29.5 -42t-53.5 -28.5t-86 -10.5zM254 581v10q0 15 4 25t13.5 17t26.5 12l23 6q22 7 33.5 12t14.5 11.5t3 18.5q0 19 -7.5 26.5t-26.5 9.5t-53 2q-12 0 -30 -0.5t-37.5 -1.5t-35.5 -3v43q25 3 58 5.5t59 2.5q43 0 72 -5t43.5 -21.5t14.5 -51.5q0 -22 -5 -36
t-18 -23t-38 -16l-25 -7q-19 -5 -28 -9t-11 -9.5t-2 -17.5h-48z" />
    <glyph glyph-name="uni1EEE" unicode="&#x1eee;" horiz-adv-x="708" 
d="M552 649v39h66q38 0 47 13t9 50v31h59v-23q0 -33 -4 -54.5t-16.5 -33.5t-35 -17t-59.5 -5h-66zM355 -8q-71 0 -118.5 8.5t-76.5 28.5t-44 55.5t-20 88.5t-5 128v387h86v-421q0 -63 5 -102t21.5 -61t52.5 -30t99 -8t98.5 8t52 30t20.5 61t4 102v421h86v-387
q0 -75 -4.5 -128t-19 -88.5t-43.5 -55.5t-76.5 -28.5t-117.5 -8.5zM184 780q0 39 4.5 64t20.5 37.5t49 12.5q28 0 55 -7.5t54 -16.5q21 -7 40.5 -13t39.5 -6q22 0 26.5 11.5t4.5 42.5h47q0 -39 -4.5 -64t-20 -37.5t-48.5 -12.5q-30 0 -55.5 8t-53.5 16q-21 7 -41 13t-39 6
q-22 0 -26.5 -11.5t-4.5 -42.5h-48z" />
    </font>
</defs>
</svg>
